Sans_opsz10_wght700.ufo
<glyph name="exclam" format="2">
	<unicode hex="0021"/>
	<advance width="732"/>
	<outline>
		<contour>
			<point x="254" y="808" type="curve" smooth="yes"/>
			<point x="256" y="760"/>
			<point x="260" y="594"/>
			<point x="262" y="442" type="curve" smooth="yes"/>
			<point x="262" y="394"/>
			<point x="264" y="392"/>
			<point x="318" y="392" type="curve" smooth="yes"/>
			<point x="416" y="392" type="line" smooth="yes"/>
			<point x="468" y="392"/>
			<point x="470" y="394"/>
			<point x="472" y="448" type="curve" smooth="yes"/>
			<point x="480" y="594"/>
			<point x="482" y="760"/>
			<point x="484" y="808" type="curve" smooth="yes"/>
			<point x="492" y="984"/>
			<point x="498" y="1198"/>
			<point x="498" y="1346" type="curve" smooth="yes"/>
			<point x="498" y="1388"/>
			<point x="488" y="1388"/>
			<point x="444" y="1388" type="curve" smooth="yes"/>
			<point x="290" y="1388" type="line" smooth="yes"/>
			<point x="246" y="1388"/>
			<point x="236" y="1388"/>
			<point x="236" y="1346" type="curve" smooth="yes"/>
			<point x="238" y="1194"/>
			<point x="250" y="982"/>
		</contour>
		<contour>
			<point x="236" y="96" type="line" smooth="yes"/>
			<point x="236" y="24"/>
			<point x="258" y="0"/>
			<point x="332" y="0" type="curve" smooth="yes"/>
			<point x="402" y="0" type="line" smooth="yes"/>
			<point x="478" y="0"/>
			<point x="498" y="26"/>
			<point x="498" y="96" type="curve" smooth="yes"/>
			<point x="498" y="166" type="line" smooth="yes"/>
			<point x="498" y="230"/>
			<point x="484" y="262"/>
			<point x="402" y="262" type="curve" smooth="yes"/>
			<point x="332" y="262" type="line" smooth="yes"/>
			<point x="256" y="262"/>
			<point x="236" y="236"/>
			<point x="236" y="166" type="curve" smooth="yes"/>
		</contour>
	</outline>
</glyph>
<glyph name="percent" format="2">
	<unicode hex="0025"/>
	<advance width="2058"/>
	<outline>
		<contour>
			<point x="486" y="-112" type="curve" smooth="yes"/>
			<point x="528" y="-112"/>
			<point x="550" y="-84"/>
			<point x="560" y="-70" type="curve" smooth="yes"/>
			<point x="1636" y="1354" type="line" smooth="yes"/>
			<point x="1660" y="1386"/>
			<point x="1660" y="1410"/>
			<point x="1660" y="1416" type="curve" smooth="yes"/>
			<point x="1660" y="1460"/>
			<point x="1624" y="1500"/>
			<point x="1576" y="1500" type="curve" smooth="yes"/>
			<point x="1534" y="1500"/>
			<point x="1512" y="1470"/>
			<point x="1502" y="1458" type="curve" smooth="yes"/>
			<point x="428" y="34" type="line" smooth="yes"/>
			<point x="414" y="14"/>
			<point x="402" y="0"/>
			<point x="402" y="-28" type="curve" smooth="yes"/>
			<point x="402" y="-74"/>
			<point x="440" y="-112"/>
		</contour>
		<contour>
			<point x="484" y="838" type="curve" smooth="yes"/>
			<point x="362" y="838"/>
			<point x="362" y="974"/>
			<point x="362" y="1096" type="curve" smooth="yes"/>
			<point x="362" y="1220"/>
			<point x="362" y="1356"/>
			<point x="484" y="1356" type="curve" smooth="yes"/>
			<point x="616" y="1356"/>
			<point x="616" y="1162"/>
			<point x="616" y="1098" type="curve" smooth="yes"/>
			<point x="616" y="1032"/>
			<point x="616" y="838"/>
		</contour>
		<contour>
			<point x="486" y="694" type="curve" smooth="yes"/>
			<point x="760" y="694"/>
			<point x="844" y="878"/>
			<point x="844" y="1096" type="curve" smooth="yes"/>
			<point x="844" y="1264"/>
			<point x="798" y="1500"/>
			<point x="486" y="1500" type="curve" smooth="yes"/>
			<point x="250" y="1500"/>
			<point x="122" y="1368"/>
			<point x="122" y="1098" type="curve" smooth="yes"/>
			<point x="122" y="912"/>
			<point x="182" y="694"/>
		</contour>
		<contour>
			<point x="1574" y="32" type="curve" smooth="yes"/>
			<point x="1452" y="32"/>
			<point x="1452" y="168"/>
			<point x="1452" y="292" type="curve" smooth="yes"/>
			<point x="1452" y="414"/>
			<point x="1452" y="550"/>
			<point x="1574" y="550" type="curve" smooth="yes"/>
			<point x="1706" y="550"/>
			<point x="1706" y="356"/>
			<point x="1706" y="292" type="curve" smooth="yes"/>
			<point x="1706" y="226"/>
			<point x="1706" y="32"/>
		</contour>
		<contour>
			<point x="1576" y="-112" type="curve" smooth="yes"/>
			<point x="1850" y="-112"/>
			<point x="1934" y="72"/>
			<point x="1934" y="290" type="curve" smooth="yes"/>
			<point x="1934" y="458"/>
			<point x="1888" y="694"/>
			<point x="1576" y="694" type="curve" smooth="yes"/>
			<point x="1340" y="694"/>
			<point x="1212" y="562"/>
			<point x="1212" y="292" type="curve" smooth="yes"/>
			<point x="1212" y="106"/>
			<point x="1272" y="-112"/>
		</contour>
	</outline>
</glyph>
<glyph name="ampersand" format="2">
	<unicode hex="0026"/>
	<advance width="830"/>
	<outline>
		<contour>
			<point x="247" y="-22" type="curve" smooth="yes"/>
			<point x="363" y="-22"/>
			<point x="453" y="31"/>
			<point x="457" y="33" type="curve"/>
			<point x="505" y="6"/>
			<point x="563" y="-22"/>
			<point x="642" y="-22" type="curve" smooth="yes"/>
			<point x="707" y="-22"/>
			<point x="753" y="-6"/>
			<point x="760" y="-3" type="curve" smooth="yes"/>
			<point x="769" y="1"/>
			<point x="769" y="5"/>
			<point x="769" y="25" type="curve" smooth="yes"/>
			<point x="769" y="73" type="line" smooth="yes"/>
			<point x="769" y="92"/>
			<point x="769" y="102"/>
			<point x="756" y="102" type="curve" smooth="yes"/>
			<point x="753" y="102"/>
			<point x="752" y="101"/>
			<point x="746" y="98" type="curve" smooth="yes"/>
			<point x="698" y="79"/>
			<point x="656" y="78"/>
			<point x="643" y="78" type="curve" smooth="yes"/>
			<point x="621" y="78"/>
			<point x="590" y="81"/>
			<point x="552" y="102" type="curve"/>
			<point x="684" y="221"/>
			<point x="733" y="398"/>
			<point x="733" y="406" type="curve" smooth="yes"/>
			<point x="733" y="416"/>
			<point x="725" y="418"/>
			<point x="719" y="420" type="curve" smooth="yes"/>
			<point x="656" y="437" type="line" smooth="yes"/>
			<point x="635" y="443"/>
			<point x="636" y="436"/>
			<point x="629" y="413" type="curve" smooth="yes"/>
			<point x="589" y="285"/>
			<point x="519" y="203"/>
			<point x="471" y="165" type="curve"/>
			<point x="461" y="174"/>
			<point x="373" y="265"/>
			<point x="331" y="340" type="curve"/>
			<point x="450" y="425"/>
			<point x="511" y="486"/>
			<point x="511" y="553" type="curve" smooth="yes"/>
			<point x="511" y="636"/>
			<point x="442" y="716"/>
			<point x="343" y="716" type="curve" smooth="yes"/>
			<point x="250" y="716"/>
			<point x="157" y="642"/>
			<point x="157" y="523" type="curve" smooth="yes"/>
			<point x="157" y="447"/>
			<point x="182" y="374"/>
			<point x="199" y="335" type="curve"/>
			<point x="171" y="316"/>
			<point x="112" y="276"/>
			<point x="96" y="261" type="curve" smooth="yes"/>
			<point x="79" y="245"/>
			<point x="46" y="206"/>
			<point x="46" y="147" type="curve" smooth="yes"/>
			<point x="46" y="53"/>
			<point x="132" y="-22"/>
		</contour>
		<contour>
			<point x="298" y="407" type="curve"/>
			<point x="273" y="476"/>
			<point x="271" y="520"/>
			<point x="271" y="546" type="curve" smooth="yes"/>
			<point x="271" y="620"/>
			<point x="316" y="644"/>
			<point x="343" y="644" type="curve" smooth="yes"/>
			<point x="381" y="644"/>
			<point x="397" y="591"/>
			<point x="397" y="552" type="curve" smooth="yes"/>
			<point x="397" y="489"/>
			<point x="343" y="438"/>
		</contour>
		<contour>
			<point x="233" y="270" type="curve"/>
			<point x="274" y="198"/>
			<point x="331" y="140"/>
			<point x="368" y="102" type="curve"/>
			<point x="312" y="79"/>
			<point x="259" y="78"/>
			<point x="250" y="78" type="curve" smooth="yes"/>
			<point x="186" y="78"/>
			<point x="182" y="160"/>
			<point x="182" y="174" type="curve" smooth="yes"/>
			<point x="182" y="203.33316"/>
			<point x="189.0710429222" y="223.9205563857"/>
			<point x="198.1561589119" y="238.4110781286" type="curve" smooth="yes"/>
			<point x="210.1321180775" y="257.5124189234"/>
			<point x="225.60781" y="266.01959"/>
		</contour>
	</outline>
</glyph>
<glyph name="parenleft" format="2">
	<unicode hex="0028"/>
	<advance width="854"/>
	<outline>
		<contour>
			<point x="172" y="500" type="curve" smooth="yes"/>
			<point x="172" y="258"/>
			<point x="222" y="-160"/>
			<point x="556" y="-462" type="curve" smooth="yes"/>
			<point x="598" y="-500"/>
			<point x="602" y="-500"/>
			<point x="642" y="-500" type="curve" smooth="yes"/>
			<point x="678" y="-500" type="line" smooth="yes"/>
			<point x="710" y="-500"/>
			<point x="732" y="-500"/>
			<point x="732" y="-474" type="curve" smooth="yes"/>
			<point x="732" y="-468"/>
			<point x="728" y="-462"/>
			<point x="708" y="-438" type="curve" smooth="yes"/>
			<point x="582" y="-284"/>
			<point x="444" y="-38"/>
			<point x="444" y="500" type="curve" smooth="yes"/>
			<point x="444" y="1088"/>
			<point x="610" y="1320"/>
			<point x="720" y="1452" type="curve" smooth="yes"/>
			<point x="728" y="1462"/>
			<point x="732" y="1466"/>
			<point x="732" y="1474" type="curve" smooth="yes"/>
			<point x="732" y="1500"/>
			<point x="710" y="1500"/>
			<point x="678" y="1500" type="curve" smooth="yes"/>
			<point x="642" y="1500" type="line" smooth="yes"/>
			<point x="606" y="1500"/>
			<point x="602" y="1500"/>
			<point x="566" y="1468" type="curve" smooth="yes"/>
			<point x="326" y="1266"/>
			<point x="172" y="924"/>
		</contour>
	</outline>
</glyph>
<glyph name="parenright" format="2">
	<unicode hex="0029"/>
	<advance width="427"/>
	<outline>
		<contour>
			<point x="341" y="250" type="curve" smooth="yes"/>
			<point x="341" y="371"/>
			<point x="316" y="580"/>
			<point x="149" y="731" type="curve" smooth="yes"/>
			<point x="128" y="750"/>
			<point x="126" y="750"/>
			<point x="106" y="750" type="curve" smooth="yes"/>
			<point x="88" y="750" type="line" smooth="yes"/>
			<point x="72" y="750"/>
			<point x="61" y="750"/>
			<point x="61" y="737" type="curve" smooth="yes"/>
			<point x="61" y="734"/>
			<point x="62" y="733"/>
			<point x="73" y="719" type="curve" smooth="yes"/>
			<point x="135" y="643"/>
			<point x="205" y="519"/>
			<point x="205" y="250" type="curve" smooth="yes"/>
			<point x="205" y="-43"/>
			<point x="122" y="-159"/>
			<point x="67" y="-226" type="curve" smooth="yes"/>
			<point x="61" y="-233"/>
			<point x="61" y="-235"/>
			<point x="61" y="-237" type="curve" smooth="yes"/>
			<point x="61" y="-250"/>
			<point x="72" y="-250"/>
			<point x="88" y="-250" type="curve" smooth="yes"/>
			<point x="106" y="-250" type="line" smooth="yes"/>
			<point x="124" y="-250"/>
			<point x="126" y="-250"/>
			<point x="144" y="-234" type="curve" smooth="yes"/>
			<point x="264" y="-133"/>
			<point x="341" y="38"/>
		</contour>
	</outline>
</glyph>
<glyph name="asterisk" format="2">
  <advance width="550"/>
  <unicode hex="002A"/>
  <outline>
    <contour>
      <point x="295" y="486" type="line"/>
      <point x="395" y="394" type="line" smooth="yes"/>
      <point x="412" y="378"/>
      <point x="421" y="378"/>
      <point x="428" y="378" type="curve" smooth="yes"/>
      <point x="454" y="378"/>
      <point x="481" y="404"/>
      <point x="481" y="436" type="curve" smooth="yes"/>
      <point x="481" y="452"/>
      <point x="475" y="471"/>
      <point x="449" y="479" type="curve" smooth="yes"/>
      <point x="315" y="521" type="line"/>
      <point x="448" y="563" type="line" smooth="yes"/>
      <point x="457" y="566"/>
      <point x="481" y="573"/>
      <point x="481" y="606" type="curve" smooth="yes"/>
      <point x="481" y="638"/>
      <point x="454" y="664"/>
      <point x="428" y="664" type="curve" smooth="yes"/>
      <point x="413" y="664"/>
      <point x="407" y="658"/>
      <point x="396" y="648" type="curve" smooth="yes"/>
      <point x="295" y="556" type="line"/>
      <point x="323" y="687" type="line"/>
      <point x="324" y="689"/>
      <point x="327" y="705"/>
      <point x="327" y="706" type="curve" smooth="yes"/>
      <point x="327" y="731"/>
      <point x="302" y="750"/>
      <point x="275" y="750" type="curve" smooth="yes"/>
      <point x="245" y="750"/>
      <point x="222" y="729"/>
      <point x="222" y="706" type="curve" smooth="yes"/>
      <point x="222" y="705"/>
      <point x="225" y="689"/>
      <point x="226" y="687" type="curve"/>
      <point x="254" y="556" type="line"/>
      <point x="154" y="648" type="line" smooth="yes"/>
      <point x="137" y="664"/>
      <point x="128" y="664"/>
      <point x="121" y="664" type="curve" smooth="yes"/>
      <point x="95" y="664"/>
      <point x="68" y="638"/>
      <point x="68" y="606" type="curve" smooth="yes"/>
      <point x="68" y="590"/>
      <point x="74" y="571"/>
      <point x="100" y="563" type="curve" smooth="yes"/>
      <point x="234" y="521" type="line"/>
      <point x="101" y="479" type="line" smooth="yes"/>
      <point x="92" y="476"/>
      <point x="68" y="469"/>
      <point x="68" y="436" type="curve" smooth="yes"/>
      <point x="68" y="404"/>
      <point x="95" y="378"/>
      <point x="121" y="378" type="curve" smooth="yes"/>
      <point x="136" y="378"/>
      <point x="142" y="384"/>
      <point x="153" y="394" type="curve" smooth="yes"/>
      <point x="254" y="486" type="line"/>
      <point x="226" y="355" type="line"/>
      <point x="225" y="353"/>
      <point x="222" y="337"/>
      <point x="222" y="336" type="curve" smooth="yes"/>
      <point x="222" y="311"/>
      <point x="247" y="292"/>
      <point x="274" y="292" type="curve" smooth="yes"/>
      <point x="304" y="292"/>
      <point x="327" y="313"/>
      <point x="327" y="336" type="curve" smooth="yes"/>
      <point x="327" y="337"/>
      <point x="324" y="353"/>
      <point x="323" y="355" type="curve"/>
    </contour>
  </outline>
</glyph>
<glyph name="plus" format="2">
	<unicode hex="002B"/>
	<advance width="1710"/>
	<outline>
		<contour>
			<point x="940" y="416" type="line"/>
			<point x="1482" y="416" type="line" smooth="yes"/>
			<point x="1502" y="416"/>
			<point x="1588" y="416"/>
			<point x="1588" y="500" type="curve" smooth="yes"/>
			<point x="1588" y="584"/>
			<point x="1502" y="584"/>
			<point x="1482" y="584" type="curve" smooth="yes"/>
			<point x="940" y="584" type="line"/>
			<point x="940" y="1128" type="line" smooth="yes"/>
			<point x="940" y="1148"/>
			<point x="940" y="1234"/>
			<point x="856" y="1234" type="curve" smooth="yes"/>
			<point x="772" y="1234"/>
			<point x="772" y="1148"/>
			<point x="772" y="1128" type="curve" smooth="yes"/>
			<point x="772" y="584" type="line"/>
			<point x="228" y="584" type="line" smooth="yes"/>
			<point x="208" y="584"/>
			<point x="122" y="584"/>
			<point x="122" y="500" type="curve" smooth="yes"/>
			<point x="122" y="416"/>
			<point x="208" y="416"/>
			<point x="228" y="416" type="curve" smooth="yes"/>
			<point x="772" y="416" type="line"/>
			<point x="772" y="-128" type="line" smooth="yes"/>
			<point x="772" y="-148"/>
			<point x="772" y="-234"/>
			<point x="856" y="-234" type="curve" smooth="yes"/>
			<point x="940" y="-234"/>
			<point x="940" y="-148"/>
			<point x="940" y="-128" type="curve" smooth="yes"/>
		</contour>
	</outline>
</glyph>
<glyph name="hyphen" format="2">
	<unicode hex="002D"/>
	<advance width="366"/>
	<outline>
		<contour>
			<point x="305" y="229" type="curve"/>
			<point x="305" y="229"/>
			<point x="305" y="229"/>
			<point x="305" y="229" type="curve"/>
			<point x="305" y="265"/>
			<point x="269" y="265"/>
			<point x="257" y="265" type="curve" smooth="yes"/>
			<point x="191.399" y="265"/>
			<point x="125.798" y="265"/>
			<point x="60" y="265" type="curve" smooth="yes"/>
			<point x="48" y="265"/>
			<point x="12" y="265"/>
			<point x="12" y="229" type="curve"/>
			<point x="12" y="229"/>
			<point x="12" y="229"/>
			<point x="12" y="229" type="curve"/>
			<point x="12" y="193"/>
			<point x="48" y="193"/>
			<point x="60" y="193" type="curve" smooth="yes"/>
			<point x="125.601" y="193"/>
			<point x="191.202" y="193"/>
			<point x="257" y="193" type="curve" smooth="yes"/>
			<point x="269" y="193"/>
			<point x="305" y="193"/>
		</contour>
	</outline>
</glyph>
<glyph name="period" format="2">
	<unicode hex="002E"/>
	<advance width="305"/>
	<outline>
		<contour>
			<point x="218" y="104" type="line" smooth="yes"/>
			<point x="218" y="130"/>
			<point x="217" y="131"/>
			<point x="191" y="131" type="curve" smooth="yes"/>
			<point x="114" y="131" type="line" smooth="yes"/>
			<point x="88" y="131"/>
			<point x="87" y="130"/>
			<point x="87" y="104" type="curve" smooth="yes"/>
			<point x="87" y="27" type="line" smooth="yes"/>
			<point x="87" y="1"/>
			<point x="88" y="0"/>
			<point x="114" y="0" type="curve" smooth="yes"/>
			<point x="191" y="0" type="line" smooth="yes"/>
			<point x="217" y="0"/>
			<point x="218" y="1"/>
			<point x="218" y="27" type="curve" smooth="yes"/>
		</contour>
	</outline>
</glyph>
<glyph name="slash" format="2">
	<unicode hex="002F"/>
	<advance width="1100"/>
	<outline>
		<contour>
			<point x="964" y="1370" type="line" smooth="yes"/>
			<point x="976" y="1400"/>
			<point x="976" y="1402"/>
			<point x="976" y="1416" type="curve" smooth="yes"/>
			<point x="976" y="1460"/>
			<point x="940" y="1500"/>
			<point x="892" y="1500" type="curve" smooth="yes"/>
			<point x="834" y="1500"/>
			<point x="814" y="1450"/>
			<point x="808" y="1432" type="curve" smooth="yes"/>
			<point x="134" y="-370" type="line" smooth="yes"/>
			<point x="122" y="-400"/>
			<point x="122" y="-402"/>
			<point x="122" y="-416" type="curve" smooth="yes"/>
			<point x="122" y="-460"/>
			<point x="158" y="-500"/>
			<point x="206" y="-500" type="curve" smooth="yes"/>
			<point x="264" y="-500"/>
			<point x="284" y="-450"/>
			<point x="290" y="-432" type="curve" smooth="yes"/>
		</contour>
	</outline>
</glyph>
<glyph name="zero" format="2">
	<unicode hex="0030"/>
	<advance width="1100"/>
	<outline>
		<contour>
			<point x="548" y="-44" type="curve" smooth="yes"/>
			<point x="692" y="-44"/>
			<point x="791" y="0"/>
			<point x="860" y="68" type="curve" smooth="yes"/>
			<point x="1012" y="220"/>
			<point x="1012" y="494"/>
			<point x="1012" y="686" type="curve" smooth="yes"/>
			<point x="1012" y="877"/>
			<point x="1012" y="1164"/>
			<point x="856" y="1321" type="curve" smooth="yes"/>
			<point x="788" y="1389"/>
			<point x="690" y="1432"/>
			<point x="550" y="1432" type="curve" smooth="yes"/>
			<point x="408" y="1432"/>
			<point x="309" y="1388"/>
			<point x="241" y="1319" type="curve" smooth="yes"/>
			<point x="86" y="1163"/>
			<point x="88" y="880"/>
			<point x="86" y="686" type="curve" smooth="yes"/>
			<point x="84" y="496"/>
			<point x="86" y="219"/>
			<point x="240" y="67" type="curve" smooth="yes"/>
			<point x="308" y="-1"/>
			<point x="406" y="-44"/>
		</contour>
		<contour>
			<point x="548" y="100" type="curve" smooth="yes"/>
			<point x="400" y="100"/>
			<point x="378" y="284"/>
			<point x="372" y="338" type="curve" smooth="yes"/>
			<point x="358" y="444"/>
			<point x="358" y="632"/>
			<point x="358" y="714" type="curve" smooth="yes"/>
			<point x="358" y="832"/>
			<point x="358" y="960"/>
			<point x="370" y="1058" type="curve" smooth="yes"/>
			<point x="376" y="1112"/>
			<point x="396" y="1288"/>
			<point x="548" y="1288" type="curve" smooth="yes"/>
			<point x="696" y="1288"/>
			<point x="720" y="1120"/>
			<point x="726" y="1080" type="curve" smooth="yes"/>
			<point x="740" y="978"/>
			<point x="740" y="820"/>
			<point x="740" y="714" type="curve" smooth="yes"/>
			<point x="740" y="600"/>
			<point x="740" y="444"/>
			<point x="726" y="334" type="curve" smooth="yes"/>
			<point x="720" y="282"/>
			<point x="698" y="100"/>
		</contour>
	</outline>
</glyph>
<glyph name="one" format="2">
	<unicode hex="0031"/>
	<advance width="550"/>
	<outline>
		<contour>
			<point x="355" y="668" type="line" smooth="yes"/>
			<point x="355" y="687"/>
			<point x="355" y="716"/>
			<point x="311" y="716" type="curve" smooth="yes"/>
			<point x="291" y="716"/>
			<point x="287" y="714"/>
			<point x="275" y="702" type="curve"/>
			<point x="257" y="686"/>
			<point x="219" y="649"/>
			<point x="120" y="647" type="curve"/>
			<point x="102" y="647"/>
			<point x="76" y="640"/>
			<point x="76" y="611" type="curve" smooth="yes"/>
			<point x="76" y="575"/>
			<point x="111" y="575"/>
			<point x="124" y="575" type="curve" smooth="yes"/>
			<point x="154" y="575"/>
			<point x="189" y="580"/>
			<point x="218" y="588" type="curve"/>
			<point x="218" y="72" type="line"/>
			<point x="140" y="72" type="line" smooth="yes"/>
			<point x="127" y="72"/>
			<point x="92" y="72"/>
			<point x="92" y="36" type="curve" smooth="yes"/>
			<point x="92" y="0"/>
			<point x="127" y="0"/>
			<point x="140" y="0" type="curve" smooth="yes"/>
			<point x="425" y="0" type="line" smooth="yes"/>
			<point x="436" y="0"/>
			<point x="473" y="0"/>
			<point x="473" y="36" type="curve" smooth="yes"/>
			<point x="473" y="72"/>
			<point x="436" y="72"/>
			<point x="425" y="72" type="curve" smooth="yes"/>
			<point x="355" y="72" type="line"/>
		</contour>
	</outline>
</glyph>
<glyph name="two" format="2">
	<unicode hex="0032"/>
	<advance width="1100"/>
	<outline>
		<contour>
			<point x="708" y="968" type="curve" smooth="yes"/>
			<point x="708" y="840"/>
			<point x="632" y="706"/>
			<point x="512" y="578" type="curve" smooth="yes"/>
			<point x="385" y="442"/>
			<point x="258" y="306"/>
			<point x="130" y="170" type="curve" smooth="yes"/>
			<point x="110" y="150"/>
			<point x="110" y="146"/>
			<point x="110" y="112" type="curve" smooth="yes"/>
			<point x="110" y="96" type="line" smooth="yes"/>
			<point x="110" y="24"/>
			<point x="132" y="0"/>
			<point x="206" y="0" type="curve" smooth="yes"/>
			<point x="892" y="0" type="line" smooth="yes"/>
			<point x="968" y="0"/>
			<point x="988" y="26"/>
			<point x="988" y="96" type="curve" smooth="yes"/>
			<point x="988" y="120" type="line" smooth="yes"/>
			<point x="988" y="198"/>
			<point x="964" y="216"/>
			<point x="874" y="216" type="curve" smooth="yes"/>
			<point x="784" y="216"/>
			<point x="736" y="214"/>
			<point x="692" y="214" type="curve" smooth="yes"/>
			<point x="584" y="214"/>
			<point x="476" y="214"/>
			<point x="368" y="214" type="curve"/>
			<point x="464" y="303"/>
			<point x="560" y="391"/>
			<point x="656" y="480" type="curve" smooth="yes"/>
			<point x="782" y="596"/>
			<point x="988" y="747"/>
			<point x="988" y="972" type="curve" smooth="yes"/>
			<point x="988" y="1216"/>
			<point x="812" y="1432"/>
			<point x="518" y="1432" type="curve" smooth="yes"/>
			<point x="448" y="1432"/>
			<point x="334" y="1422"/>
			<point x="238" y="1344" type="curve" smooth="yes"/>
			<point x="220" y="1330"/>
			<point x="128" y="1258"/>
			<point x="92" y="1124" type="curve"/>
			<point x="192" y="996" type="line" smooth="yes"/>
			<point x="204" y="980"/>
			<point x="210" y="972"/>
			<point x="224" y="972" type="curve" smooth="yes"/>
			<point x="242" y="972"/>
			<point x="246" y="986"/>
			<point x="252" y="1010" type="curve" smooth="yes"/>
			<point x="292" y="1148"/>
			<point x="360" y="1232"/>
			<point x="488" y="1232" type="curve" smooth="yes"/>
			<point x="644" y="1232"/>
			<point x="708" y="1090"/>
		</contour>
	</outline>
</glyph>
<glyph name="three" format="2">
	<unicode hex="0033"/>
	<advance width="1100"/>
	<outline>
		<contour>
			<point x="526" y="-44" type="curve" smooth="yes"/>
			<point x="870" y="-44"/>
			<point x="1006" y="140"/>
			<point x="1006" y="406" type="curve" smooth="yes"/>
			<point x="1006" y="586"/>
			<point x="910" y="708"/>
			<point x="730" y="754" type="curve"/>
			<point x="892" y="842"/>
			<point x="946" y="972"/>
			<point x="946" y="1086" type="curve" smooth="yes"/>
			<point x="946" y="1406"/>
			<point x="660" y="1432"/>
			<point x="530" y="1432" type="curve" smooth="yes"/>
			<point x="292" y="1432"/>
			<point x="158" y="1284"/>
			<point x="126" y="1230" type="curve" smooth="yes"/>
			<point x="120" y="1220"/>
			<point x="120" y="1214"/>
			<point x="128" y="1202" type="curve" smooth="yes"/>
			<point x="192" y="1110" type="line" smooth="yes"/>
			<point x="208" y="1086"/>
			<point x="218" y="1086"/>
			<point x="222" y="1086" type="curve" smooth="yes"/>
			<point x="236" y="1086"/>
			<point x="240" y="1094"/>
			<point x="250" y="1108" type="curve" smooth="yes"/>
			<point x="352" y="1254"/>
			<point x="494" y="1254"/>
			<point x="520" y="1254" type="curve" smooth="yes"/>
			<point x="648" y="1254"/>
			<point x="666" y="1188"/>
			<point x="666" y="1090" type="curve" smooth="yes"/>
			<point x="666" y="912"/>
			<point x="578" y="834"/>
			<point x="462" y="826" type="curve" smooth="yes"/>
			<point x="422" y="824"/>
			<point x="402" y="822"/>
			<point x="388" y="820" type="curve" smooth="yes"/>
			<point x="364" y="816"/>
			<point x="366" y="800"/>
			<point x="366" y="768" type="curve" smooth="yes"/>
			<point x="366" y="732" type="line" smooth="yes"/>
			<point x="366" y="680"/>
			<point x="368" y="678"/>
			<point x="420" y="678" type="curve" smooth="yes"/>
			<point x="508" y="678" type="line" smooth="yes"/>
			<point x="690" y="678"/>
			<point x="712" y="564"/>
			<point x="712" y="410" type="curve" smooth="yes"/>
			<point x="712" y="276"/>
			<point x="698" y="144"/>
			<point x="516" y="144" type="curve" smooth="yes"/>
			<point x="452" y="144"/>
			<point x="304" y="158"/>
			<point x="170" y="284" type="curve" smooth="yes"/>
			<point x="152" y="302"/>
			<point x="150" y="304"/>
			<point x="142" y="304" type="curve" smooth="yes"/>
			<point x="126" y="304"/>
			<point x="118" y="292"/>
			<point x="116" y="282" type="curve" smooth="yes"/>
			<point x="94" y="160" type="line" smooth="yes"/>
			<point x="92" y="144"/>
			<point x="92" y="140"/>
			<point x="100" y="128" type="curve" smooth="yes"/>
			<point x="134" y="82"/>
			<point x="294" y="-44"/>
		</contour>
	</outline>
</glyph>
<glyph name="four" format="2">
	<unicode hex="0034"/>
	<advance width="550"/>
	<outline>
		<contour>
			<point x="39" y="262" type="line" smooth="yes"/>
			<point x="31" y="247"/>
			<point x="31" y="244"/>
			<point x="31" y="226" type="curve" smooth="yes"/>
			<point x="31" y="201" type="line" smooth="yes"/>
			<point x="31" y="169"/>
			<point x="38" y="153"/>
			<point x="79" y="153" type="curve" smooth="yes"/>
			<point x="304" y="153" type="line"/>
			<point x="304" y="48" type="line" smooth="yes"/>
			<point x="304" y="16"/>
			<point x="311" y="0"/>
			<point x="352" y="0" type="curve" smooth="yes"/>
			<point x="380" y="0" type="line" smooth="yes"/>
			<point x="418" y="0"/>
			<point x="428" y="13"/>
			<point x="428" y="48" type="curve" smooth="yes"/>
			<point x="428" y="153" type="line"/>
			<point x="470" y="153" type="line" smooth="yes"/>
			<point x="501" y="153"/>
			<point x="518" y="160"/>
			<point x="518" y="200" type="curve" smooth="yes"/>
			<point x="518" y="237"/>
			<point x="505" y="247"/>
			<point x="470" y="247" type="curve" smooth="yes"/>
			<point x="428" y="247" type="line"/>
			<point x="428" y="646" type="line" smooth="yes"/>
			<point x="428" y="682"/>
			<point x="417" y="694"/>
			<point x="380" y="694" type="curve" smooth="yes"/>
			<point x="307" y="694" type="line" smooth="yes"/>
			<point x="288" y="694"/>
			<point x="273" y="694"/>
			<point x="261" y="671" type="curve" smooth="yes"/>
		</contour>
		<contour>
			<point x="135" y="247" type="line"/>
			<point x="295" y="541"/>
			<point x="304" y="572"/>
			<point x="309" y="589" type="curve"/>
			<point x="310" y="589" type="line"/>
			<point x="310" y="247" type="line"/>
		</contour>
	</outline>
</glyph>
<glyph name="five" format="2">
	<unicode hex="0035"/>
	<advance width="550"/>
	<outline>
		<contour>
			<point x="213" y="594" type="line"/>
			<point x="409" y="594" type="line" smooth="yes"/>
			<point x="456" y="594"/>
			<point x="457" y="617"/>
			<point x="457" y="644" type="curve" smooth="yes"/>
			<point x="457" y="670"/>
			<point x="457" y="694"/>
			<point x="409" y="694" type="curve" smooth="yes"/>
			<point x="131" y="694" type="line" smooth="yes"/>
			<point x="99" y="694"/>
			<point x="83" y="688"/>
			<point x="83" y="648" type="curve" smooth="yes"/>
			<point x="83" y="342" type="line" smooth="yes"/>
			<point x="83" y="297"/>
			<point x="106" y="296"/>
			<point x="133" y="296" type="curve" smooth="yes"/>
			<point x="159" y="296"/>
			<point x="168" y="296"/>
			<point x="182" y="320" type="curve" smooth="yes"/>
			<point x="206" y="359"/>
			<point x="240" y="379"/>
			<point x="282" y="379" type="curve" smooth="yes"/>
			<point x="347" y="379"/>
			<point x="347" y="303"/>
			<point x="347" y="225" type="curve" smooth="yes"/>
			<point x="347" y="148"/>
			<point x="347" y="72"/>
			<point x="242" y="72" type="curve" smooth="yes"/>
			<point x="211" y="72"/>
			<point x="143" y="81"/>
			<point x="103" y="160" type="curve" smooth="yes"/>
			<point x="100" y="166"/>
			<point x="97" y="172"/>
			<point x="90" y="172" type="curve" smooth="yes"/>
			<point x="82" y="172"/>
			<point x="80" y="167"/>
			<point x="74" y="159" type="curve"/>
			<point x="60" y="136"/>
			<point x="37" y="101"/>
			<point x="37" y="94" type="curve" smooth="yes"/>
			<point x="37" y="86"/>
			<point x="102" y="-22"/>
			<point x="245" y="-22" type="curve" smooth="yes"/>
			<point x="406" y="-22"/>
			<point x="494" y="59"/>
			<point x="494" y="221" type="curve" smooth="yes"/>
			<point x="494" y="353"/>
			<point x="439" y="451"/>
			<point x="286" y="451" type="curve" smooth="yes"/>
			<point x="261" y="451"/>
			<point x="237" y="447"/>
			<point x="213" y="438" type="curve"/>
		</contour>
	</outline>
</glyph>
<glyph name="six" format="2">
	<unicode hex="0036"/>
	<advance width="1100"/>
	<outline>
		<contour>
			<point x="92" y="680" type="curve" smooth="yes"/>
			<point x="92" y="474"/>
			<point x="92" y="-44"/>
			<point x="558" y="-44" type="curve" smooth="yes"/>
			<point x="712" y="-44"/>
			<point x="808" y="-6"/>
			<point x="890" y="86" type="curve" smooth="yes"/>
			<point x="992" y="202"/>
			<point x="1006" y="316"/>
			<point x="1006" y="456" type="curve" smooth="yes"/>
			<point x="1006" y="586"/>
			<point x="1006" y="958"/>
			<point x="616" y="958" type="curve" smooth="yes"/>
			<point x="506" y="958"/>
			<point x="426" y="896"/>
			<point x="372" y="780" type="curve"/>
			<point x="380" y="958"/>
			<point x="384" y="1004"/>
			<point x="414" y="1084" type="curve" smooth="yes"/>
			<point x="472" y="1236"/>
			<point x="604" y="1254"/>
			<point x="674" y="1254" type="curve" smooth="yes"/>
			<point x="710" y="1254"/>
			<point x="762" y="1248"/>
			<point x="810" y="1222" type="curve" smooth="yes"/>
			<point x="824" y="1214"/>
			<point x="830" y="1208"/>
			<point x="840" y="1208" type="curve" smooth="yes"/>
			<point x="864" y="1208"/>
			<point x="864" y="1232"/>
			<point x="864" y="1262" type="curve" smooth="yes"/>
			<point x="864" y="1336" type="line" smooth="yes"/>
			<point x="864" y="1372"/>
			<point x="862" y="1384"/>
			<point x="838" y="1394" type="curve" smooth="yes"/>
			<point x="784" y="1418"/>
			<point x="734" y="1432"/>
			<point x="668" y="1432" type="curve" smooth="yes"/>
			<point x="92" y="1432"/>
			<point x="92" y="856"/>
		</contour>
		<contour>
			<point x="556" y="144" type="curve" smooth="yes"/>
			<point x="398" y="144"/>
			<point x="376" y="324"/>
			<point x="376" y="496" type="curve"/>
			<point x="376" y="496"/>
			<point x="376" y="496"/>
			<point x="376" y="496" type="curve"/>
			<point x="376" y="662"/>
			<point x="424" y="814"/>
			<point x="566" y="814" type="curve" smooth="yes"/>
			<point x="634" y="814"/>
			<point x="673" y="788"/>
			<point x="696" y="744" type="curve" smooth="yes"/>
			<point x="726" y="683"/>
			<point x="726" y="588"/>
			<point x="726" y="474" type="curve" smooth="yes"/>
			<point x="726" y="352"/>
			<point x="726" y="254"/>
			<point x="685" y="197" type="curve" smooth="yes"/>
			<point x="660" y="163"/>
			<point x="620" y="144"/>
		</contour>
	</outline>
</glyph>
<glyph name="eight" format="2">
	<unicode hex="0038"/>
	<advance width="1100"/>
	<outline>
		<contour>
			<point x="760" y="748" type="curve"/>
			<point x="952" y="812"/>
			<point x="976" y="952"/>
			<point x="976" y="1042" type="curve" smooth="yes"/>
			<point x="976" y="1336"/>
			<point x="788" y="1432"/>
			<point x="550" y="1432" type="curve" smooth="yes"/>
			<point x="332" y="1432"/>
			<point x="122" y="1354"/>
			<point x="122" y="1042" type="curve" smooth="yes"/>
			<point x="122" y="936"/>
			<point x="158" y="808"/>
			<point x="338" y="748" type="curve"/>
			<point x="132" y="690"/>
			<point x="92" y="532"/>
			<point x="92" y="406" type="curve" smooth="yes"/>
			<point x="92" y="94"/>
			<point x="260" y="-44"/>
			<point x="548" y="-44" type="curve" smooth="yes"/>
			<point x="850" y="-44"/>
			<point x="1006" y="106"/>
			<point x="1006" y="406" type="curve" smooth="yes"/>
			<point x="1006" y="588"/>
			<point x="920" y="702"/>
		</contour>
		<contour>
			<point x="550" y="822" type="curve" smooth="yes"/>
			<point x="382" y="822"/>
			<point x="378" y="920"/>
			<point x="378" y="1040" type="curve" smooth="yes"/>
			<point x="378" y="1178"/>
			<point x="390" y="1254"/>
			<point x="548" y="1254" type="curve" smooth="yes"/>
			<point x="706" y="1254"/>
			<point x="720" y="1182"/>
			<point x="720" y="1040" type="curve" smooth="yes"/>
			<point x="720" y="924"/>
			<point x="718" y="822"/>
		</contour>
		<contour>
			<point x="550" y="144" type="curve" smooth="yes"/>
			<point x="374" y="144"/>
			<point x="370" y="256"/>
			<point x="370" y="410" type="curve" smooth="yes"/>
			<point x="370" y="540"/>
			<point x="370" y="678"/>
			<point x="548" y="678" type="curve" smooth="yes"/>
			<point x="728" y="678"/>
			<point x="728" y="542"/>
			<point x="728" y="410" type="curve" smooth="yes"/>
			<point x="728" y="260"/>
			<point x="724" y="144"/>
		</contour>
	</outline>
</glyph>
<glyph name="nine" format="2">
	<unicode hex="0039"/>
	<advance width="550"/>
	<outline>
		<contour>
			<point x="229" y="-22" type="curve" smooth="yes"/>
			<point x="503" y="-22"/>
			<point x="503" y="266"/>
			<point x="503" y="356" type="curve" smooth="yes"/>
			<point x="503" y="463"/>
			<point x="502" y="716"/>
			<point x="275" y="716" type="curve" smooth="yes"/>
			<point x="213" y="716"/>
			<point x="147" y="705"/>
			<point x="95" y="641" type="curve" smooth="yes"/>
			<point x="53" y="586"/>
			<point x="46" y="536"/>
			<point x="46" y="459" type="curve" smooth="yes"/>
			<point x="46" y="396"/>
			<point x="48" y="339"/>
			<point x="91" y="282" type="curve" smooth="yes"/>
			<point x="131" y="230"/>
			<point x="177" y="215"/>
			<point x="241" y="215" type="curve" smooth="yes"/>
			<point x="315" y="215"/>
			<point x="350" y="274"/>
			<point x="363" y="305" type="curve"/>
			<point x="362" y="296"/>
			<point x="363" y="277"/>
			<point x="360" y="234" type="curve" smooth="yes"/>
			<point x="355" y="173"/>
			<point x="337" y="72"/>
			<point x="227" y="72" type="curve" smooth="yes"/>
			<point x="196" y="72"/>
			<point x="166" y="80"/>
			<point x="137" y="108" type="curve" smooth="yes"/>
			<point x="134" y="111"/>
			<point x="132" y="113"/>
			<point x="127" y="113" type="curve" smooth="yes"/>
			<point x="119" y="113"/>
			<point x="117" y="108"/>
			<point x="112" y="100" type="curve" smooth="yes"/>
			<point x="97" y="75"/>
			<point x="87" y="58"/>
			<point x="81" y="46" type="curve" smooth="yes"/>
			<point x="78" y="40"/>
			<point x="78" y="38"/>
			<point x="82" y="33" type="curve" smooth="yes"/>
			<point x="95" y="17"/>
			<point x="144" y="-22"/>
		</contour>
		<contour>
			<point x="266" y="287" type="curve" smooth="yes"/>
			<point x="233" y="287"/>
			<point x="213.6125" y="299.25125"/>
			<point x="202.22234375" y="320.5952246094" type="curve" smooth="yes"/>
			<point x="186" y="350.99421875"/>
			<point x="186" y="399.8375"/>
			<point x="186" y="458" type="curve" smooth="yes"/>
			<point x="186" y="522"/>
			<point x="186" y="575.04372911"/>
			<point x="212.0837280522" y="603.7914317426" type="curve" smooth="yes"/>
			<point x="225.5603604396" y="618.6444550368"/>
			<point x="245" y="627"/>
			<point x="277" y="627" type="curve" smooth="yes"/>
			<point x="346" y="627"/>
			<point x="362" y="550"/>
			<point x="362" y="445" type="curve"/>
			<point x="362" y="445"/>
			<point x="362" y="445"/>
			<point x="362" y="445" type="curve"/>
			<point x="362" y="431"/>
			<point x="362" y="287"/>
		</contour>
	</outline>
</glyph>
<glyph name="colon" format="2">
	<unicode hex="003A"/>
	<advance width="610"/>
	<outline>
		<contour>
			<point x="436" y="862" type="line" smooth="yes"/>
			<point x="436" y="914"/>
			<point x="434" y="916"/>
			<point x="382" y="916" type="curve" smooth="yes"/>
			<point x="228" y="916" type="line" smooth="yes"/>
			<point x="176" y="916"/>
			<point x="174" y="914"/>
			<point x="174" y="862" type="curve" smooth="yes"/>
			<point x="174" y="708" type="line" smooth="yes"/>
			<point x="174" y="656"/>
			<point x="176" y="654"/>
			<point x="228" y="654" type="curve" smooth="yes"/>
			<point x="382" y="654" type="line" smooth="yes"/>
			<point x="434" y="654"/>
			<point x="436" y="656"/>
			<point x="436" y="708" type="curve" smooth="yes"/>
		</contour>
		<contour>
			<point x="174" y="54" type="curve" smooth="yes"/>
			<point x="174" y="2"/>
			<point x="176" y="0"/>
			<point x="228" y="0" type="curve" smooth="yes"/>
			<point x="279" y="0"/>
			<point x="331" y="0"/>
			<point x="382" y="0" type="curve" smooth="yes"/>
			<point x="434" y="0"/>
			<point x="436" y="2"/>
			<point x="436" y="54" type="curve" smooth="yes"/>
			<point x="436" y="105"/>
			<point x="436" y="157"/>
			<point x="436" y="208" type="curve" smooth="yes"/>
			<point x="436" y="260"/>
			<point x="434" y="262"/>
			<point x="382" y="262" type="curve" smooth="yes"/>
			<point x="331" y="262"/>
			<point x="279" y="262"/>
			<point x="228" y="262" type="curve" smooth="yes"/>
			<point x="176" y="262"/>
			<point x="174" y="260"/>
			<point x="174" y="208" type="curve" smooth="yes"/>
			<point x="174" y="157"/>
			<point x="174" y="105"/>
		</contour>
	</outline>
</glyph>
<glyph name="semicolon" format="2">
	<unicode hex="003B"/>
	<advance width="610"/>
	<outline>
		<contour>
			<point x="436" y="862" type="line" smooth="yes"/>
			<point x="436" y="914"/>
			<point x="434" y="916"/>
			<point x="382" y="916" type="curve" smooth="yes"/>
			<point x="228" y="916" type="line" smooth="yes"/>
			<point x="176" y="916"/>
			<point x="174" y="914"/>
			<point x="174" y="862" type="curve" smooth="yes"/>
			<point x="174" y="708" type="line" smooth="yes"/>
			<point x="174" y="656"/>
			<point x="176" y="654"/>
			<point x="228" y="654" type="curve" smooth="yes"/>
			<point x="382" y="654" type="line" smooth="yes"/>
			<point x="434" y="654"/>
			<point x="436" y="656"/>
			<point x="436" y="708" type="curve" smooth="yes"/>
		</contour>
		<contour>
			<point x="242" y="0" type="line"/>
			<point x="182" y="-166" type="line" smooth="yes"/>
			<point x="180" y="-172"/>
			<point x="176" y="-182"/>
			<point x="176" y="-190" type="curve" smooth="yes"/>
			<point x="176" y="-206"/>
			<point x="192" y="-212"/>
			<point x="212" y="-212" type="curve" smooth="yes"/>
			<point x="256" y="-212" type="line" smooth="yes"/>
			<point x="292" y="-212"/>
			<point x="294" y="-210"/>
			<point x="314" y="-178" type="curve" smooth="yes"/>
			<point x="350" y="-124"/>
			<point x="384" y="-68"/>
			<point x="418" y="-12" type="curve" smooth="yes"/>
			<point x="436" y="16"/>
			<point x="436" y="20"/>
			<point x="436" y="54" type="curve" smooth="yes"/>
			<point x="436" y="208" type="line" smooth="yes"/>
			<point x="436" y="260"/>
			<point x="434" y="262"/>
			<point x="382" y="262" type="curve" smooth="yes"/>
			<point x="228" y="262" type="line" smooth="yes"/>
			<point x="176" y="262"/>
			<point x="174" y="260"/>
			<point x="174" y="208" type="curve" smooth="yes"/>
			<point x="174" y="54" type="line" smooth="yes"/>
			<point x="174" y="2"/>
			<point x="176" y="0"/>
			<point x="242" y="0" type="curve"/>
		</contour>
	</outline>
</glyph>
<glyph name="equal" format="2">
	<unicode hex="003D"/>
	<advance width="1710"/>
	<outline>
		<contour>
			<point x="1480" y="646" type="line" smooth="yes"/>
			<point x="1504" y="646"/>
			<point x="1588" y="646"/>
			<point x="1588" y="730" type="curve" smooth="yes"/>
			<point x="1588" y="814"/>
			<point x="1502" y="814"/>
			<point x="1482" y="814" type="curve" smooth="yes"/>
			<point x="228" y="814" type="line" smooth="yes"/>
			<point x="208" y="814"/>
			<point x="122" y="814"/>
			<point x="122" y="730" type="curve" smooth="yes"/>
			<point x="122" y="646"/>
			<point x="208" y="646"/>
			<point x="230" y="646" type="curve" smooth="yes"/>
		</contour>
		<contour>
			<point x="1482" y="186" type="line" smooth="yes"/>
			<point x="1502" y="186"/>
			<point x="1588" y="186"/>
			<point x="1588" y="270" type="curve" smooth="yes"/>
			<point x="1588" y="354"/>
			<point x="1502" y="354"/>
			<point x="1480" y="354" type="curve" smooth="yes"/>
			<point x="230" y="354" type="line" smooth="yes"/>
			<point x="206" y="354"/>
			<point x="122" y="354"/>
			<point x="122" y="270" type="curve" smooth="yes"/>
			<point x="122" y="186"/>
			<point x="208" y="186"/>
			<point x="228" y="186" type="curve" smooth="yes"/>
		</contour>
	</outline>
</glyph>
<glyph name="question" format="2">
	<unicode hex="003F"/>
	<advance width="1038"/>
	<outline>
		<contour>
			<point x="592" y="500" type="line" smooth="yes"/>
			<point x="592" y="710"/>
			<point x="734" y="822"/>
			<point x="804" y="876" type="curve" smooth="yes"/>
			<point x="862" y="918"/>
			<point x="914" y="986"/>
			<point x="914" y="1108" type="curve" smooth="yes"/>
			<point x="914" y="1410"/>
			<point x="602" y="1410"/>
			<point x="500" y="1410" type="curve" smooth="yes"/>
			<point x="448" y="1410"/>
			<point x="292" y="1408"/>
			<point x="142" y="1310" type="curve" smooth="yes"/>
			<point x="128" y="1300"/>
			<point x="118" y="1292"/>
			<point x="124" y="1274" type="curve" smooth="yes"/>
			<point x="168" y="1154" type="line" smooth="yes"/>
			<point x="176" y="1130"/>
			<point x="180" y="1120"/>
			<point x="198" y="1120" type="curve" smooth="yes"/>
			<point x="210" y="1120"/>
			<point x="212" y="1124"/>
			<point x="224" y="1138" type="curve" smooth="yes"/>
			<point x="302" y="1232"/>
			<point x="396" y="1266"/>
			<point x="494" y="1266" type="curve" smooth="yes"/>
			<point x="626" y="1266"/>
			<point x="642" y="1222"/>
			<point x="642" y="1118" type="curve" smooth="yes"/>
			<point x="642" y="1022"/>
			<point x="624" y="1004"/>
			<point x="582" y="960" type="curve" smooth="yes"/>
			<point x="382" y="756"/>
			<point x="382" y="546"/>
			<point x="382" y="478" type="curve" smooth="yes"/>
			<point x="382" y="462"/>
			<point x="382" y="438"/>
			<point x="382" y="424" type="curve" smooth="yes"/>
			<point x="382" y="394"/>
			<point x="398" y="392"/>
			<point x="438" y="392" type="curve" smooth="yes"/>
			<point x="536" y="392" type="line" smooth="yes"/>
			<point x="590" y="392"/>
			<point x="592" y="394"/>
			<point x="592" y="446" type="curve" smooth="yes"/>
		</contour>
		<contour>
			<point x="356" y="96" type="line" smooth="yes"/>
			<point x="356" y="24"/>
			<point x="378" y="0"/>
			<point x="452" y="0" type="curve" smooth="yes"/>
			<point x="522" y="0" type="line" smooth="yes"/>
			<point x="598" y="0"/>
			<point x="618" y="26"/>
			<point x="618" y="96" type="curve" smooth="yes"/>
			<point x="618" y="166" type="line" smooth="yes"/>
			<point x="618" y="230"/>
			<point x="604" y="262"/>
			<point x="522" y="262" type="curve" smooth="yes"/>
			<point x="452" y="262" type="line" smooth="yes"/>
			<point x="376" y="262"/>
			<point x="356" y="236"/>
			<point x="356" y="166" type="curve" smooth="yes"/>
		</contour>
	</outline>
</glyph>
<glyph name="at" format="2">
	<unicode hex="0040"/>
	<advance width="1466"/>
	<outline>
		<contour>
			<point x="1212" y="202" type="line" smooth="yes"/>
			<point x="1180" y="202"/>
			<point x="1176" y="200"/>
			<point x="1162" y="194" type="curve" smooth="yes"/>
			<point x="1094" y="162"/>
			<point x="994" y="122"/>
			<point x="852" y="122" type="curve" smooth="yes"/>
			<point x="516" y="122"/>
			<point x="362" y="318"/>
			<point x="362" y="694" type="curve" smooth="yes"/>
			<point x="362" y="1088"/>
			<point x="530" y="1266"/>
			<point x="844" y="1266" type="curve" smooth="yes"/>
			<point x="938" y="1266"/>
			<point x="1014" y="1226"/>
			<point x="1048" y="1138" type="curve"/>
			<point x="986" y="1152"/>
			<point x="940" y="1152"/>
			<point x="916" y="1152" type="curve" smooth="yes"/>
			<point x="610" y="1152"/>
			<point x="492" y="966"/>
			<point x="492" y="694" type="curve" smooth="yes"/>
			<point x="492" y="406"/>
			<point x="622" y="236"/>
			<point x="916" y="236" type="curve" smooth="yes"/>
			<point x="1342" y="236"/>
			<point x="1342" y="586"/>
			<point x="1342" y="734" type="curve" smooth="yes"/>
			<point x="1342" y="1128"/>
			<point x="1274" y="1410"/>
			<point x="846" y="1410" type="curve" smooth="yes"/>
			<point x="376" y="1410"/>
			<point x="122" y="1174"/>
			<point x="122" y="694" type="curve" smooth="yes"/>
			<point x="122" y="206"/>
			<point x="384" y="-22"/>
			<point x="846" y="-22" type="curve" smooth="yes"/>
			<point x="1008" y="-22"/>
			<point x="1198" y="32"/>
			<point x="1328" y="154" type="curve" smooth="yes"/>
			<point x="1338" y="164"/>
			<point x="1342" y="170"/>
			<point x="1342" y="176" type="curve" smooth="yes"/>
			<point x="1342" y="202"/>
			<point x="1320" y="202"/>
			<point x="1288" y="202" type="curve" smooth="yes"/>
		</contour>
		<contour>
			<point x="918" y="380" type="curve" smooth="yes"/>
			<point x="732" y="380"/>
			<point x="732" y="616"/>
			<point x="732" y="694" type="curve" smooth="yes"/>
			<point x="732" y="770"/>
			<point x="732" y="1008"/>
			<point x="916" y="1008" type="curve" smooth="yes"/>
			<point x="1102" y="1008"/>
			<point x="1102" y="772"/>
			<point x="1102" y="694" type="curve" smooth="yes"/>
			<point x="1102" y="618"/>
			<point x="1102" y="380"/>
		</contour>
	</outline>
</glyph>
<glyph name="A" format="2">
	<unicode hex="0041"/>
	<advance width="733"/>
	<outline>
		<contour>
			<point x="219" y="151" type="line"/>
			<point x="496" y="151" type="line"/>
			<point x="530" y="55" type="line" smooth="yes"/>
			<point x="542" y="20"/>
			<point x="549" y="0"/>
			<point x="597" y="0" type="curve" smooth="yes"/>
			<point x="651" y="0" type="line" smooth="yes"/>
			<point x="665" y="0"/>
			<point x="690" y="0"/>
			<point x="690" y="27" type="curve" smooth="yes"/>
			<point x="690" y="32"/>
			<point x="690" y="34"/>
			<point x="685" y="47" type="curve" smooth="yes"/>
			<point x="474" y="651" type="line" smooth="yes"/>
			<point x="459" y="694"/>
			<point x="430" y="694"/>
			<point x="410" y="694" type="curve" smooth="yes"/>
			<point x="322" y="694" type="line" smooth="yes"/>
			<point x="302" y="694"/>
			<point x="273" y="694"/>
			<point x="258" y="651" type="curve" smooth="yes"/>
			<point x="47" y="47" type="line" smooth="yes"/>
			<point x="42" y="34"/>
			<point x="42" y="32"/>
			<point x="42" y="27" type="curve" smooth="yes"/>
			<point x="42" y="0"/>
			<point x="67" y="0"/>
			<point x="81" y="0" type="curve" smooth="yes"/>
			<point x="117" y="0" type="line" smooth="yes"/>
			<point x="135" y="0"/>
			<point x="166" y="0"/>
			<point x="180" y="40" type="curve" smooth="yes"/>
		</contour>
		<contour>
			<point x="249" y="237" type="line"/>
			<point x="321" y="449" type="line" smooth="yes"/>
			<point x="336" y="493"/>
			<point x="349" y="531"/>
			<point x="357" y="567" type="curve"/>
			<point x="358" y="567" type="line"/>
			<point x="363" y="543"/>
			<point x="369" y="523"/>
			<point x="390" y="462" type="curve" smooth="yes"/>
			<point x="466" y="237" type="line"/>
		</contour>
	</outline>
</glyph>
<glyph name="B" format="2">
	<unicode hex="0042"/>
	<advance width="1466"/>
	<outline>
		<contour>
			<point x="278" y="1388" type="line" smooth="yes"/>
			<point x="206" y="1388"/>
			<point x="182" y="1366"/>
			<point x="182" y="1292" type="curve" smooth="yes"/>
			<point x="182" y="96" type="line" smooth="yes"/>
			<point x="182" y="24"/>
			<point x="204" y="0"/>
			<point x="278" y="0" type="curve" smooth="yes"/>
			<point x="826" y="0" type="line" smooth="yes"/>
			<point x="974" y="0"/>
			<point x="1342" y="26"/>
			<point x="1342" y="388" type="curve" smooth="yes"/>
			<point x="1342" y="670"/>
			<point x="1064" y="714"/>
			<point x="990" y="726" type="curve"/>
			<point x="1174" y="768"/>
			<point x="1280" y="872"/>
			<point x="1280" y="1028" type="curve" smooth="yes"/>
			<point x="1280" y="1388"/>
			<point x="854" y="1388"/>
			<point x="770" y="1388" type="curve" smooth="yes"/>
		</contour>
		<contour>
			<point x="464" y="794" type="line"/>
			<point x="464" y="1216" type="line"/>
			<point x="698" y="1216" type="line" smooth="yes"/>
			<point x="776" y="1216"/>
			<point x="1008" y="1210"/>
			<point x="1008" y="1022" type="curve" smooth="yes"/>
			<point x="1008" y="794"/>
			<point x="746" y="794"/>
			<point x="696" y="794" type="curve" smooth="yes"/>
		</contour>
		<contour>
			<point x="464" y="172" type="line"/>
			<point x="464" y="650" type="line"/>
			<point x="716" y="650" type="line" smooth="yes"/>
			<point x="786" y="650"/>
			<point x="1064" y="650"/>
			<point x="1064" y="392" type="curve" smooth="yes"/>
			<point x="1064" y="186"/>
			<point x="850" y="172"/>
			<point x="754" y="172" type="curve" smooth="yes"/>
		</contour>
	</outline>
</glyph>
<glyph name="C" format="2">
	<unicode hex="0043"/>
	<advance width="1406"/>
	<outline>
		<contour>
			<point x="122" y="698" type="curve" smooth="yes"/>
			<point x="122" y="208"/>
			<point x="376" y="-20"/>
			<point x="862" y="-20" type="curve" smooth="yes"/>
			<point x="1032" y="-20"/>
			<point x="1138" y="4"/>
			<point x="1284" y="94" type="curve" smooth="yes"/>
			<point x="1300" y="104"/>
			<point x="1296" y="118"/>
			<point x="1296" y="118" type="curve" smooth="yes"/>
			<point x="1280" y="286" type="line" smooth="yes"/>
			<point x="1278" y="302"/>
			<point x="1266" y="310"/>
			<point x="1258" y="310" type="curve" smooth="yes"/>
			<point x="1210" y="310"/>
			<point x="1152" y="180"/>
			<point x="870" y="180" type="curve" smooth="yes"/>
			<point x="518" y="180"/>
			<point x="418" y="396"/>
			<point x="418" y="696" type="curve" smooth="yes"/>
			<point x="418" y="994"/>
			<point x="526" y="1210"/>
			<point x="854" y="1210" type="curve" smooth="yes"/>
			<point x="1032" y="1210"/>
			<point x="1126" y="1140"/>
			<point x="1180" y="1096" type="curve" smooth="yes"/>
			<point x="1192" y="1086"/>
			<point x="1198" y="1078"/>
			<point x="1212" y="1078" type="curve" smooth="yes"/>
			<point x="1220" y="1078"/>
			<point x="1230" y="1088"/>
			<point x="1232" y="1096" type="curve" smooth="yes"/>
			<point x="1272" y="1318" type="line" smooth="yes"/>
			<point x="1274" y="1326"/>
			<point x="1272" y="1334"/>
			<point x="1256" y="1340" type="curve" smooth="yes"/>
			<point x="1138" y="1384"/>
			<point x="1016" y="1412"/>
			<point x="860" y="1412" type="curve" smooth="yes"/>
			<point x="372" y="1412"/>
			<point x="122" y="1174"/>
		</contour>
	</outline>
</glyph>
<glyph name="D" format="2">
	<unicode hex="0044"/>
	<advance width="794"/>
	<outline>
		<contour>
			<point x="403" y="0" type="line" smooth="yes"/>
			<point x="647" y="0"/>
			<point x="732" y="146"/>
			<point x="732" y="342" type="curve" smooth="yes"/>
			<point x="732" y="570"/>
			<point x="624" y="694"/>
			<point x="402" y="694" type="curve" smooth="yes"/>
			<point x="139" y="694" type="line" smooth="yes"/>
			<point x="103" y="694"/>
			<point x="91" y="683"/>
			<point x="91" y="646" type="curve" smooth="yes"/>
			<point x="91" y="48" type="line" smooth="yes"/>
			<point x="91" y="12"/>
			<point x="102" y="0"/>
			<point x="139" y="0" type="curve" smooth="yes"/>
		</contour>
		<contour>
			<point x="235" y="86" type="line"/>
			<point x="235" y="608" type="line"/>
			<point x="363" y="608" type="line" smooth="yes"/>
			<point x="579" y="608"/>
			<point x="588" y="454"/>
			<point x="588" y="342" type="curve" smooth="yes"/>
			<point x="588" y="229"/>
			<point x="577" y="86"/>
			<point x="364" y="86" type="curve" smooth="yes"/>
		</contour>
	</outline>
</glyph>
<glyph name="E" format="2">
	<unicode hex="0045"/>
	<advance width="1282"/>
	<outline>
		<contour>
			<point x="476" y="212" type="line"/>
			<point x="476" y="622" type="line"/>
			<point x="1002" y="622" type="line" smooth="yes"/>
			<point x="1064" y="622"/>
			<point x="1098" y="636"/>
			<point x="1098" y="716" type="curve"/>
			<point x="1098" y="716" type="line"/>
			<point x="1098" y="790"/>
			<point x="1072" y="810"/>
			<point x="1002" y="810" type="curve" smooth="yes"/>
			<point x="476" y="810" type="line"/>
			<point x="476" y="1180" type="line"/>
			<point x="1044" y="1174" type="line" smooth="yes"/>
			<point x="1114" y="1174"/>
			<point x="1160" y="1174"/>
			<point x="1160" y="1270" type="curve" smooth="yes"/>
			<point x="1160" y="1286" type="line" smooth="yes"/>
			<point x="1160" y="1350"/>
			<point x="1146" y="1382"/>
			<point x="1064" y="1382" type="curve" smooth="yes"/>
			<point x="278" y="1382" type="line" smooth="yes"/>
			<point x="206" y="1382"/>
			<point x="182" y="1360"/>
			<point x="182" y="1286" type="curve" smooth="yes"/>
			<point x="182" y="96" type="line" smooth="yes"/>
			<point x="182" y="24"/>
			<point x="204" y="0"/>
			<point x="278" y="0" type="curve" smooth="yes"/>
			<point x="1094" y="0" type="line" smooth="yes"/>
			<point x="1170" y="0"/>
			<point x="1190" y="26"/>
			<point x="1190" y="96" type="curve" smooth="yes"/>
			<point x="1190" y="124" type="line" smooth="yes"/>
			<point x="1190" y="220"/>
			<point x="1144" y="220"/>
			<point x="1078" y="220" type="curve" smooth="yes"/>
		</contour>
	</outline>
</glyph>
<glyph name="F" format="2">
	<unicode hex="0046"/>
	<advance width="611"/>
	<outline>
		<contour>
			<point x="238" y="299" type="line"/>
			<point x="470" y="299" type="line" smooth="yes"/>
			<point x="501" y="299"/>
			<point x="518" y="306"/>
			<point x="518" y="346" type="curve"/>
			<point x="518" y="346" type="line"/>
			<point x="518" y="383"/>
			<point x="505" y="393"/>
			<point x="470" y="393" type="curve" smooth="yes"/>
			<point x="238" y="393" type="line"/>
			<point x="238" y="590" type="line"/>
			<point x="507" y="587" type="line" smooth="yes"/>
			<point x="541" y="587"/>
			<point x="564" y="587"/>
			<point x="564" y="635" type="curve" smooth="yes"/>
			<point x="564" y="643" type="line" smooth="yes"/>
			<point x="564" y="675"/>
			<point x="557" y="691"/>
			<point x="516" y="691" type="curve" smooth="yes"/>
			<point x="139" y="691" type="line" smooth="yes"/>
			<point x="103" y="691"/>
			<point x="91" y="680"/>
			<point x="91" y="643" type="curve" smooth="yes"/>
			<point x="91" y="48" type="line" smooth="yes"/>
			<point x="91" y="12"/>
			<point x="102" y="0"/>
			<point x="139" y="0" type="curve" smooth="yes"/>
			<point x="190" y="0" type="line" smooth="yes"/>
			<point x="228" y="0"/>
			<point x="238" y="13"/>
			<point x="238" y="48" type="curve" smooth="yes"/>
		</contour>
	</outline>
</glyph>
<glyph name="G" format="2">
	<unicode hex="0047"/>
	<advance width="733"/>
	<outline>
		<contour>
			<point x="62" y="348" type="curve" smooth="yes"/>
			<point x="62" y="101"/>
			<point x="193" y="-10"/>
			<point x="426" y="-10" type="curve" smooth="yes"/>
			<point x="532" y="-10"/>
			<point x="632" y="23"/>
			<point x="660" y="46" type="curve"/>
			<point x="660" y="311" type="line" smooth="yes"/>
			<point x="660" y="315"/>
			<point x="657" y="324"/>
			<point x="648" y="324" type="curve" smooth="yes"/>
			<point x="443" y="324" type="line" smooth="yes"/>
			<point x="435" y="324"/>
			<point x="428" y="322"/>
			<point x="428" y="310" type="curve" smooth="yes"/>
			<point x="428" y="239" type="line" smooth="yes"/>
			<point x="428" y="233"/>
			<point x="433" y="229"/>
			<point x="439" y="229" type="curve" smooth="yes"/>
			<point x="523" y="229" type="line"/>
			<point x="523" y="101" type="line"/>
			<point x="514" y="95"/>
			<point x="447" y="89"/>
			<point x="432" y="89" type="curve" smooth="yes"/>
			<point x="264" y="89"/>
			<point x="209" y="194"/>
			<point x="209" y="348" type="curve" smooth="yes"/>
			<point x="209" y="497"/>
			<point x="263" y="605"/>
			<point x="426" y="605" type="curve" smooth="yes"/>
			<point x="511" y="605"/>
			<point x="552" y="584"/>
			<point x="611" y="529" type="curve" smooth="yes"/>
			<point x="614" y="526"/>
			<point x="617" y="525"/>
			<point x="620" y="525" type="curve" smooth="yes"/>
			<point x="625" y="525"/>
			<point x="630" y="529"/>
			<point x="632" y="538" type="curve" smooth="yes"/>
			<point x="650" y="640" type="line" smooth="yes"/>
			<point x="651" y="645"/>
			<point x="652" y="651"/>
			<point x="643" y="656" type="curve" smooth="yes"/>
			<point x="613" y="672"/>
			<point x="539" y="705"/>
			<point x="432" y="705" type="curve" smooth="yes"/>
			<point x="167" y="705"/>
			<point x="62" y="570"/>
		</contour>
	</outline>
</glyph>
<glyph name="H" format="2">
	<unicode hex="0048"/>
	<advance width="1588"/>
	<outline>
		<contour>
			<point x="476" y="628" type="line"/>
			<point x="1110" y="628" type="line"/>
			<point x="1110" y="96" type="line" smooth="yes"/>
			<point x="1110" y="32"/>
			<point x="1124" y="0"/>
			<point x="1206" y="0" type="curve" smooth="yes"/>
			<point x="1308" y="0" type="line" smooth="yes"/>
			<point x="1384" y="0"/>
			<point x="1404" y="26"/>
			<point x="1404" y="96" type="curve" smooth="yes"/>
			<point x="1404" y="1292" type="line" smooth="yes"/>
			<point x="1404" y="1356"/>
			<point x="1390" y="1388"/>
			<point x="1308" y="1388" type="curve" smooth="yes"/>
			<point x="1206" y="1388" type="line" smooth="yes"/>
			<point x="1130" y="1388"/>
			<point x="1110" y="1362"/>
			<point x="1110" y="1292" type="curve" smooth="yes"/>
			<point x="1110" y="816" type="line"/>
			<point x="476" y="816" type="line"/>
			<point x="476" y="1292" type="line" smooth="yes"/>
			<point x="476" y="1356"/>
			<point x="462" y="1388"/>
			<point x="380" y="1388" type="curve" smooth="yes"/>
			<point x="278" y="1388" type="line" smooth="yes"/>
			<point x="206" y="1388"/>
			<point x="182" y="1366"/>
			<point x="182" y="1292" type="curve" smooth="yes"/>
			<point x="182" y="96" type="line" smooth="yes"/>
			<point x="182" y="24"/>
			<point x="204" y="0"/>
			<point x="278" y="0" type="curve" smooth="yes"/>
			<point x="380" y="0" type="line" smooth="yes"/>
			<point x="456" y="0"/>
			<point x="476" y="26"/>
			<point x="476" y="96" type="curve" smooth="yes"/>
		</contour>
	</outline>
</glyph>
<glyph name="I" format="2">
	<unicode hex="0049"/>
	<advance width="660"/>
	<outline>
		<contour>
			<point x="280" y="1388" type="line" smooth="yes"/>
			<point x="208" y="1388"/>
			<point x="184" y="1366"/>
			<point x="184" y="1292" type="curve" smooth="yes"/>
			<point x="184" y="96" type="line" smooth="yes"/>
			<point x="184" y="24"/>
			<point x="206" y="0"/>
			<point x="280" y="0" type="curve" smooth="yes"/>
			<point x="382" y="0" type="line" smooth="yes"/>
			<point x="458" y="0"/>
			<point x="478" y="26"/>
			<point x="478" y="96" type="curve" smooth="yes"/>
			<point x="478" y="1292" type="line" smooth="yes"/>
			<point x="478" y="1356"/>
			<point x="464" y="1388"/>
			<point x="382" y="1388" type="curve" smooth="yes"/>
		</contour>
	</outline>
</glyph>
<glyph name="J" format="2">
	<unicode hex="004A"/>
	<advance width="1038"/>
	<outline>
		<contour>
			<point x="470" y="-44" type="curve" smooth="yes"/>
			<point x="684" y="-44"/>
			<point x="854" y="64"/>
			<point x="854" y="298" type="curve" smooth="yes"/>
			<point x="854" y="1292" type="line" smooth="yes"/>
			<point x="854" y="1356"/>
			<point x="840" y="1388"/>
			<point x="758" y="1388" type="curve" smooth="yes"/>
			<point x="662" y="1388" type="line" smooth="yes"/>
			<point x="586" y="1388"/>
			<point x="566" y="1362"/>
			<point x="566" y="1292" type="curve" smooth="yes"/>
			<point x="566" y="310" type="line" smooth="yes"/>
			<point x="566" y="268"/>
			<point x="566" y="156"/>
			<point x="390" y="156" type="curve" smooth="yes"/>
			<point x="274" y="156"/>
			<point x="210" y="220"/>
			<point x="182" y="256" type="curve" smooth="yes"/>
			<point x="166" y="276"/>
			<point x="162" y="280"/>
			<point x="150" y="280" type="curve" smooth="yes"/>
			<point x="130" y="280"/>
			<point x="126" y="262"/>
			<point x="122" y="242" type="curve" smooth="yes"/>
			<point x="112" y="180"/>
			<point x="92" y="74"/>
			<point x="92" y="66" type="curve" smooth="yes"/>
			<point x="92" y="48"/>
			<point x="104" y="42"/>
			<point x="142" y="26" type="curve" smooth="yes"/>
			<point x="260" y="-26"/>
			<point x="380" y="-44"/>
		</contour>
	</outline>
</glyph>
<glyph name="K" format="2">
	<unicode hex="004B"/>
	<advance width="763"/>
	<outline>
		<contour>
			<point x="421" y="405" type="line"/>
			<point x="684" y="652" type="line" smooth="yes"/>
			<point x="696" y="663"/>
			<point x="696" y="669"/>
			<point x="696" y="673" type="curve" smooth="yes"/>
			<point x="696" y="694"/>
			<point x="676" y="694"/>
			<point x="662" y="694" type="curve" smooth="yes"/>
			<point x="601" y="694" type="line" smooth="yes"/>
			<point x="584" y="694"/>
			<point x="564" y="694"/>
			<point x="543" y="674" type="curve" smooth="yes"/>
			<point x="221" y="370" type="line"/>
			<point x="221" y="646" type="line" smooth="yes"/>
			<point x="221" y="678"/>
			<point x="214" y="694"/>
			<point x="173" y="694" type="curve" smooth="yes"/>
			<point x="139" y="694" type="line" smooth="yes"/>
			<point x="103" y="694"/>
			<point x="91" y="683"/>
			<point x="91" y="646" type="curve" smooth="yes"/>
			<point x="91" y="48" type="line" smooth="yes"/>
			<point x="91" y="12"/>
			<point x="102" y="0"/>
			<point x="139" y="0" type="curve" smooth="yes"/>
			<point x="173" y="0" type="line" smooth="yes"/>
			<point x="211" y="0"/>
			<point x="221" y="13"/>
			<point x="221" y="48" type="curve" smooth="yes"/>
			<point x="221" y="216" type="line"/>
			<point x="332" y="321" type="line"/>
			<point x="556" y="21" type="line" smooth="yes"/>
			<point x="572" y="0"/>
			<point x="587" y="0"/>
			<point x="606" y="0" type="curve" smooth="yes"/>
			<point x="666" y="0" type="line" smooth="yes"/>
			<point x="687" y="0"/>
			<point x="701" y="0"/>
			<point x="701" y="29" type="curve"/>
		</contour>
	</outline>
</glyph>
<glyph name="L" format="2">
	<unicode hex="004C"/>
	<advance width="580"/>
	<outline>
		<contour>
			<point x="238" y="101" type="line"/>
			<point x="238" y="646" type="line" smooth="yes"/>
			<point x="238" y="678"/>
			<point x="231" y="694"/>
			<point x="190" y="694" type="curve" smooth="yes"/>
			<point x="139" y="694" type="line" smooth="yes"/>
			<point x="103" y="694"/>
			<point x="91" y="683"/>
			<point x="91" y="646" type="curve" smooth="yes"/>
			<point x="91" y="48" type="line" smooth="yes"/>
			<point x="91" y="12"/>
			<point x="102" y="0"/>
			<point x="139" y="0" type="curve" smooth="yes"/>
			<point x="486" y="0" type="line" smooth="yes"/>
			<point x="524" y="0"/>
			<point x="534" y="13"/>
			<point x="534" y="48" type="curve" smooth="yes"/>
			<point x="534" y="57" type="line" smooth="yes"/>
			<point x="534" y="80"/>
			<point x="533" y="105"/>
			<point x="487" y="105" type="curve"/>
		</contour>
	</outline>
</glyph>
<glyph name="M" format="2">
	<unicode hex="004D"/>
	<advance width="1954"/>
	<outline>
		<contour>
			<point x="590" y="700" type="curve" smooth="yes"/>
			<point x="822" y="130" type="line" smooth="yes"/>
			<point x="858" y="44"/>
			<point x="906" y="44"/>
			<point x="974" y="44" type="curve"/>
			<point x="974" y="44" type="line"/>
			<point x="1042" y="44"/>
			<point x="1090" y="44"/>
			<point x="1126" y="130" type="curve" smooth="yes"/>
			<point x="1382" y="758" type="line" smooth="yes"/>
			<point x="1402" y="806"/>
			<point x="1510" y="1078"/>
			<point x="1524" y="1130" type="curve"/>
			<point x="1526" y="1130" type="line"/>
			<point x="1526" y="96" type="line" smooth="yes"/>
			<point x="1526" y="32"/>
			<point x="1540" y="0"/>
			<point x="1622" y="0" type="curve" smooth="yes"/>
			<point x="1676" y="0" type="line" smooth="yes"/>
			<point x="1752" y="0"/>
			<point x="1772" y="26"/>
			<point x="1772" y="96" type="curve" smooth="yes"/>
			<point x="1772" y="1292" type="line" smooth="yes"/>
			<point x="1772" y="1356"/>
			<point x="1758" y="1388"/>
			<point x="1676" y="1388" type="curve" smooth="yes"/>
			<point x="1508" y="1388" type="line" smooth="yes"/>
			<point x="1458" y="1388"/>
			<point x="1408" y="1384"/>
			<point x="1374" y="1302" type="curve" smooth="yes"/>
			<point x="1110" y="654" type="line" smooth="yes"/>
			<point x="1068" y="552"/>
			<point x="994" y="368"/>
			<point x="978" y="298" type="curve"/>
			<point x="976" y="298" type="line"/>
			<point x="958" y="370"/>
			<point x="876" y="568"/>
			<point x="834" y="674" type="curve" smooth="yes"/>
			<point x="578" y="1306" type="line" smooth="yes"/>
			<point x="544" y="1388"/>
			<point x="480" y="1388"/>
			<point x="444" y="1388" type="curve" smooth="yes"/>
			<point x="278" y="1388" type="line" smooth="yes"/>
			<point x="206" y="1388"/>
			<point x="182" y="1366"/>
			<point x="182" y="1292" type="curve" smooth="yes"/>
			<point x="182" y="96" type="line" smooth="yes"/>
			<point x="182" y="24"/>
			<point x="204" y="0"/>
			<point x="278" y="0" type="curve" smooth="yes"/>
			<point x="332" y="0" type="line" smooth="yes"/>
			<point x="408" y="0"/>
			<point x="428" y="26"/>
			<point x="428" y="96" type="curve" smooth="yes"/>
			<point x="428" y="1130" type="line"/>
			<point x="430" y="1130" type="line"/>
			<point x="452" y="1040"/>
			<point x="542" y="818"/>
		</contour>
	</outline>
</glyph>
<glyph name="N" format="2">
	<unicode hex="004E"/>
	<advance width="1588"/>
	<outline>
		<contour>
			<point x="580" y="856" type="curve"/>
			<point x="980" y="80" type="line" smooth="yes"/>
			<point x="1022" y="0"/>
			<point x="1082" y="0"/>
			<point x="1122" y="0" type="curve" smooth="yes"/>
			<point x="1308" y="0" type="line" smooth="yes"/>
			<point x="1384" y="0"/>
			<point x="1404" y="26"/>
			<point x="1404" y="96" type="curve" smooth="yes"/>
			<point x="1404" y="1292" type="line" smooth="yes"/>
			<point x="1404" y="1356"/>
			<point x="1390" y="1388"/>
			<point x="1308" y="1388" type="curve" smooth="yes"/>
			<point x="1254" y="1388" type="line" smooth="yes"/>
			<point x="1178" y="1388"/>
			<point x="1158" y="1362"/>
			<point x="1158" y="1292" type="curve" smooth="yes"/>
			<point x="1158" y="242" type="line"/>
			<point x="1156" y="242" type="line"/>
			<point x="1115" y="321"/>
			<point x="1075" y="401"/>
			<point x="1034" y="480" type="curve"/>
			<point x="606" y="1308" type="line" smooth="yes"/>
			<point x="564" y="1388"/>
			<point x="504" y="1388"/>
			<point x="464" y="1388" type="curve" smooth="yes"/>
			<point x="278" y="1388" type="line" smooth="yes"/>
			<point x="206" y="1388"/>
			<point x="182" y="1366"/>
			<point x="182" y="1292" type="curve" smooth="yes"/>
			<point x="182" y="96" type="line" smooth="yes"/>
			<point x="182" y="24"/>
			<point x="204" y="0"/>
			<point x="278" y="0" type="curve" smooth="yes"/>
			<point x="332" y="0" type="line" smooth="yes"/>
			<point x="408" y="0"/>
			<point x="428" y="26"/>
			<point x="428" y="96" type="curve" smooth="yes"/>
			<point x="428" y="1146" type="line"/>
			<point x="430" y="1146" type="line"/>
			<point x="480" y="1049"/>
			<point x="530" y="953"/>
		</contour>
	</outline>
</glyph>
<glyph name="O" format="2">
	<unicode hex="004F"/>
	<advance width="1588"/>
	<outline>
		<contour>
			<point x="1464" y="684" type="curve" smooth="yes"/>
			<point x="1464" y="1086"/>
			<point x="1318" y="1432"/>
			<point x="794" y="1432" type="curve" smooth="yes"/>
			<point x="240" y="1432"/>
			<point x="122" y="1050"/>
			<point x="122" y="684" type="curve" smooth="yes"/>
			<point x="122" y="310"/>
			<point x="252" y="-44"/>
			<point x="792" y="-44" type="curve" smooth="yes"/>
			<point x="1308" y="-44"/>
			<point x="1464" y="274"/>
		</contour>
		<contour>
			<point x="794" y="116" type="curve" smooth="yes"/>
			<point x="416" y="116"/>
			<point x="416" y="534"/>
			<point x="416" y="716" type="curve" smooth="yes"/>
			<point x="416" y="892"/>
			<point x="416" y="1276"/>
			<point x="792" y="1276" type="curve" smooth="yes"/>
			<point x="1170" y="1276"/>
			<point x="1170" y="896"/>
			<point x="1170" y="716" type="curve" smooth="yes"/>
			<point x="1170" y="538"/>
			<point x="1170" y="116"/>
		</contour>
	</outline>
</glyph>
<glyph name="P" format="2">
	<unicode hex="0050"/>
	<advance width="702"/>
	<outline>
		<contour>
			<point x="238" y="268" type="line"/>
			<point x="390" y="268" type="line" smooth="yes"/>
			<point x="547" y="268"/>
			<point x="641" y="334"/>
			<point x="641" y="478" type="curve" smooth="yes"/>
			<point x="641" y="629"/>
			<point x="543" y="694"/>
			<point x="389" y="694" type="curve" smooth="yes"/>
			<point x="139" y="694" type="line" smooth="yes"/>
			<point x="103" y="694"/>
			<point x="91" y="683"/>
			<point x="91" y="646" type="curve" smooth="yes"/>
			<point x="91" y="48" type="line" smooth="yes"/>
			<point x="91" y="12"/>
			<point x="102" y="0"/>
			<point x="139" y="0" type="curve" smooth="yes"/>
			<point x="190" y="0" type="line" smooth="yes"/>
			<point x="228" y="0"/>
			<point x="238" y="13"/>
			<point x="238" y="48" type="curve" smooth="yes"/>
		</contour>
		<contour>
			<point x="358" y="608" type="line" smooth="yes"/>
			<point x="489" y="608"/>
			<point x="502" y="548"/>
			<point x="502" y="478" type="curve" smooth="yes"/>
			<point x="502" y="411"/>
			<point x="491" y="347"/>
			<point x="357" y="347" type="curve" smooth="yes"/>
			<point x="235" y="347" type="line"/>
			<point x="235" y="608" type="line"/>
		</contour>
	</outline>
</glyph>
<glyph name="Q" format="2">
	<unicode hex="0051"/>
	<advance width="1588"/>
	<outline>
		<contour>
			<point x="122" y="684" type="curve" smooth="yes"/>
			<point x="122" y="310"/>
			<point x="252" y="-44"/>
			<point x="792" y="-44" type="curve" smooth="yes"/>
			<point x="826" y="-44"/>
			<point x="872" y="-44"/>
			<point x="936" y="-34" type="curve"/>
			<point x="960" y="-70"/>
			<point x="984" y="-106"/>
			<point x="1010" y="-142" type="curve" smooth="yes"/>
			<point x="1052" y="-206"/>
			<point x="1058" y="-212"/>
			<point x="1124" y="-212" type="curve" smooth="yes"/>
			<point x="1284" y="-212" type="line" smooth="yes"/>
			<point x="1310" y="-212"/>
			<point x="1356" y="-212"/>
			<point x="1356" y="-168" type="curve" smooth="yes"/>
			<point x="1356" y="-152"/>
			<point x="1352" y="-148"/>
			<point x="1326" y="-112" type="curve" smooth="yes"/>
			<point x="1196" y="56" type="line"/>
			<point x="1450" y="210"/>
			<point x="1464" y="540"/>
			<point x="1464" y="684" type="curve" smooth="yes"/>
			<point x="1464" y="1086"/>
			<point x="1318" y="1432"/>
			<point x="794" y="1432" type="curve" smooth="yes"/>
			<point x="240" y="1432"/>
			<point x="122" y="1050"/>
		</contour>
		<contour>
			<point x="410" y="686" type="curve" smooth="yes"/>
			<point x="410" y="862"/>
			<point x="410" y="1276"/>
			<point x="792" y="1276" type="curve" smooth="yes"/>
			<point x="1176" y="1276"/>
			<point x="1176" y="864"/>
			<point x="1176" y="686" type="curve" smooth="yes"/>
			<point x="1176" y="560"/>
			<point x="1176" y="352"/>
			<point x="1064" y="224" type="curve"/>
			<point x="954" y="366" type="line" smooth="yes"/>
			<point x="936" y="390"/>
			<point x="926" y="388"/>
			<point x="886" y="388" type="curve" smooth="yes"/>
			<point x="764" y="388" type="line" smooth="yes"/>
			<point x="736" y="388"/>
			<point x="692" y="388"/>
			<point x="692" y="342" type="curve" smooth="yes"/>
			<point x="692" y="320"/>
			<point x="758" y="232"/>
			<point x="792" y="180" type="curve" smooth="yes"/>
			<point x="798" y="170"/>
			<point x="832" y="122"/>
			<point x="832" y="116" type="curve" smooth="yes"/>
			<point x="832" y="112"/>
			<point x="800" y="112"/>
			<point x="792" y="112" type="curve" smooth="yes"/>
			<point x="410" y="112"/>
			<point x="410" y="508"/>
		</contour>
	</outline>
</glyph>
<glyph name="R" format="2">
	<unicode hex="0052"/>
	<advance width="1404"/>
	<outline>
		<contour>
			<point x="966" y="640" type="line"/>
			<point x="1092" y="670"/>
			<point x="1282" y="746"/>
			<point x="1282" y="994" type="curve" smooth="yes"/>
			<point x="1282" y="1388"/>
			<point x="848" y="1388"/>
			<point x="758" y="1388" type="curve" smooth="yes"/>
			<point x="278" y="1388" type="line" smooth="yes"/>
			<point x="206" y="1388"/>
			<point x="182" y="1366"/>
			<point x="182" y="1292" type="curve" smooth="yes"/>
			<point x="182" y="96" type="line" smooth="yes"/>
			<point x="182" y="24"/>
			<point x="204" y="0"/>
			<point x="278" y="0" type="curve" smooth="yes"/>
			<point x="374" y="0" type="line" smooth="yes"/>
			<point x="450" y="0"/>
			<point x="470" y="26"/>
			<point x="470" y="96" type="curve" smooth="yes"/>
			<point x="470" y="622" type="line"/>
			<point x="692" y="622" type="line"/>
			<point x="1020" y="48" type="line" smooth="yes"/>
			<point x="1048" y="0"/>
			<point x="1070" y="0"/>
			<point x="1114" y="0" type="curve" smooth="yes"/>
			<point x="1232" y="0" type="line" smooth="yes"/>
			<point x="1272" y="0"/>
			<point x="1306" y="0"/>
			<point x="1306" y="60" type="curve"/>
		</contour>
		<contour>
			<point x="470" y="766" type="line"/>
			<point x="470" y="1216" type="line"/>
			<point x="730" y="1216" type="line" smooth="yes"/>
			<point x="962" y="1216"/>
			<point x="1004" y="1124"/>
			<point x="1004" y="992" type="curve" smooth="yes"/>
			<point x="1004" y="874"/>
			<point x="976" y="766"/>
			<point x="730" y="766" type="curve" smooth="yes"/>
		</contour>
	</outline>
</glyph>
<glyph name="S" format="2">
	<unicode hex="0053"/>
	<advance width="1222"/>
	<outline>
		<contour>
			<point x="848" y="368" type="curve" smooth="yes"/>
			<point x="848" y="180"/>
			<point x="676" y="174"/>
			<point x="610" y="174" type="curve" smooth="yes"/>
			<point x="442" y="174"/>
			<point x="296" y="242"/>
			<point x="196" y="332" type="curve" smooth="yes"/>
			<point x="172" y="354"/>
			<point x="168" y="356"/>
			<point x="160" y="356" type="curve" smooth="yes"/>
			<point x="148" y="356"/>
			<point x="138" y="350"/>
			<point x="132" y="320" type="curve" smooth="yes"/>
			<point x="100" y="136" type="line" smooth="yes"/>
			<point x="98" y="122"/>
			<point x="96" y="108"/>
			<point x="108" y="100" type="curve" smooth="yes"/>
			<point x="310" y="-28"/>
			<point x="510" y="-44"/>
			<point x="610" y="-44" type="curve" smooth="yes"/>
			<point x="910" y="-44"/>
			<point x="1098" y="90"/>
			<point x="1098" y="400" type="curve" smooth="yes"/>
			<point x="1098" y="524"/>
			<point x="1047" y="630"/>
			<point x="968" y="709" type="curve" smooth="yes"/>
			<point x="904" y="772"/>
			<point x="822" y="817"/>
			<point x="732" y="838" type="curve" smooth="yes"/>
			<point x="668" y="853"/>
			<point x="604" y="867"/>
			<point x="540" y="882" type="curve" smooth="yes"/>
			<point x="496" y="892"/>
			<point x="372" y="938"/>
			<point x="372" y="1052" type="curve" smooth="yes"/>
			<point x="372" y="1222"/>
			<point x="542" y="1226"/>
			<point x="610" y="1226" type="curve" smooth="yes"/>
			<point x="722" y="1226"/>
			<point x="822" y="1200"/>
			<point x="920" y="1104" type="curve" smooth="yes"/>
			<point x="952" y="1074"/>
			<point x="954" y="1072"/>
			<point x="962" y="1072" type="curve" smooth="yes"/>
			<point x="974" y="1072"/>
			<point x="984" y="1078"/>
			<point x="990" y="1108" type="curve" smooth="yes"/>
			<point x="1022" y="1292" type="line" smooth="yes"/>
			<point x="1026" y="1316"/>
			<point x="1024" y="1324"/>
			<point x="1006" y="1334" type="curve" smooth="yes"/>
			<point x="846" y="1422"/>
			<point x="712" y="1432"/>
			<point x="610" y="1432" type="curve" smooth="yes"/>
			<point x="432" y="1432"/>
			<point x="122" y="1390"/>
			<point x="122" y="1016" type="curve" smooth="yes"/>
			<point x="122" y="874"/>
			<point x="196" y="782"/>
			<point x="234" y="742" type="curve" smooth="yes"/>
			<point x="336" y="638"/>
			<point x="430" y="618"/>
			<point x="586" y="582" type="curve" smooth="yes"/>
			<point x="698" y="556"/>
			<point x="742" y="546"/>
			<point x="786" y="506" type="curve" smooth="yes"/>
			<point x="806" y="486"/>
			<point x="848" y="444"/>
		</contour>
	</outline>
</glyph>
<glyph name="T" format="2">
	<unicode hex="0054"/>
	<advance width="733"/>
	<outline>
		<contour>
			<point x="293" y="587" type="line"/>
			<point x="293" y="48" type="line" smooth="yes"/>
			<point x="293" y="12"/>
			<point x="304" y="0"/>
			<point x="341" y="0" type="curve" smooth="yes"/>
			<point x="392" y="0" type="line" smooth="yes"/>
			<point x="430" y="0"/>
			<point x="440" y="13"/>
			<point x="440" y="48" type="curve" smooth="yes"/>
			<point x="440" y="587" type="line"/>
			<point x="484" y="587"/>
			<point x="596" y="584"/>
			<point x="640" y="584" type="curve" smooth="yes"/>
			<point x="668" y="584"/>
			<point x="692" y="584"/>
			<point x="692" y="632" type="curve" smooth="yes"/>
			<point x="692" y="640" type="line" smooth="yes"/>
			<point x="692" y="672"/>
			<point x="685" y="688"/>
			<point x="644" y="688" type="curve" smooth="yes"/>
			<point x="88" y="688" type="line" smooth="yes"/>
			<point x="52" y="688"/>
			<point x="40" y="677"/>
			<point x="40" y="640" type="curve" smooth="yes"/>
			<point x="40" y="632" type="line" smooth="yes"/>
			<point x="40" y="584"/>
			<point x="64" y="584"/>
			<point x="92" y="584" type="curve" smooth="yes"/>
		</contour>
	</outline>
</glyph>
<glyph name="U" format="2">
	<unicode hex="0055"/>
	<advance width="1526"/>
	<outline>
		<contour>
			<point x="768" y="-44" type="curve" smooth="yes"/>
			<point x="996" y="-44"/>
			<point x="1344" y="24"/>
			<point x="1344" y="458" type="curve" smooth="yes"/>
			<point x="1344" y="1292" type="line" smooth="yes"/>
			<point x="1344" y="1356"/>
			<point x="1330" y="1388"/>
			<point x="1248" y="1388" type="curve" smooth="yes"/>
			<point x="1168" y="1388" type="line" smooth="yes"/>
			<point x="1092" y="1388"/>
			<point x="1072" y="1362"/>
			<point x="1072" y="1292" type="curve" smooth="yes"/>
			<point x="1072" y="454" type="line" smooth="yes"/>
			<point x="1072" y="258"/>
			<point x="1014" y="128"/>
			<point x="770" y="128" type="curve" smooth="yes"/>
			<point x="538" y="128"/>
			<point x="476" y="246"/>
			<point x="476" y="452" type="curve" smooth="yes"/>
			<point x="476" y="1292" type="line" smooth="yes"/>
			<point x="476" y="1356"/>
			<point x="462" y="1388"/>
			<point x="380" y="1388" type="curve" smooth="yes"/>
			<point x="278" y="1388" type="line" smooth="yes"/>
			<point x="206" y="1388"/>
			<point x="182" y="1366"/>
			<point x="182" y="1292" type="curve" smooth="yes"/>
			<point x="182" y="460" type="line" smooth="yes"/>
			<point x="182" y="38"/>
			<point x="514" y="-44"/>
		</contour>
	</outline>
</glyph>
<glyph name="V" format="2">
	<unicode hex="0056"/>
	<advance width="733"/>
	<outline>
		<contour>
			<point x="347" y="204" type="curve" smooth="yes"/>
			<point x="185" y="651" type="line" smooth="yes"/>
			<point x="169" y="694"/>
			<point x="141" y="694"/>
			<point x="120" y="694" type="curve" smooth="yes"/>
			<point x="66" y="694" type="line" smooth="yes"/>
			<point x="52" y="694"/>
			<point x="27" y="694"/>
			<point x="27" y="667" type="curve" smooth="yes"/>
			<point x="27" y="662"/>
			<point x="28" y="661"/>
			<point x="32" y="649" type="curve" smooth="yes"/>
			<point x="256" y="42" type="line" smooth="yes"/>
			<point x="271" y="0"/>
			<point x="300" y="0"/>
			<point x="320" y="0" type="curve" smooth="yes"/>
			<point x="412" y="0" type="line" smooth="yes"/>
			<point x="433" y="0"/>
			<point x="461" y="0"/>
			<point x="477" y="44" type="curve" smooth="yes"/>
			<point x="700" y="649" type="line" smooth="yes"/>
			<point x="704" y="661"/>
			<point x="705" y="662"/>
			<point x="705" y="667" type="curve" smooth="yes"/>
			<point x="705" y="694"/>
			<point x="680" y="694"/>
			<point x="666" y="694" type="curve" smooth="yes"/>
			<point x="627" y="694" type="line" smooth="yes"/>
			<point x="606" y="694"/>
			<point x="577" y="694"/>
			<point x="561" y="650" type="curve" smooth="yes"/>
			<point x="516" y="526"/>
			<point x="434" y="303"/>
			<point x="426" y="279" type="curve" smooth="yes"/>
			<point x="408.684" y="227.718"/>
			<point x="391.368" y="176.436"/>
			<point x="374" y="125" type="curve"/>
			<point x="374" y="125" type="line"/>
			<point x="373" y="128"/>
			<point x="362" y="163"/>
		</contour>
	</outline>
</glyph>
<glyph name="X" format="2">
  <advance width="733"/>
  <unicode hex="0058"/>
  <outline>
    <contour>
      <point x="433" y="368" type="line"/>
      <point x="639" y="651" type="line" smooth="yes"/>
      <point x="648" y="663"/>
      <point x="649" y="664"/>
      <point x="649" y="671" type="curve" smooth="yes"/>
      <point x="649" y="694"/>
      <point x="627" y="694"/>
      <point x="613" y="694" type="curve" smooth="yes"/>
      <point x="538" y="694" type="line" smooth="yes"/>
      <point x="521" y="694"/>
      <point x="504" y="694"/>
      <point x="489" y="673" type="curve" smooth="yes"/>
      <point x="358" y="486" type="line"/>
      <point x="223" y="671" type="line" smooth="yes"/>
      <point x="206" y="694"/>
      <point x="193" y="694"/>
      <point x="172" y="694" type="curve" smooth="yes"/>
      <point x="89" y="694" type="line" smooth="yes"/>
      <point x="75" y="694"/>
      <point x="54" y="694"/>
      <point x="54" y="672" type="curve" smooth="yes"/>
      <point x="54" y="666"/>
      <point x="54" y="664"/>
      <point x="64" y="652" type="curve" smooth="yes"/>
      <point x="283" y="368" type="line"/>
      <point x="47" y="43" type="line" smooth="yes"/>
      <point x="38" y="31"/>
      <point x="37" y="30"/>
      <point x="37" y="23" type="curve" smooth="yes"/>
      <point x="37" y="0"/>
      <point x="59" y="0"/>
      <point x="73" y="0" type="curve" smooth="yes"/>
      <point x="148" y="0" type="line" smooth="yes"/>
      <point x="181" y="0"/>
      <point x="185" y="6"/>
      <point x="197" y="24" type="curve" smooth="yes"/>
      <point x="358" y="262" type="line"/>
      <point x="525" y="22" type="line" smooth="yes"/>
      <point x="540" y="0"/>
      <point x="556" y="0"/>
      <point x="575" y="0" type="curve" smooth="yes"/>
      <point x="658" y="0" type="line" smooth="yes"/>
      <point x="671" y="0"/>
      <point x="694" y="0"/>
      <point x="694" y="22" type="curve" smooth="yes"/>
      <point x="694" y="29"/>
      <point x="689" y="37"/>
      <point x="685" y="42" type="curve" smooth="yes"/>
    </contour>
  </outline>
</glyph>
<glyph name="Y" format="2">
	<unicode hex="0059"/>
	<advance width="1466"/>
	<outline>
		<contour>
			<point x="588" y="556" type="line"/>
			<point x="588" y="96" type="line" smooth="yes"/>
			<point x="588" y="24"/>
			<point x="610" y="0"/>
			<point x="684" y="0" type="curve" smooth="yes"/>
			<point x="780" y="0" type="line" smooth="yes"/>
			<point x="850" y="0"/>
			<point x="876" y="20"/>
			<point x="876" y="94" type="curve" smooth="yes"/>
			<point x="876" y="554" type="line"/>
			<point x="1398" y="1300" type="line" smooth="yes"/>
			<point x="1406" y="1310"/>
			<point x="1416" y="1328"/>
			<point x="1416" y="1342" type="curve" smooth="yes"/>
			<point x="1416" y="1388"/>
			<point x="1372" y="1388"/>
			<point x="1344" y="1388" type="curve" smooth="yes"/>
			<point x="1246" y="1388" type="line" smooth="yes"/>
			<point x="1204" y="1388"/>
			<point x="1142" y="1388"/>
			<point x="1088" y="1312" type="curve" smooth="yes"/>
			<point x="892" y="1032" type="line" smooth="yes"/>
			<point x="822" y="932"/>
			<point x="784" y="878"/>
			<point x="750" y="806" type="curve"/>
			<point x="720" y="868"/>
			<point x="680" y="926"/>
			<point x="640" y="982" type="curve" smooth="yes"/>
			<point x="414" y="1306" type="line" smooth="yes"/>
			<point x="368" y="1372"/>
			<point x="324" y="1388"/>
			<point x="252" y="1388" type="curve" smooth="yes"/>
			<point x="120" y="1388" type="line" smooth="yes"/>
			<point x="92" y="1388"/>
			<point x="48" y="1388"/>
			<point x="48" y="1342" type="curve" smooth="yes"/>
			<point x="48" y="1328"/>
			<point x="54" y="1318"/>
			<point x="66" y="1302" type="curve" smooth="yes"/>
		</contour>
	</outline>
</glyph>
<glyph name="Z" format="2">
	<unicode hex="005A"/>
	<advance width="1344"/>
	<outline>
		<contour>
			<point x="866" y="1198" type="curve"/>
			<point x="142" y="182" type="line" smooth="yes"/>
			<point x="122" y="156"/>
			<point x="122" y="152"/>
			<point x="122" y="112" type="curve" smooth="yes"/>
			<point x="122" y="96" type="line" smooth="yes"/>
			<point x="122" y="24"/>
			<point x="144" y="0"/>
			<point x="218" y="0" type="curve" smooth="yes"/>
			<point x="1136" y="0" type="line" smooth="yes"/>
			<point x="1212" y="0"/>
			<point x="1232" y="26"/>
			<point x="1232" y="96" type="curve" smooth="yes"/>
			<point x="1232" y="114" type="line" smooth="yes"/>
			<point x="1232" y="210"/>
			<point x="1186" y="210"/>
			<point x="1118" y="210" type="curve" smooth="yes"/>
			<point x="842" y="208" type="line" smooth="yes"/>
			<point x="716" y="208"/>
			<point x="582" y="204"/>
			<point x="480" y="202" type="curve"/>
			<point x="1200" y="1214" type="line" smooth="yes"/>
			<point x="1220" y="1240"/>
			<point x="1220" y="1244"/>
			<point x="1220" y="1288" type="curve"/>
			<point x="1220" y="1288" type="line"/>
			<point x="1220" y="1342"/>
			<point x="1218" y="1388"/>
			<point x="1124" y="1388" type="curve" smooth="yes"/>
			<point x="248" y="1388" type="line" smooth="yes"/>
			<point x="164" y="1388"/>
			<point x="152" y="1354"/>
			<point x="152" y="1290" type="curve"/>
			<point x="152" y="1290" type="line"/>
			<point x="152" y="1192"/>
			<point x="194" y="1192"/>
			<point x="274" y="1192" type="curve" smooth="yes"/>
			<point x="448" y="1192"/>
			<point x="622" y="1198"/>
			<point x="796" y="1198" type="curve" smooth="yes"/>
			<point x="819" y="1198"/>
			<point x="843" y="1198"/>
		</contour>
	</outline>
</glyph>
<glyph name="bracketleft" format="2">
	<unicode hex="005B"/>
	<advance width="686"/>
	<outline>
		<contour>
			<point x="434" y="-356" type="line"/>
			<point x="434" y="1356" type="line"/>
			<point x="540" y="1356" type="line" smooth="yes"/>
			<point x="564" y="1356"/>
			<point x="636" y="1356"/>
			<point x="636" y="1428" type="curve"/>
			<point x="636" y="1428" type="line"/>
			<point x="636" y="1500"/>
			<point x="564" y="1500"/>
			<point x="540" y="1500" type="curve" smooth="yes"/>
			<point x="270" y="1500" type="line" smooth="yes"/>
			<point x="194" y="1500"/>
			<point x="174" y="1474"/>
			<point x="174" y="1404" type="curve" smooth="yes"/>
			<point x="174" y="-404" type="line" smooth="yes"/>
			<point x="174" y="-468"/>
			<point x="188" y="-500"/>
			<point x="270" y="-500" type="curve" smooth="yes"/>
			<point x="540" y="-500" type="line" smooth="yes"/>
			<point x="564" y="-500"/>
			<point x="636" y="-500"/>
			<point x="636" y="-428" type="curve"/>
			<point x="636" y="-428" type="line"/>
			<point x="636" y="-356"/>
			<point x="564" y="-356"/>
			<point x="540" y="-356" type="curve" smooth="yes"/>
		</contour>
	</outline>
</glyph>
<glyph name="bracketright" format="2">
	<unicode hex="005D"/>
	<advance width="686"/>
	<outline>
		<contour>
			<point x="250" y="1356" type="line"/>
			<point x="250" y="-356" type="line"/>
			<point x="144" y="-356" type="line" smooth="yes"/>
			<point x="120" y="-356"/>
			<point x="48" y="-356"/>
			<point x="48" y="-428" type="curve"/>
			<point x="48" y="-428" type="line"/>
			<point x="48" y="-500"/>
			<point x="120" y="-500"/>
			<point x="144" y="-500" type="curve" smooth="yes"/>
			<point x="414" y="-500" type="line" smooth="yes"/>
			<point x="490" y="-500"/>
			<point x="510" y="-474"/>
			<point x="510" y="-404" type="curve" smooth="yes"/>
			<point x="510" y="1404" type="line" smooth="yes"/>
			<point x="510" y="1468"/>
			<point x="496" y="1500"/>
			<point x="414" y="1500" type="curve" smooth="yes"/>
			<point x="144" y="1500" type="line" smooth="yes"/>
			<point x="120" y="1500"/>
			<point x="48" y="1500"/>
			<point x="48" y="1428" type="curve"/>
			<point x="48" y="1428" type="line"/>
			<point x="48" y="1356"/>
			<point x="120" y="1356"/>
			<point x="144" y="1356" type="curve" smooth="yes"/>
		</contour>
	</outline>
</glyph>
<glyph name="grave" format="2">
	<unicode hex="0060"/>
	<advance width="550"/>
	<outline>
		<contour>
			<point x="251" y="546" type="line"/>
			<point x="261" y="537"/>
			<point x="263" y="537"/>
			<point x="281" y="537" type="curve" smooth="yes"/>
			<point x="299" y="537" type="line" smooth="yes"/>
			<point x="315" y="537"/>
			<point x="326" y="537"/>
			<point x="326" y="550" type="curve" smooth="yes"/>
			<point x="326" y="551"/>
			<point x="326" y="555"/>
			<point x="319" y="564" type="curve" smooth="yes"/>
			<point x="231" y="682" type="line" smooth="yes"/>
			<point x="222" y="693"/>
			<point x="221" y="694"/>
			<point x="201" y="694" type="curve" smooth="yes"/>
			<point x="119" y="694" type="line" smooth="yes"/>
			<point x="103" y="694"/>
			<point x="92" y="694"/>
			<point x="92" y="681" type="curve" smooth="yes"/>
			<point x="92" y="675"/>
			<point x="99" y="669"/>
			<point x="103" y="666" type="curve" smooth="yes"/>
		</contour>
	</outline>
</glyph>
<glyph name="a" format="2">
  <advance width="525"/>
  <unicode hex="0061"/>
  <outline>
    <contour>
      <point x="464" y="316" type="line" smooth="yes"/>
      <point x="464" y="474"/>
      <point x="312" y="475"/>
      <point x="262" y="475" type="curve" smooth="yes"/>
      <point x="215" y="475"/>
      <point x="165" y="471"/>
      <point x="98" y="443" type="curve" smooth="yes"/>
      <point x="77" y="434"/>
      <point x="72" y="431"/>
      <point x="72" y="420" type="curve" smooth="yes"/>
      <point x="72" y="413"/>
      <point x="78" y="355"/>
      <point x="79" y="347" type="curve" smooth="yes"/>
      <point x="80" y="341"/>
      <point x="85" y="336"/>
      <point x="92" y="336" type="curve" smooth="yes"/>
      <point x="97" y="336"/>
      <point x="100" y="339"/>
      <point x="103" y="342" type="curve" smooth="yes"/>
      <point x="146" y="387"/>
      <point x="196" y="409"/>
      <point x="258" y="409" type="curve" smooth="yes"/>
      <point x="312" y="409"/>
      <point x="328" y="376"/>
      <point x="328" y="317" type="curve" smooth="yes"/>
      <point x="328" y="282" type="line"/>
      <point x="293" y="282"/>
      <point x="31" y="280"/>
      <point x="31" y="133" type="curve" smooth="yes"/>
      <point x="31" y="63"/>
      <point x="87" y="-11"/>
      <point x="175" y="-11" type="curve" smooth="yes"/>
      <point x="209" y="-11"/>
      <point x="284" y="-1"/>
      <point x="331" y="68" type="curve"/>
      <point x="331" y="48" type="line" smooth="yes"/>
      <point x="331" y="16"/>
      <point x="338" y="0"/>
      <point x="379" y="0" type="curve" smooth="yes"/>
      <point x="416" y="0" type="line" smooth="yes"/>
      <point x="454" y="0"/>
      <point x="464" y="13"/>
      <point x="464" y="48" type="curve" smooth="yes"/>
    </contour>
    <contour>
      <point x="328" y="154" type="line" smooth="yes"/>
      <point x="328.0" y="113.19346000000002"/>
      <point x="309.709850602" y="90.29201362120001"/>
      <point x="288.92682315109244" y="77.43926388448986" type="curve" smooth="yes"/>
      <point x="262.34436573280004" y="61.0"/>
      <point x="231.68366000000003" y="61.0"/>
      <point x="230" y="61" type="curve" smooth="yes"/>
      <point x="188" y="61"/>
      <point x="161" y="97"/>
      <point x="161" y="135" type="curve" smooth="yes"/>
      <point x="161" y="233"/>
      <point x="300" y="240"/>
      <point x="328" y="241" type="curve"/>
    </contour>
  </outline>
</glyph>
<glyph name="b" format="2">
  <advance width="561"/>
  <unicode hex="0062"/>
  <outline>
    <contour>
      <point x="523" y="231" type="curve" smooth="yes"/>
      <point x="523" y="279"/>
      <point x="523" y="469"/>
      <point x="335" y="469" type="curve" smooth="yes"/>
      <point x="253" y="469"/>
      <point x="203.0" y="423.0"/>
      <point x="194" y="413" type="curve"/>
      <point x="194" y="646" type="line" smooth="yes"/>
      <point x="194" y="678"/>
      <point x="187" y="694"/>
      <point x="146" y="694" type="curve" smooth="yes"/>
      <point x="109" y="694" type="line" smooth="yes"/>
      <point x="73" y="694"/>
      <point x="61" y="683"/>
      <point x="61" y="646" type="curve" smooth="yes"/>
      <point x="61" y="48" type="line" smooth="yes"/>
      <point x="61" y="12"/>
      <point x="72" y="0"/>
      <point x="109" y="0" type="curve" smooth="yes"/>
      <point x="149" y="0" type="line" smooth="yes"/>
      <point x="166" y="0"/>
      <point x="196" y="0"/>
      <point x="197" y="39" type="curve"/>
      <point x="197" y="39" type="line"/>
      <point x="243" y="-11"/>
      <point x="294" y="-11"/>
      <point x="310" y="-11" type="curve" smooth="yes"/>
      <point x="523" y="-11"/>
      <point x="523" y="181"/>
    </contour>
    <contour>
      <point x="197" y="362" type="line"/>
      <point x="204.88762" y="369.28088"/>
      <point x="219.0335082692" y="380.61122770360004"/>
      <point x="239.21430353173795" y="388.3967597314912" type="curve" smooth="yes"/>
      <point x="252.2945348416" y="393.4429711652"/>
      <point x="267.91004000000004" y="397.0"/>
      <point x="286" y="397" type="curve" smooth="yes"/>
      <point x="387" y="397"/>
      <point x="387" y="305"/>
      <point x="387" y="230" type="curve" smooth="yes"/>
      <point x="387" y="156"/>
      <point x="387" y="61"/>
      <point x="275" y="61" type="curve" smooth="yes"/>
      <point x="256.6922" y="61.0"/>
      <point x="241.61454977000002" y="65.75022025"/>
      <point x="229.51857478916298" y="72.268966499956" type="curve" smooth="yes"/>
      <point x="213.86512334000003" y="80.70490308999999"/>
      <point x="203.20510000000002" y="92.1026"/>
      <point x="197" y="100" type="curve"/>
    </contour>
  </outline>
</glyph>
<glyph name="c" format="2">
	<unicode hex="0063"/>
	<advance width="976"/>
	<outline>
		<contour>
			<point x="74" y="460" type="curve" smooth="yes"/>
			<point x="74" y="128"/>
			<point x="246" y="-22"/>
			<point x="548" y="-22" type="curve" smooth="yes"/>
			<point x="602" y="-22"/>
			<point x="722" y="-20"/>
			<point x="856" y="48" type="curve" smooth="yes"/>
			<point x="912" y="78"/>
			<point x="914" y="80"/>
			<point x="914" y="100" type="curve" smooth="yes"/>
			<point x="914" y="122"/>
			<point x="906" y="214"/>
			<point x="902" y="240" type="curve"/>
			<point x="902" y="246"/>
			<point x="898" y="266"/>
			<point x="878" y="266" type="curve" smooth="yes"/>
			<point x="870" y="266"/>
			<point x="866" y="266"/>
			<point x="846" y="246" type="curve"/>
			<point x="812" y="216"/>
			<point x="718" y="134"/>
			<point x="554" y="134" type="curve" smooth="yes"/>
			<point x="346" y="134"/>
			<point x="346" y="336"/>
			<point x="346" y="464" type="curve" smooth="yes"/>
			<point x="346" y="626"/>
			<point x="356" y="794"/>
			<point x="560" y="794" type="curve" smooth="yes"/>
			<point x="690" y="794"/>
			<point x="744" y="762"/>
			<point x="816" y="702" type="curve" smooth="yes"/>
			<point x="840" y="680"/>
			<point x="844" y="680"/>
			<point x="852" y="680" type="curve" smooth="yes"/>
			<point x="872" y="680"/>
			<point x="876" y="698"/>
			<point x="878" y="706" type="curve" smooth="yes"/>
			<point x="882" y="722"/>
			<point x="902" y="834"/>
			<point x="902" y="844" type="curve" smooth="yes"/>
			<point x="902" y="862"/>
			<point x="888" y="870"/>
			<point x="854" y="886" type="curve" smooth="yes"/>
			<point x="758" y="930"/>
			<point x="698" y="950"/>
			<point x="558" y="950" type="curve" smooth="yes"/>
			<point x="260" y="950"/>
			<point x="74" y="810"/>
		</contour>
	</outline>
</glyph>
<glyph name="d" format="2">
	<unicode hex="0064"/>
	<advance width="1122"/>
	<outline>
		<contour>
			<point x="74" y="456" type="curve" smooth="yes"/>
			<point x="74" y="364"/>
			<point x="74" y="-22"/>
			<point x="470" y="-22" type="curve" smooth="yes"/>
			<point x="554" y="-22"/>
			<point x="640" y="2"/>
			<point x="726" y="94" type="curve"/>
			<point x="726" y="94" type="line"/>
			<point x="726" y="20"/>
			<point x="774" y="0"/>
			<point x="842" y="0" type="curve" smooth="yes"/>
			<point x="902" y="0" type="line" smooth="yes"/>
			<point x="978" y="0"/>
			<point x="998" y="26"/>
			<point x="998" y="96" type="curve" smooth="yes"/>
			<point x="998" y="1292" type="line" smooth="yes"/>
			<point x="998" y="1356"/>
			<point x="984" y="1388"/>
			<point x="902" y="1388" type="curve" smooth="yes"/>
			<point x="828" y="1388" type="line" smooth="yes"/>
			<point x="752" y="1388"/>
			<point x="732" y="1362"/>
			<point x="732" y="1292" type="curve" smooth="yes"/>
			<point x="732" y="838" type="line"/>
			<point x="642" y="924"/>
			<point x="542" y="938"/>
			<point x="480" y="938" type="curve" smooth="yes"/>
			<point x="74" y="938"/>
			<point x="74" y="554"/>
		</contour>
		<contour>
			<point x="726" y="250" type="line" smooth="yes"/>
			<point x="726" y="216"/>
			<point x="726" y="198"/>
			<point x="668" y="158" type="curve" smooth="yes"/>
			<point x="618" y="126"/>
			<point x="572" y="122"/>
			<point x="548" y="122" type="curve" smooth="yes"/>
			<point x="346" y="122"/>
			<point x="346" y="306"/>
			<point x="346" y="456" type="curve" smooth="yes"/>
			<point x="346" y="606"/>
			<point x="346" y="794"/>
			<point x="570" y="794" type="curve" smooth="yes"/>
			<point x="628" y="794"/>
			<point x="682" y="774"/>
			<point x="726" y="732" type="curve"/>
		</contour>
	</outline>
</glyph>
<glyph name="e" format="2">
	<unicode hex="0065"/>
	<advance width="1022"/>
	<outline>
		<contour>
			<point x="62" y="466" type="curve" smooth="yes"/>
			<point x="62" y="138"/>
			<point x="252" y="-22"/>
			<point x="566" y="-22" type="curve" smooth="yes"/>
			<point x="642" y="-22"/>
			<point x="756" y="-12"/>
			<point x="888" y="54" type="curve" smooth="yes"/>
			<point x="932" y="76"/>
			<point x="946" y="82"/>
			<point x="946" y="106" type="curve" smooth="yes"/>
			<point x="946" y="120"/>
			<point x="940" y="178"/>
			<point x="938" y="194" type="curve" smooth="yes"/>
			<point x="930" y="256"/>
			<point x="928" y="258"/>
			<point x="910" y="258" type="curve" smooth="yes"/>
			<point x="902" y="258"/>
			<point x="898" y="258"/>
			<point x="876" y="238" type="curve" smooth="yes"/>
			<point x="758" y="136"/>
			<point x="638" y="122"/>
			<point x="574" y="122" type="curve" smooth="yes"/>
			<point x="348" y="122"/>
			<point x="324" y="300"/>
			<point x="318" y="428" type="curve"/>
			<point x="862" y="428" type="line" smooth="yes"/>
			<point x="908" y="428"/>
			<point x="958" y="430"/>
			<point x="958" y="520" type="curve" smooth="yes"/>
			<point x="958" y="657"/>
			<point x="924" y="770"/>
			<point x="848" y="845" type="curve" smooth="yes"/>
			<point x="780" y="912"/>
			<point x="680" y="950"/>
			<point x="540" y="950" type="curve" smooth="yes"/>
			<point x="220" y="950"/>
			<point x="62" y="770"/>
		</contour>
		<contour>
			<point x="320" y="534" type="line"/>
			<point x="326" y="656"/>
			<point x="366" y="806"/>
			<point x="540" y="806" type="curve" smooth="yes"/>
			<point x="700" y="806"/>
			<point x="730" y="690"/>
			<point x="736" y="534" type="curve"/>
		</contour>
	</outline>
</glyph>
<glyph name="f" format="2">
	<unicode hex="0066"/>
	<advance width="672"/>
	<outline>
		<contour>
			<point x="172" y="916" type="line"/>
			<point x="172" y="916" type="line"/>
			<point x="130" y="916"/>
			<point x="60" y="916"/>
			<point x="60" y="844" type="curve"/>
			<point x="60" y="844" type="line"/>
			<point x="60" y="772"/>
			<point x="128" y="772"/>
			<point x="172" y="772" type="curve"/>
			<point x="172" y="772" type="line"/>
			<point x="172" y="96" type="line" smooth="yes"/>
			<point x="172" y="24"/>
			<point x="194" y="0"/>
			<point x="268" y="0" type="curve" smooth="yes"/>
			<point x="342" y="0" type="line" smooth="yes"/>
			<point x="418" y="0"/>
			<point x="438" y="26"/>
			<point x="438" y="96" type="curve" smooth="yes"/>
			<point x="438" y="772" type="line"/>
			<point x="534" y="772" type="line" smooth="yes"/>
			<point x="558" y="772"/>
			<point x="630" y="772"/>
			<point x="630" y="844" type="curve"/>
			<point x="630" y="844" type="line"/>
			<point x="630" y="916"/>
			<point x="578" y="916"/>
			<point x="554" y="916" type="curve" smooth="yes"/>
			<point x="432" y="916" type="line"/>
			<point x="432" y="1134" type="line" smooth="yes"/>
			<point x="432" y="1186"/>
			<point x="432" y="1266"/>
			<point x="562" y="1266" type="curve" smooth="yes"/>
			<point x="626" y="1266"/>
			<point x="666" y="1250"/>
			<point x="706" y="1210" type="curve" smooth="yes"/>
			<point x="722" y="1194"/>
			<point x="726" y="1190"/>
			<point x="736" y="1190" type="curve" smooth="yes"/>
			<point x="762" y="1190"/>
			<point x="762" y="1210"/>
			<point x="762" y="1242" type="curve" smooth="yes"/>
			<point x="762" y="1334" type="line" smooth="yes"/>
			<point x="762" y="1382"/>
			<point x="760" y="1384"/>
			<point x="692" y="1398" type="curve" smooth="yes"/>
			<point x="634" y="1410"/>
			<point x="592" y="1410"/>
			<point x="562" y="1410" type="curve" smooth="yes"/>
			<point x="412" y="1410"/>
			<point x="172" y="1376"/>
			<point x="172" y="1076" type="curve" smooth="yes"/>
		</contour>
	</outline>
</glyph>
<glyph name="g" format="2">
	<unicode hex="0067"/>
	<advance width="1100"/>
	<outline>
		<contour>
			<point x="50" y="-134" type="curve" smooth="yes"/>
			<point x="50" y="-304"/>
			<point x="192" y="-412"/>
			<point x="542" y="-412" type="curve" smooth="yes"/>
			<point x="666" y="-412"/>
			<point x="1048" y="-412"/>
			<point x="1048" y="-128" type="curve" smooth="yes"/>
			<point x="1048" y="184"/>
			<point x="766" y="184"/>
			<point x="496" y="184" type="curve" smooth="yes"/>
			<point x="350" y="184" type="line" smooth="yes"/>
			<point x="284" y="184"/>
			<point x="230" y="226"/>
			<point x="230" y="298" type="curve" smooth="yes"/>
			<point x="230" y="312"/>
			<point x="232" y="322"/>
			<point x="234" y="328" type="curve"/>
			<point x="328" y="276"/>
			<point x="446" y="276"/>
			<point x="488" y="276" type="curve" smooth="yes"/>
			<point x="572" y="276"/>
			<point x="890" y="276"/>
			<point x="890" y="606" type="curve" smooth="yes"/>
			<point x="890" y="722"/>
			<point x="846" y="792"/>
			<point x="828" y="814" type="curve"/>
			<point x="862" y="814"/>
			<point x="932" y="814"/>
			<point x="1014" y="792" type="curve" smooth="yes"/>
			<point x="1022" y="790"/>
			<point x="1036" y="784"/>
			<point x="1042" y="784" type="curve" smooth="yes"/>
			<point x="1058" y="784"/>
			<point x="1068" y="796"/>
			<point x="1068" y="810" type="curve" smooth="yes"/>
			<point x="1068" y="818"/>
			<point x="1058" y="866"/>
			<point x="1054" y="886" type="curve" smooth="yes"/>
			<point x="1046" y="934"/>
			<point x="1046" y="938"/>
			<point x="1010" y="938" type="curve" smooth="yes"/>
			<point x="948" y="938"/>
			<point x="848" y="914"/>
			<point x="772" y="868" type="curve"/>
			<point x="678" y="930"/>
			<point x="574" y="938"/>
			<point x="488" y="938" type="curve" smooth="yes"/>
			<point x="404" y="938"/>
			<point x="86" y="938"/>
			<point x="86" y="608" type="curve" smooth="yes"/>
			<point x="86" y="528"/>
			<point x="108" y="428"/>
			<point x="184" y="362" type="curve"/>
			<point x="130" y="288"/>
			<point x="130" y="210"/>
			<point x="130" y="200" type="curve" smooth="yes"/>
			<point x="130" y="162"/>
			<point x="142" y="96"/>
			<point x="184" y="42" type="curve"/>
			<point x="154" y="30"/>
			<point x="50" y="-6"/>
		</contour>
		<contour>
			<point x="488" y="420" type="curve" smooth="yes"/>
			<point x="348" y="420"/>
			<point x="342" y="496"/>
			<point x="342" y="606" type="curve" smooth="yes"/>
			<point x="342" y="716"/>
			<point x="348" y="794"/>
			<point x="488" y="794" type="curve" smooth="yes"/>
			<point x="628" y="794"/>
			<point x="634" y="718"/>
			<point x="634" y="608" type="curve" smooth="yes"/>
			<point x="634" y="498"/>
			<point x="628" y="420"/>
		</contour>
		<contour>
			<point x="596" y="-34" type="line" smooth="yes"/>
			<point x="758" y="-34"/>
			<point x="842" y="-62"/>
			<point x="842" y="-134" type="curve" smooth="yes"/>
			<point x="842" y="-268"/>
			<point x="614" y="-268"/>
			<point x="550" y="-268" type="curve" smooth="yes"/>
			<point x="470" y="-268"/>
			<point x="256" y="-268"/>
			<point x="256" y="-128" type="curve" smooth="yes"/>
			<point x="256" y="-34"/>
			<point x="318" y="-34"/>
			<point x="364" y="-34" type="curve" smooth="yes"/>
		</contour>
	</outline>
</glyph>
<glyph name="h" format="2">
	<unicode hex="0068"/>
	<advance width="1122"/>
	<outline>
		<contour>
			<point x="1000" y="650" type="line" smooth="yes"/>
			<point x="1000" y="856"/>
			<point x="912" y="938"/>
			<point x="708" y="938" type="curve" smooth="yes"/>
			<point x="508" y="938"/>
			<point x="416" y="800"/>
			<point x="388" y="744" type="curve"/>
			<point x="386" y="744" type="line"/>
			<point x="386" y="1292" type="line" smooth="yes"/>
			<point x="386" y="1356"/>
			<point x="372" y="1388"/>
			<point x="290" y="1388" type="curve" smooth="yes"/>
			<point x="216" y="1388" type="line" smooth="yes"/>
			<point x="144" y="1388"/>
			<point x="120" y="1366"/>
			<point x="120" y="1292" type="curve" smooth="yes"/>
			<point x="120" y="96" type="line" smooth="yes"/>
			<point x="120" y="24"/>
			<point x="142" y="0"/>
			<point x="216" y="0" type="curve" smooth="yes"/>
			<point x="296" y="0" type="line" smooth="yes"/>
			<point x="372" y="0"/>
			<point x="392" y="26"/>
			<point x="392" y="96" type="curve" smooth="yes"/>
			<point x="392" y="538" type="line" smooth="yes"/>
			<point x="392" y="712"/>
			<point x="508" y="794"/>
			<point x="612" y="794" type="curve" smooth="yes"/>
			<point x="708" y="794"/>
			<point x="728" y="748"/>
			<point x="728" y="646" type="curve" smooth="yes"/>
			<point x="728" y="96" type="line" smooth="yes"/>
			<point x="728" y="32"/>
			<point x="742" y="0"/>
			<point x="824" y="0" type="curve" smooth="yes"/>
			<point x="904" y="0" type="line" smooth="yes"/>
			<point x="980" y="0"/>
			<point x="1000" y="26"/>
			<point x="1000" y="96" type="curve" smooth="yes"/>
		</contour>
	</outline>
</glyph>
<glyph name="i" format="2">
	<unicode hex="0069"/>
	<advance width="255"/>
	<outline>
		<contour>
			<point x="54" y="649" type="curve" smooth="yes"/>
			<point x="54" y="603" type="line" smooth="yes"/>
			<point x="54" y="571"/>
			<point x="67" y="558"/>
			<point x="101" y="558" type="curve" smooth="yes"/>
			<point x="153" y="558" type="line" smooth="yes"/>
			<point x="196" y="558"/>
			<point x="201" y="580"/>
			<point x="201" y="603" type="curve" smooth="yes"/>
			<point x="201" y="650" type="line" smooth="yes"/>
			<point x="201" y="681"/>
			<point x="190" y="695"/>
			<point x="153" y="695" type="curve" smooth="yes"/>
			<point x="102" y="695" type="line" smooth="yes"/>
			<point x="70" y="695"/>
			<point x="54" y="686"/>
		</contour>
		<contour>
			<point x="61" y="410" type="curve" smooth="yes"/>
			<point x="61" y="48" type="line" smooth="yes"/>
			<point x="61" y="12"/>
			<point x="72" y="0"/>
			<point x="109" y="0" type="curve" smooth="yes"/>
			<point x="146" y="0" type="line" smooth="yes"/>
			<point x="184" y="0"/>
			<point x="194" y="13"/>
			<point x="194" y="48" type="curve" smooth="yes"/>
			<point x="194" y="410" type="line" smooth="yes"/>
			<point x="194" y="442"/>
			<point x="187" y="458"/>
			<point x="146" y="458" type="curve" smooth="yes"/>
			<point x="109" y="458" type="line" smooth="yes"/>
			<point x="73" y="458"/>
			<point x="61" y="447"/>
		</contour>
	</outline>
</glyph>
<glyph name="j" format="2">
	<unicode hex="006A"/>
	<advance width="572"/>
	<outline>
		<contour>
			<point x="154" y="1294" type="curve" smooth="yes"/>
			<point x="154" y="1212" type="line" smooth="yes"/>
			<point x="154" y="1148"/>
			<point x="168" y="1116"/>
			<point x="250" y="1116" type="curve" smooth="yes"/>
			<point x="352" y="1116" type="line" smooth="yes"/>
			<point x="428" y="1116"/>
			<point x="448" y="1142"/>
			<point x="448" y="1212" type="curve" smooth="yes"/>
			<point x="448" y="1294" type="line" smooth="yes"/>
			<point x="448" y="1358"/>
			<point x="434" y="1390"/>
			<point x="352" y="1390" type="curve" smooth="yes"/>
			<point x="250" y="1390" type="line" smooth="yes"/>
			<point x="174" y="1390"/>
			<point x="154" y="1364"/>
		</contour>
		<contour>
			<point x="182" y="-110" type="line" smooth="yes"/>
			<point x="182" y="-162"/>
			<point x="182" y="-242"/>
			<point x="58" y="-242" type="curve" smooth="yes"/>
			<point x="34" y="-242"/>
			<point x="-20" y="-238"/>
			<point x="-62" y="-212" type="curve" smooth="yes"/>
			<point x="-82" y="-200"/>
			<point x="-86" y="-198"/>
			<point x="-92" y="-198" type="curve" smooth="yes"/>
			<point x="-104" y="-198"/>
			<point x="-110" y="-202"/>
			<point x="-116" y="-222" type="curve" smooth="yes"/>
			<point x="-136" y="-290" type="line" smooth="yes"/>
			<point x="-140" y="-304"/>
			<point x="-142" y="-310"/>
			<point x="-142" y="-316" type="curve" smooth="yes"/>
			<point x="-142" y="-354"/>
			<point x="24" y="-410"/>
			<point x="150" y="-410" type="curve" smooth="yes"/>
			<point x="370" y="-410"/>
			<point x="448" y="-262"/>
			<point x="448" y="-64" type="curve" smooth="yes"/>
			<point x="448" y="820" type="line" smooth="yes"/>
			<point x="448" y="884"/>
			<point x="434" y="916"/>
			<point x="352" y="916" type="curve" smooth="yes"/>
			<point x="278" y="916" type="line" smooth="yes"/>
			<point x="202" y="916"/>
			<point x="182" y="890"/>
			<point x="182" y="820" type="curve" smooth="yes"/>
		</contour>
	</outline>
</glyph>
<glyph name="k" format="2">
	<unicode hex="006B"/>
	<advance width="1060"/>
	<outline>
		<contour>
			<point x="626" y="544" type="line"/>
			<point x="934" y="830" type="line" smooth="yes"/>
			<point x="958" y="852"/>
			<point x="964" y="858"/>
			<point x="964" y="874" type="curve" smooth="yes"/>
			<point x="964" y="916"/>
			<point x="924" y="916"/>
			<point x="896" y="916" type="curve" smooth="yes"/>
			<point x="780" y="916" type="line" smooth="yes"/>
			<point x="744" y="916"/>
			<point x="706" y="916"/>
			<point x="660" y="874" type="curve" smooth="yes"/>
			<point x="372" y="606" type="line"/>
			<point x="372" y="1292" type="line" smooth="yes"/>
			<point x="372" y="1356"/>
			<point x="358" y="1388"/>
			<point x="276" y="1388" type="curve" smooth="yes"/>
			<point x="234" y="1388" type="line" smooth="yes"/>
			<point x="162" y="1388"/>
			<point x="138" y="1366"/>
			<point x="138" y="1292" type="curve" smooth="yes"/>
			<point x="138" y="96" type="line" smooth="yes"/>
			<point x="138" y="24"/>
			<point x="160" y="0"/>
			<point x="234" y="0" type="curve" smooth="yes"/>
			<point x="270" y="0" type="line" smooth="yes"/>
			<point x="346" y="0"/>
			<point x="366" y="26"/>
			<point x="366" y="96" type="curve" smooth="yes"/>
			<point x="366" y="304" type="line"/>
			<point x="460" y="390" type="line"/>
			<point x="720" y="50" type="line" smooth="yes"/>
			<point x="754" y="6"/>
			<point x="768" y="0"/>
			<point x="826" y="0" type="curve" smooth="yes"/>
			<point x="922" y="0" type="line" smooth="yes"/>
			<point x="950" y="0"/>
			<point x="994" y="0"/>
			<point x="994" y="44" type="curve" smooth="yes"/>
			<point x="994" y="48"/>
			<point x="994" y="62"/>
			<point x="974" y="88" type="curve" smooth="yes"/>
		</contour>
	</outline>
</glyph>
<glyph name="l" format="2">
	<unicode hex="006C"/>
	<advance width="510"/>
	<outline>
		<contour>
			<point x="122" y="1292" type="curve" smooth="yes"/>
			<point x="122" y="96" type="line" smooth="yes"/>
			<point x="122" y="24"/>
			<point x="144" y="0"/>
			<point x="218" y="0" type="curve" smooth="yes"/>
			<point x="292" y="0" type="line" smooth="yes"/>
			<point x="368" y="0"/>
			<point x="388" y="26"/>
			<point x="388" y="96" type="curve" smooth="yes"/>
			<point x="388" y="1292" type="line" smooth="yes"/>
			<point x="388" y="1356"/>
			<point x="374" y="1388"/>
			<point x="292" y="1388" type="curve" smooth="yes"/>
			<point x="218" y="1388" type="line" smooth="yes"/>
			<point x="146" y="1388"/>
			<point x="122" y="1366"/>
		</contour>
	</outline>
</glyph>
<glyph name="m" format="2">
	<unicode hex="006D"/>
	<advance width="866"/>
	<outline>
		<contour>
			<point x="806" y="325" type="line" smooth="yes"/>
			<point x="806" y="428"/>
			<point x="762" y="469"/>
			<point x="660" y="469" type="curve" smooth="yes"/>
			<point x="589" y="469"/>
			<point x="534" y="436"/>
			<point x="498" y="370" type="curve"/>
			<point x="482" y="466"/>
			<point x="397" y="469"/>
			<point x="355" y="469" type="curve" smooth="yes"/>
			<point x="290" y="469"/>
			<point x="229" y="440"/>
			<point x="191" y="366" type="curve"/>
			<point x="190" y="366" type="line"/>
			<point x="190" y="416" type="line" smooth="yes"/>
			<point x="190" y="448"/>
			<point x="183" y="464"/>
			<point x="142" y="464" type="curve" smooth="yes"/>
			<point x="108" y="464" type="line" smooth="yes"/>
			<point x="72" y="464"/>
			<point x="60" y="453"/>
			<point x="60" y="416" type="curve" smooth="yes"/>
			<point x="60" y="48" type="line" smooth="yes"/>
			<point x="60" y="12"/>
			<point x="71" y="0"/>
			<point x="108" y="0" type="curve" smooth="yes"/>
			<point x="148" y="0" type="line" smooth="yes"/>
			<point x="186" y="0"/>
			<point x="196" y="13"/>
			<point x="196" y="48" type="curve" smooth="yes"/>
			<point x="196" y="269" type="line" smooth="yes"/>
			<point x="196" y="359"/>
			<point x="257" y="397"/>
			<point x="306" y="397" type="curve" smooth="yes"/>
			<point x="354" y="397"/>
			<point x="365" y="376"/>
			<point x="365" y="323" type="curve" smooth="yes"/>
			<point x="365" y="48" type="line" smooth="yes"/>
			<point x="365" y="12"/>
			<point x="376" y="0"/>
			<point x="413" y="0" type="curve" smooth="yes"/>
			<point x="453" y="0" type="line" smooth="yes"/>
			<point x="491" y="0"/>
			<point x="501" y="13"/>
			<point x="501" y="48" type="curve" smooth="yes"/>
			<point x="501" y="269" type="line" smooth="yes"/>
			<point x="501" y="359"/>
			<point x="562" y="397"/>
			<point x="611" y="397" type="curve" smooth="yes"/>
			<point x="659" y="397"/>
			<point x="670" y="376"/>
			<point x="670" y="323" type="curve" smooth="yes"/>
			<point x="670" y="48" type="line" smooth="yes"/>
			<point x="670" y="12"/>
			<point x="681" y="0"/>
			<point x="718" y="0" type="curve" smooth="yes"/>
			<point x="758" y="0" type="line" smooth="yes"/>
			<point x="796" y="0"/>
			<point x="806" y="13"/>
			<point x="806" y="48" type="curve" smooth="yes"/>
		</contour>
	</outline>
</glyph>
<glyph name="n" format="2">
	<unicode hex="006E"/>
	<advance width="1122"/>
	<outline>
		<contour>
			<point x="1000" y="650" type="line" smooth="yes"/>
			<point x="1000" y="856"/>
			<point x="912" y="938"/>
			<point x="708" y="938" type="curve" smooth="yes"/>
			<point x="498" y="938"/>
			<point x="408" y="786"/>
			<point x="382" y="732" type="curve"/>
			<point x="380" y="732" type="line"/>
			<point x="380" y="832" type="line" smooth="yes"/>
			<point x="380" y="896"/>
			<point x="366" y="928"/>
			<point x="284" y="928" type="curve" smooth="yes"/>
			<point x="216" y="928" type="line" smooth="yes"/>
			<point x="144" y="928"/>
			<point x="120" y="906"/>
			<point x="120" y="832" type="curve" smooth="yes"/>
			<point x="120" y="96" type="line" smooth="yes"/>
			<point x="120" y="24"/>
			<point x="142" y="0"/>
			<point x="216" y="0" type="curve" smooth="yes"/>
			<point x="296" y="0" type="line" smooth="yes"/>
			<point x="372" y="0"/>
			<point x="392" y="26"/>
			<point x="392" y="96" type="curve" smooth="yes"/>
			<point x="392" y="538" type="line" smooth="yes"/>
			<point x="392" y="712"/>
			<point x="508" y="794"/>
			<point x="612" y="794" type="curve" smooth="yes"/>
			<point x="708" y="794"/>
			<point x="728" y="748"/>
			<point x="728" y="646" type="curve" smooth="yes"/>
			<point x="728" y="96" type="line" smooth="yes"/>
			<point x="728" y="32"/>
			<point x="742" y="0"/>
			<point x="824" y="0" type="curve" smooth="yes"/>
			<point x="904" y="0" type="line" smooth="yes"/>
			<point x="980" y="0"/>
			<point x="1000" y="26"/>
			<point x="1000" y="96" type="curve" smooth="yes"/>
		</contour>
	</outline>
</glyph>
<glyph name="o" format="2">
	<unicode hex="006F"/>
	<advance width="1100"/>
	<outline>
		<contour>
			<point x="1036" y="450" type="curve" smooth="yes"/>
			<point x="1036" y="778"/>
			<point x="876" y="950"/>
			<point x="550" y="950" type="curve" smooth="yes"/>
			<point x="216" y="950"/>
			<point x="62" y="772"/>
			<point x="62" y="450" type="curve" smooth="yes"/>
			<point x="62" y="124"/>
			<point x="234" y="-22"/>
			<point x="548" y="-22" type="curve" smooth="yes"/>
			<point x="862" y="-22"/>
			<point x="1036" y="122"/>
		</contour>
		<contour>
			<point x="550" y="134" type="curve" smooth="yes"/>
			<point x="334" y="134"/>
			<point x="334" y="314"/>
			<point x="334" y="474" type="curve" smooth="yes"/>
			<point x="334" y="628"/>
			<point x="334" y="806"/>
			<point x="548" y="806" type="curve" smooth="yes"/>
			<point x="764" y="806"/>
			<point x="764" y="630"/>
			<point x="764" y="474" type="curve" smooth="yes"/>
			<point x="764" y="316"/>
			<point x="764" y="134"/>
		</contour>
	</outline>
</glyph>
<glyph name="p" format="2">
	<unicode hex="0070"/>
	<advance width="1122"/>
	<outline>
		<contour>
			<point x="394" y="78" type="line"/>
			<point x="484" y="-22"/>
			<point x="594" y="-22"/>
			<point x="622" y="-22" type="curve" smooth="yes"/>
			<point x="1046" y="-22"/>
			<point x="1046" y="362"/>
			<point x="1046" y="462" type="curve" smooth="yes"/>
			<point x="1046" y="560"/>
			<point x="1046" y="938"/>
			<point x="684" y="938" type="curve" smooth="yes"/>
			<point x="566" y="938"/>
			<point x="460" y="890"/>
			<point x="388" y="822" type="curve"/>
			<point x="388" y="822" type="line"/>
			<point x="388" y="896"/>
			<point x="340" y="916"/>
			<point x="272" y="916" type="curve" smooth="yes"/>
			<point x="218" y="916" type="line" smooth="yes"/>
			<point x="146" y="916"/>
			<point x="122" y="894"/>
			<point x="122" y="820" type="curve" smooth="yes"/>
			<point x="122" y="-292" type="line" smooth="yes"/>
			<point x="122" y="-364"/>
			<point x="144" y="-388"/>
			<point x="218" y="-388" type="curve" smooth="yes"/>
			<point x="298" y="-388" type="line" smooth="yes"/>
			<point x="374" y="-388"/>
			<point x="394" y="-362"/>
			<point x="394" y="-292" type="curve" smooth="yes"/>
		</contour>
		<contour>
			<point x="394" y="716" type="line"/>
			<point x="416" y="736"/>
			<point x="482" y="782"/>
			<point x="568" y="782" type="curve" smooth="yes"/>
			<point x="772" y="782"/>
			<point x="774" y="546"/>
			<point x="774" y="458" type="curve" smooth="yes"/>
			<point x="774" y="378"/>
			<point x="774" y="122"/>
			<point x="548" y="122" type="curve" smooth="yes"/>
			<point x="502" y="122"/>
			<point x="466" y="138"/>
			<point x="442" y="156" type="curve" smooth="yes"/>
			<point x="394" y="190"/>
			<point x="394" y="200"/>
			<point x="394" y="236" type="curve" smooth="yes"/>
		</contour>
	</outline>
</glyph>
<glyph name="q" format="2">
	<unicode hex="0071"/>
	<advance width="1122"/>
	<outline>
		<contour>
			<point x="726" y="96" type="curve"/>
			<point x="726" y="-292" type="line" smooth="yes"/>
			<point x="726" y="-356"/>
			<point x="740" y="-388"/>
			<point x="822" y="-388" type="curve" smooth="yes"/>
			<point x="902" y="-388" type="line" smooth="yes"/>
			<point x="978" y="-388"/>
			<point x="998" y="-362"/>
			<point x="998" y="-292" type="curve" smooth="yes"/>
			<point x="998" y="842" type="line" smooth="yes"/>
			<point x="998" y="906"/>
			<point x="984" y="938"/>
			<point x="902" y="938" type="curve" smooth="yes"/>
			<point x="828" y="938" type="line" smooth="yes"/>
			<point x="752" y="938"/>
			<point x="732" y="912"/>
			<point x="732" y="842" type="curve" smooth="yes"/>
			<point x="732" y="804" type="line"/>
			<point x="644" y="938"/>
			<point x="526" y="938"/>
			<point x="492" y="938" type="curve" smooth="yes"/>
			<point x="106" y="938"/>
			<point x="74" y="616"/>
			<point x="74" y="456" type="curve" smooth="yes"/>
			<point x="74" y="300"/>
			<point x="106" y="-22"/>
			<point x="478" y="-22" type="curve" smooth="yes"/>
			<point x="584" y="-22"/>
			<point x="658" y="18"/>
		</contour>
		<contour>
			<point x="732" y="230" type="line"/>
			<point x="732" y="230"/>
			<point x="732" y="230"/>
			<point x="732" y="230" type="curve"/>
			<point x="696" y="180"/>
			<point x="642" y="122"/>
			<point x="550" y="122" type="curve" smooth="yes"/>
			<point x="346" y="122"/>
			<point x="346" y="376"/>
			<point x="346" y="454" type="curve" smooth="yes"/>
			<point x="346" y="534"/>
			<point x="346" y="782"/>
			<point x="570" y="782" type="curve" smooth="yes"/>
			<point x="602" y="782"/>
			<point x="644" y="774"/>
			<point x="680" y="736" type="curve" smooth="yes"/>
			<point x="732" y="686"/>
			<point x="732" y="650"/>
			<point x="732" y="626" type="curve" smooth="yes"/>
		</contour>
	</outline>
</glyph>
<glyph name="r" format="2">
	<unicode hex="0072"/>
	<advance width="744"/>
	<outline>
		<contour>
			<point x="388" y="460" type="line" smooth="yes"/>
			<point x="388" y="650"/>
			<point x="546" y="728"/>
			<point x="672" y="736" type="curve" smooth="yes"/>
			<point x="708" y="738"/>
			<point x="712" y="738"/>
			<point x="712" y="790" type="curve" smooth="yes"/>
			<point x="712" y="884" type="line" smooth="yes"/>
			<point x="712" y="924"/>
			<point x="712" y="938"/>
			<point x="676" y="938" type="curve" smooth="yes"/>
			<point x="620" y="938"/>
			<point x="474" y="918"/>
			<point x="380" y="702" type="curve"/>
			<point x="378" y="702" type="line"/>
			<point x="378" y="832" type="line" smooth="yes"/>
			<point x="378" y="896"/>
			<point x="364" y="928"/>
			<point x="282" y="928" type="curve" smooth="yes"/>
			<point x="218" y="928" type="line" smooth="yes"/>
			<point x="146" y="928"/>
			<point x="122" y="906"/>
			<point x="122" y="832" type="curve" smooth="yes"/>
			<point x="122" y="96" type="line" smooth="yes"/>
			<point x="122" y="24"/>
			<point x="144" y="0"/>
			<point x="218" y="0" type="curve" smooth="yes"/>
			<point x="292" y="0" type="line" smooth="yes"/>
			<point x="368" y="0"/>
			<point x="388" y="26"/>
			<point x="388" y="96" type="curve" smooth="yes"/>
		</contour>
	</outline>
</glyph>
<glyph name="s" format="2">
	<unicode hex="0073"/>
	<advance width="842"/>
	<outline>
		<contour>
			<point x="792" y="282" type="curve" smooth="yes"/>
			<point x="792" y="394"/>
			<point x="732" y="464"/>
			<point x="696" y="496" type="curve" smooth="yes"/>
			<point x="616" y="568"/>
			<point x="546" y="580"/>
			<point x="462" y="596" type="curve" smooth="yes"/>
			<point x="352" y="616"/>
			<point x="272" y="632"/>
			<point x="272" y="710" type="curve" smooth="yes"/>
			<point x="272" y="792"/>
			<point x="338" y="808"/>
			<point x="416" y="808" type="curve" smooth="yes"/>
			<point x="550" y="808"/>
			<point x="622" y="758"/>
			<point x="674" y="714" type="curve"/>
			<point x="694" y="694"/>
			<point x="698" y="694"/>
			<point x="706" y="694" type="curve" smooth="yes"/>
			<point x="726" y="694"/>
			<point x="730" y="712"/>
			<point x="732" y="720" type="curve" smooth="yes"/>
			<point x="736" y="736"/>
			<point x="756" y="848"/>
			<point x="756" y="858" type="curve" smooth="yes"/>
			<point x="756" y="890"/>
			<point x="650" y="918"/>
			<point x="628" y="926" type="curve"/>
			<point x="548" y="948"/>
			<point x="484" y="950"/>
			<point x="432" y="950" type="curve" smooth="yes"/>
			<point x="342" y="950"/>
			<point x="74" y="950"/>
			<point x="74" y="664" type="curve" smooth="yes"/>
			<point x="74" y="566"/>
			<point x="118" y="506"/>
			<point x="172" y="458" type="curve" smooth="yes"/>
			<point x="242" y="394"/>
			<point x="320" y="380"/>
			<point x="434" y="358" type="curve" smooth="yes"/>
			<point x="492" y="348"/>
			<point x="594" y="330"/>
			<point x="594" y="242" type="curve" smooth="yes"/>
			<point x="594" y="148"/>
			<point x="516" y="134"/>
			<point x="438" y="134" type="curve" smooth="yes"/>
			<point x="350" y="134"/>
			<point x="238" y="160"/>
			<point x="144" y="272" type="curve"/>
			<point x="134" y="282"/>
			<point x="128" y="288"/>
			<point x="116" y="288" type="curve" smooth="yes"/>
			<point x="96" y="288"/>
			<point x="92" y="270"/>
			<point x="90" y="258" type="curve" smooth="yes"/>
			<point x="86" y="230"/>
			<point x="62" y="116"/>
			<point x="62" y="96" type="curve" smooth="yes"/>
			<point x="62" y="60"/>
			<point x="210" y="14"/>
			<point x="212" y="12" type="curve"/>
			<point x="322" y="-22"/>
			<point x="404" y="-22"/>
			<point x="438" y="-22" type="curve" smooth="yes"/>
			<point x="504" y="-22"/>
			<point x="632" y="-19"/>
			<point x="714" y="63" type="curve" smooth="yes"/>
			<point x="760" y="108"/>
			<point x="792" y="177"/>
		</contour>
	</outline>
</glyph>
<glyph name="t" format="2">
	<unicode hex="0074"/>
	<advance width="404"/>
	<outline>
		<contour>
			<point x="218" y="386" type="line"/>
			<point x="307" y="386" type="line" smooth="yes"/>
			<point x="319" y="386"/>
			<point x="355" y="386"/>
			<point x="355" y="422" type="curve"/>
			<point x="355" y="422" type="line"/>
			<point x="355" y="458"/>
			<point x="319" y="458"/>
			<point x="307" y="458" type="curve" smooth="yes"/>
			<point x="218" y="458" type="line"/>
			<point x="218" y="541" type="line" smooth="yes"/>
			<point x="218" y="573"/>
			<point x="211" y="589"/>
			<point x="170" y="589" type="curve" smooth="yes"/>
			<point x="139" y="589" type="line" smooth="yes"/>
			<point x="103" y="589"/>
			<point x="91" y="578"/>
			<point x="91" y="541" type="curve" smooth="yes"/>
			<point x="91" y="458" type="line"/>
			<point x="68" y="458" type="line" smooth="yes"/>
			<point x="57" y="458"/>
			<point x="20" y="458"/>
			<point x="20" y="422" type="curve"/>
			<point x="20" y="422" type="line"/>
			<point x="20" y="386"/>
			<point x="56" y="386"/>
			<point x="68" y="386" type="curve" smooth="yes"/>
			<point x="88" y="386" type="line"/>
			<point x="88" y="133" type="line" smooth="yes"/>
			<point x="88" y="32"/>
			<point x="124" y="-11"/>
			<point x="193" y="-11" type="curve" smooth="yes"/>
			<point x="224" y="-11"/>
			<point x="301" y="-4"/>
			<point x="362" y="32" type="curve" smooth="yes"/>
			<point x="369" y="36"/>
			<point x="373" y="42"/>
			<point x="373" y="47" type="curve" smooth="yes"/>
			<point x="373" y="50"/>
			<point x="371" y="59"/>
			<point x="363" y="86" type="curve" smooth="yes"/>
			<point x="359" y="99"/>
			<point x="358" y="104"/>
			<point x="349" y="104" type="curve" smooth="yes"/>
			<point x="344" y="104"/>
			<point x="343" y="102"/>
			<point x="337" y="97" type="curve" smooth="yes"/>
			<point x="326" y="88"/>
			<point x="299" y="67"/>
			<point x="257" y="67" type="curve" smooth="yes"/>
			<point x="233" y="67"/>
			<point x="218" y="84"/>
			<point x="218" y="150" type="curve" smooth="yes"/>
		</contour>
	</outline>
</glyph>
<glyph name="u" format="2">
	<unicode hex="0075"/>
	<advance width="561"/>
	<outline>
		<contour>
			<point x="222" y="-11" type="curve" smooth="yes"/>
			<point x="249" y="-11"/>
			<point x="320" y="-11"/>
			<point x="367" y="74" type="curve"/>
			<point x="367" y="48" type="line" smooth="yes"/>
			<point x="367" y="16"/>
			<point x="374" y="0"/>
			<point x="415" y="0" type="curve" smooth="yes"/>
			<point x="452" y="0" type="line" smooth="yes"/>
			<point x="490" y="0"/>
			<point x="500" y="13"/>
			<point x="500" y="48" type="curve" smooth="yes"/>
			<point x="500" y="410" type="line" smooth="yes"/>
			<point x="500" y="442"/>
			<point x="493" y="458"/>
			<point x="452" y="458" type="curve" smooth="yes"/>
			<point x="412" y="458" type="line" smooth="yes"/>
			<point x="374" y="458"/>
			<point x="364" y="445"/>
			<point x="364" y="410" type="curve" smooth="yes"/>
			<point x="364" y="173" type="line" smooth="yes"/>
			<point x="364" y="107"/>
			<point x="329" y="50"/>
			<point x="258" y="50" type="curve" smooth="yes"/>
			<point x="202" y="50"/>
			<point x="196" y="64"/>
			<point x="196" y="117" type="curve" smooth="yes"/>
			<point x="196" y="410" type="line" smooth="yes"/>
			<point x="196" y="442"/>
			<point x="189" y="458"/>
			<point x="148" y="458" type="curve" smooth="yes"/>
			<point x="108" y="458" type="line" smooth="yes"/>
			<point x="72" y="458"/>
			<point x="60" y="447"/>
			<point x="60" y="410" type="curve" smooth="yes"/>
			<point x="60" y="126" type="line" smooth="yes"/>
			<point x="60" y="19"/>
			<point x="118" y="-11"/>
		</contour>
	</outline>
</glyph>
<glyph name="v" format="2">
	<unicode hex="0076"/>
	<advance width="1000"/>
	<outline>
		<contour>
			<point x="300" y="84" type="line" smooth="yes"/>
			<point x="328" y="0"/>
			<point x="390" y="0"/>
			<point x="426" y="0" type="curve" smooth="yes"/>
			<point x="572" y="0" type="line" smooth="yes"/>
			<point x="608" y="0"/>
			<point x="670" y="0"/>
			<point x="698" y="84" type="curve" smooth="yes"/>
			<point x="936" y="822" type="line" smooth="yes"/>
			<point x="946" y="850"/>
			<point x="946" y="854"/>
			<point x="946" y="860" type="curve" smooth="yes"/>
			<point x="946" y="916"/>
			<point x="896" y="916"/>
			<point x="866" y="916" type="curve" smooth="yes"/>
			<point x="824" y="916" type="line" smooth="yes"/>
			<point x="740" y="916"/>
			<point x="718" y="886"/>
			<point x="700" y="830" type="curve" smooth="yes"/>
			<point x="584" y="476" type="line" smooth="yes"/>
			<point x="556" y="392"/>
			<point x="530" y="310"/>
			<point x="502" y="226" type="curve"/>
			<point x="502" y="226" type="line"/>
			<point x="474" y="310"/>
			<point x="448" y="392"/>
			<point x="420" y="476" type="curve" smooth="yes"/>
			<point x="304" y="830" type="line" smooth="yes"/>
			<point x="290" y="872"/>
			<point x="276" y="916"/>
			<point x="180" y="916" type="curve" smooth="yes"/>
			<point x="132" y="916" type="line" smooth="yes"/>
			<point x="102" y="916"/>
			<point x="52" y="916"/>
			<point x="52" y="860" type="curve" smooth="yes"/>
			<point x="52" y="854"/>
			<point x="52" y="850"/>
			<point x="62" y="822" type="curve" smooth="yes"/>
		</contour>
	</outline>
</glyph>
<glyph name="w" format="2">
	<unicode hex="0077"/>
	<advance width="744"/>
	<outline>
		<contour>
			<point x="130" y="46" type="line" smooth="yes"/>
			<point x="143" y="0"/>
			<point x="169" y="0"/>
			<point x="194" y="0" type="curve" smooth="yes"/>
			<point x="222" y="0" type="line" smooth="yes"/>
			<point x="269" y="0"/>
			<point x="277" y="15"/>
			<point x="288" y="55" type="curve" smooth="yes"/>
			<point x="311" y="138"/>
			<point x="347" y="264"/>
			<point x="351" y="316" type="curve"/>
			<point x="352" y="317" type="line"/>
			<point x="355" y="293"/>
			<point x="364" y="251"/>
			<point x="375" y="207" type="curve" smooth="yes"/>
			<point x="390" y="147"/>
			<point x="407" y="82"/>
			<point x="415" y="55" type="curve" smooth="yes"/>
			<point x="426" y="19"/>
			<point x="431" y="0"/>
			<point x="481" y="0" type="curve" smooth="yes"/>
			<point x="549" y="0" type="line" smooth="yes"/>
			<point x="592" y="0"/>
			<point x="603" y="12"/>
			<point x="612" y="46" type="curve" smooth="yes"/>
			<point x="719" y="430" type="line"/>
			<point x="716" y="458"/>
			<point x="698" y="458"/>
			<point x="667" y="458" type="curve"/>
			<point x="667" y="458" type="line"/>
			<point x="620" y="458"/>
			<point x="608" y="455"/>
			<point x="594" y="403" type="curve" smooth="yes"/>
			<point x="584" y="367"/>
			<point x="569" y="314"/>
			<point x="554" y="262" type="curve" smooth="yes"/>
			<point x="537" y="202"/>
			<point x="521" y="143"/>
			<point x="513" y="113" type="curve"/>
			<point x="513" y="113" type="line"/>
			<point x="499" y="163"/>
			<point x="485" y="212"/>
			<point x="471" y="262" type="curve" smooth="yes"/>
			<point x="428" y="413" type="line" smooth="yes"/>
			<point x="422" y="435"/>
			<point x="415" y="458"/>
			<point x="369" y="458" type="curve"/>
			<point x="369" y="458" type="line"/>
			<point x="354" y="458"/>
			<point x="331" y="458"/>
			<point x="317" y="435" type="curve" smooth="yes"/>
			<point x="308" y="420"/>
			<point x="264" y="247"/>
			<point x="229" y="130" type="curve"/>
			<point x="229" y="130" type="line"/>
			<point x="218" y="171"/>
			<point x="206" y="213"/>
			<point x="194" y="254" type="curve" smooth="yes"/>
			<point x="149" y="413" type="line" smooth="yes"/>
			<point x="139" y="447"/>
			<point x="128" y="458"/>
			<point x="87" y="458" type="curve" smooth="yes"/>
			<point x="67" y="458" type="line" smooth="yes"/>
			<point x="48" y="458"/>
			<point x="27" y="458"/>
			<point x="24" y="430" type="curve"/>
		</contour>
	</outline>
</glyph>
<glyph name="x" format="2">
	<unicode hex="0078"/>
	<advance width="1000"/>
	<outline>
		<contour>
			<point x="384" y="474" type="line"/>
			<point x="68" y="84" type="line" smooth="yes"/>
			<point x="56" y="70"/>
			<point x="48" y="60"/>
			<point x="48" y="44" type="curve" smooth="yes"/>
			<point x="48" y="0"/>
			<point x="92" y="0"/>
			<point x="120" y="0" type="curve" smooth="yes"/>
			<point x="206" y="0" type="line" smooth="yes"/>
			<point x="272" y="0"/>
			<point x="276" y="6"/>
			<point x="320" y="72" type="curve" smooth="yes"/>
			<point x="492" y="328" type="line"/>
			<point x="696" y="40" type="line" smooth="yes"/>
			<point x="724" y="0"/>
			<point x="748" y="0"/>
			<point x="790" y="0" type="curve" smooth="yes"/>
			<point x="878" y="0" type="line" smooth="yes"/>
			<point x="906" y="0"/>
			<point x="948" y="0"/>
			<point x="948" y="44" type="curve" smooth="yes"/>
			<point x="948" y="60"/>
			<point x="940" y="68"/>
			<point x="926" y="86" type="curve" smooth="yes"/>
			<point x="602" y="474" type="line"/>
			<point x="892" y="830" type="line" smooth="yes"/>
			<point x="912" y="854"/>
			<point x="912" y="862"/>
			<point x="912" y="872" type="curve" smooth="yes"/>
			<point x="912" y="916"/>
			<point x="872" y="916"/>
			<point x="842" y="916" type="curve" smooth="yes"/>
			<point x="756" y="916" type="line" smooth="yes"/>
			<point x="720" y="916"/>
			<point x="696" y="916"/>
			<point x="668" y="886" type="curve" smooth="yes"/>
			<point x="658" y="876"/>
			<point x="528" y="702"/>
			<point x="494" y="656" type="curve"/>
			<point x="322" y="872" type="line" smooth="yes"/>
			<point x="288" y="914"/>
			<point x="266" y="916"/>
			<point x="220" y="916" type="curve" smooth="yes"/>
			<point x="132" y="916" type="line" smooth="yes"/>
			<point x="106" y="916"/>
			<point x="62" y="916"/>
			<point x="62" y="872" type="curve" smooth="yes"/>
			<point x="62" y="858"/>
			<point x="68" y="850"/>
			<point x="82" y="834" type="curve" smooth="yes"/>
		</contour>
	</outline>
</glyph>
<glyph name="y" format="2">
	<unicode hex="0079"/>
	<advance width="1000"/>
	<outline>
		<contour>
			<point x="936" y="822" type="line" smooth="yes"/>
			<point x="946" y="848"/>
			<point x="946" y="852"/>
			<point x="946" y="862" type="curve" smooth="yes"/>
			<point x="946" y="916"/>
			<point x="892" y="916"/>
			<point x="866" y="916" type="curve" smooth="yes"/>
			<point x="822" y="916" type="line" smooth="yes"/>
			<point x="790" y="916"/>
			<point x="746" y="916"/>
			<point x="716" y="870" type="curve" smooth="yes"/>
			<point x="710" y="860"/>
			<point x="548" y="418"/>
			<point x="538" y="284" type="curve"/>
			<point x="536" y="284" type="line"/>
			<point x="526" y="382"/>
			<point x="444" y="568"/>
			<point x="358" y="760" type="curve" smooth="yes"/>
			<point x="302" y="886"/>
			<point x="288" y="916"/>
			<point x="188" y="916" type="curve" smooth="yes"/>
			<point x="136" y="916" type="line" smooth="yes"/>
			<point x="108" y="916"/>
			<point x="58" y="916"/>
			<point x="58" y="864" type="curve" smooth="yes"/>
			<point x="58" y="856"/>
			<point x="64" y="842"/>
			<point x="68" y="832" type="curve" smooth="yes"/>
			<point x="446" y="0" type="line"/>
			<point x="430" y="-42"/>
			<point x="424" y="-64"/>
			<point x="418" y="-84" type="curve"/>
			<point x="394" y="-150"/>
			<point x="360" y="-240"/>
			<point x="252" y="-240" type="curve" smooth="yes"/>
			<point x="186" y="-240"/>
			<point x="140" y="-212"/>
			<point x="118" y="-198" type="curve" smooth="yes"/>
			<point x="108" y="-192"/>
			<point x="104" y="-190"/>
			<point x="98" y="-190" type="curve" smooth="yes"/>
			<point x="88" y="-190"/>
			<point x="72" y="-196"/>
			<point x="72" y="-220" type="curve" smooth="yes"/>
			<point x="72" y="-236"/>
			<point x="84" y="-374"/>
			<point x="90" y="-382" type="curve" smooth="yes"/>
			<point x="108" y="-406"/>
			<point x="216" y="-410"/>
			<point x="248" y="-410" type="curve" smooth="yes"/>
			<point x="496" y="-410"/>
			<point x="594" y="-174"/>
			<point x="610" y="-126" type="curve" smooth="yes"/>
		</contour>
	</outline>
</glyph>
<glyph name="z" format="2">
	<unicode hex="007A"/>
	<advance width="476"/>
	<outline>
		<contour>
			<point x="287" y="385" type="line"/>
			<point x="43" y="76" type="line" smooth="yes"/>
			<point x="33" y="63"/>
			<point x="31" y="58"/>
			<point x="31" y="42" type="curve"/>
			<point x="31" y="42" type="line"/>
			<point x="31" y="0"/>
			<point x="62" y="0"/>
			<point x="79" y="0" type="curve" smooth="yes"/>
			<point x="393" y="0" type="line" smooth="yes"/>
			<point x="406" y="0"/>
			<point x="441" y="0"/>
			<point x="441" y="37" type="curve"/>
			<point x="441" y="37" type="line"/>
			<point x="441" y="75"/>
			<point x="410" y="75"/>
			<point x="381" y="75" type="curve" smooth="yes"/>
			<point x="355.51" y="75"/>
			<point x="329.24031188" y="74.48020792"/>
			<point x="302.9859056472" y="73.9706037648" type="curve" smooth="yes"/>
			<point x="277.74088812" y="73.48059208"/>
			<point x="252.51" y="73"/>
			<point x="228" y="73" type="curve" smooth="yes"/>
			<point x="182" y="73" type="line"/>
			<point x="426" y="382" type="line" smooth="yes"/>
			<point x="436" y="395"/>
			<point x="438" y="400"/>
			<point x="438" y="416" type="curve"/>
			<point x="438" y="416" type="line"/>
			<point x="438" y="458"/>
			<point x="407" y="458"/>
			<point x="390" y="458" type="curve" smooth="yes"/>
			<point x="94" y="458" type="line" smooth="yes"/>
			<point x="81" y="458"/>
			<point x="46" y="458"/>
			<point x="46" y="420" type="curve"/>
			<point x="46" y="420" type="line"/>
			<point x="46" y="383"/>
			<point x="78" y="383"/>
			<point x="105" y="383" type="curve" smooth="yes"/>
			<point x="118.68288" y="383"/>
			<point x="141.3245871969" y="383.3656664162"/>
			<point x="165.2637117485" y="383.7842886428" type="curve" smooth="yes"/>
			<point x="197.3107528031" y="384.3446935838"/>
			<point x="231.68288" y="385"/>
			<point x="250" y="385" type="curve" smooth="yes"/>
		</contour>
	</outline>
</glyph>
<glyph name="exclamdown" format="2">
	<unicode hex="00A1"/>
	<advance width="732"/>
	<outline>
		<contour>
			<point x="480" y="192" type="curve" smooth="yes"/>
			<point x="478" y="240"/>
			<point x="474" y="406"/>
			<point x="472" y="558" type="curve" smooth="yes"/>
			<point x="472" y="606"/>
			<point x="470" y="608"/>
			<point x="416" y="608" type="curve" smooth="yes"/>
			<point x="318" y="608" type="line" smooth="yes"/>
			<point x="266" y="608"/>
			<point x="264" y="606"/>
			<point x="262" y="552" type="curve" smooth="yes"/>
			<point x="254" y="406"/>
			<point x="252" y="240"/>
			<point x="250" y="192" type="curve" smooth="yes"/>
			<point x="242" y="16"/>
			<point x="236" y="-198"/>
			<point x="236" y="-346" type="curve" smooth="yes"/>
			<point x="236" y="-388"/>
			<point x="246" y="-388"/>
			<point x="290" y="-388" type="curve" smooth="yes"/>
			<point x="444" y="-388" type="line" smooth="yes"/>
			<point x="488" y="-388"/>
			<point x="498" y="-388"/>
			<point x="498" y="-346" type="curve" smooth="yes"/>
			<point x="496" y="-194"/>
			<point x="484" y="18"/>
		</contour>
		<contour>
			<point x="498" y="904" type="line" smooth="yes"/>
			<point x="498" y="976"/>
			<point x="476" y="1000"/>
			<point x="402" y="1000" type="curve" smooth="yes"/>
			<point x="332" y="1000" type="line" smooth="yes"/>
			<point x="256" y="1000"/>
			<point x="236" y="974"/>
			<point x="236" y="904" type="curve" smooth="yes"/>
			<point x="236" y="834" type="line" smooth="yes"/>
			<point x="236" y="770"/>
			<point x="250" y="738"/>
			<point x="332" y="738" type="curve" smooth="yes"/>
			<point x="402" y="738" type="line" smooth="yes"/>
			<point x="478" y="738"/>
			<point x="498" y="764"/>
			<point x="498" y="834" type="curve" smooth="yes"/>
		</contour>
	</outline>
</glyph>
<glyph name="dieresis" format="2">
	<unicode hex="00A8"/>
	<advance width="1100"/>
	<outline>
		<contour>
			<point x="478" y="1274" type="line"/>
			<point x="478" y="1342"/>
			<point x="478" y="1390"/>
			<point x="382" y="1390" type="curve" smooth="yes"/>
			<point x="292" y="1390" type="line" smooth="yes"/>
			<point x="228" y="1390"/>
			<point x="196" y="1378"/>
			<point x="196" y="1298" type="curve" smooth="yes"/>
			<point x="196" y="1252" type="line" smooth="yes"/>
			<point x="196" y="1178"/>
			<point x="224" y="1160"/>
			<point x="292" y="1160" type="curve" smooth="yes"/>
			<point x="382" y="1160" type="line" smooth="yes"/>
			<point x="478" y="1160"/>
			<point x="478" y="1210"/>
			<point x="478" y="1274" type="curve"/>
		</contour>
		<contour>
			<point x="902" y="1298" type="line" smooth="yes"/>
			<point x="902" y="1372"/>
			<point x="874" y="1390"/>
			<point x="806" y="1390" type="curve" smooth="yes"/>
			<point x="716" y="1390" type="line" smooth="yes"/>
			<point x="620" y="1390"/>
			<point x="620" y="1340"/>
			<point x="620" y="1276" type="curve"/>
			<point x="620" y="1276" type="line"/>
			<point x="620" y="1208"/>
			<point x="620" y="1160"/>
			<point x="716" y="1160" type="curve" smooth="yes"/>
			<point x="806" y="1160" type="line" smooth="yes"/>
			<point x="870" y="1160"/>
			<point x="902" y="1172"/>
			<point x="902" y="1252" type="curve" smooth="yes"/>
		</contour>
	</outline>
</glyph>
<glyph name="macron" format="2">
	<unicode hex="00AF"/>
	<advance width="1100"/>
	<outline>
		<contour>
			<point x="946" y="1204" type="curve" smooth="yes"/>
			<point x="946" y="1266" type="line" smooth="yes"/>
			<point x="946" y="1318"/>
			<point x="944" y="1320"/>
			<point x="892" y="1320" type="curve" smooth="yes"/>
			<point x="206" y="1320" type="line" smooth="yes"/>
			<point x="154" y="1320"/>
			<point x="152" y="1318"/>
			<point x="152" y="1266" type="curve" smooth="yes"/>
			<point x="152" y="1204" type="line" smooth="yes"/>
			<point x="152" y="1152"/>
			<point x="154" y="1150"/>
			<point x="206" y="1150" type="curve" smooth="yes"/>
			<point x="892" y="1150" type="line" smooth="yes"/>
			<point x="944" y="1150"/>
			<point x="946" y="1152"/>
		</contour>
	</outline>
</glyph>
<glyph name="acute" format="2">
	<unicode hex="00B4"/>
	<advance width="550"/>
	<outline>
		<contour>
			<point x="446" y="666" type="line" smooth="yes"/>
			<point x="451" y="670"/>
			<point x="457" y="675"/>
			<point x="457" y="681" type="curve" smooth="yes"/>
			<point x="457" y="694"/>
			<point x="446" y="694"/>
			<point x="430" y="694" type="curve" smooth="yes"/>
			<point x="348" y="694" type="line" smooth="yes"/>
			<point x="328" y="694"/>
			<point x="326" y="693"/>
			<point x="318" y="682" type="curve" smooth="yes"/>
			<point x="232" y="565" type="line" smooth="yes"/>
			<point x="224" y="554"/>
			<point x="223" y="552"/>
			<point x="223" y="550" type="curve" smooth="yes"/>
			<point x="223" y="537"/>
			<point x="234" y="537"/>
			<point x="250" y="537" type="curve" smooth="yes"/>
			<point x="280" y="537" type="line" smooth="yes"/>
			<point x="285" y="537"/>
			<point x="288" y="538"/>
			<point x="293" y="542" type="curve" smooth="yes"/>
		</contour>
	</outline>
</glyph>
<glyph name="cedilla" format="2">
	<unicode hex="00B8"/>
	<advance width="976"/>
	<outline>
		<contour>
			<point x="610" y="-106" type="line" smooth="yes"/>
			<point x="620" y="-80"/>
			<point x="620" y="-76"/>
			<point x="620" y="-74" type="curve" smooth="yes"/>
			<point x="620" y="-48"/>
			<point x="600" y="-48"/>
			<point x="568" y="-48" type="curve" smooth="yes"/>
			<point x="532" y="-48" type="line" smooth="yes"/>
			<point x="490" y="-48"/>
			<point x="488" y="-50"/>
			<point x="462" y="-90" type="curve" smooth="yes"/>
			<point x="408" y="-172"/>
			<point x="358" y="-250"/>
			<point x="306" y="-334" type="curve" smooth="yes"/>
			<point x="298" y="-346"/>
			<point x="294" y="-356"/>
			<point x="294" y="-362" type="curve" smooth="yes"/>
			<point x="294" y="-380"/>
			<point x="314" y="-384"/>
			<point x="334" y="-384" type="curve" smooth="yes"/>
			<point x="446" y="-384" type="line" smooth="yes"/>
			<point x="490" y="-384"/>
			<point x="492" y="-384"/>
			<point x="508" y="-348" type="curve" smooth="yes"/>
		</contour>
	</outline>
</glyph>
<glyph name="questiondown" format="2">
	<unicode hex="00BF"/>
	<advance width="1038"/>
	<outline>
		<contour>
			<point x="618" y="834" type="curve" smooth="yes"/>
			<point x="618" y="904" type="line" smooth="yes"/>
			<point x="618" y="968"/>
			<point x="604" y="1000"/>
			<point x="522" y="1000" type="curve" smooth="yes"/>
			<point x="452" y="1000" type="line" smooth="yes"/>
			<point x="380" y="1000"/>
			<point x="356" y="978"/>
			<point x="356" y="904" type="curve" smooth="yes"/>
			<point x="356" y="834" type="line" smooth="yes"/>
			<point x="356" y="770"/>
			<point x="370" y="738"/>
			<point x="452" y="738" type="curve" smooth="yes"/>
			<point x="522" y="738" type="line" smooth="yes"/>
			<point x="598" y="738"/>
			<point x="618" y="764"/>
		</contour>
		<contour>
			<point x="122" y="-108" type="curve" smooth="yes"/>
			<point x="122" y="-398"/>
			<point x="362" y="-410"/>
			<point x="484" y="-410" type="curve" smooth="yes"/>
			<point x="622" y="-410"/>
			<point x="738" y="-382"/>
			<point x="854" y="-330" type="curve" smooth="yes"/>
			<point x="912" y="-304"/>
			<point x="914" y="-302"/>
			<point x="914" y="-284" type="curve" smooth="yes"/>
			<point x="914" y="-272"/>
			<point x="876" y="-174"/>
			<point x="868" y="-154" type="curve" smooth="yes"/>
			<point x="858" y="-130"/>
			<point x="856" y="-120"/>
			<point x="838" y="-120" type="curve" smooth="yes"/>
			<point x="828" y="-120"/>
			<point x="826" y="-120"/>
			<point x="818" y="-128" type="curve" smooth="yes"/>
			<point x="776" y="-168"/>
			<point x="666" y="-266"/>
			<point x="492" y="-266" type="curve" smooth="yes"/>
			<point x="400" y="-266"/>
			<point x="394" y="-232"/>
			<point x="394" y="-116" type="curve" smooth="yes"/>
			<point x="394" y="-24"/>
			<point x="402" y="-8"/>
			<point x="428" y="34" type="curve" smooth="yes"/>
			<point x="582" y="278"/>
			<point x="592" y="394"/>
			<point x="592" y="522" type="curve" smooth="yes"/>
			<point x="592" y="574" type="line" smooth="yes"/>
			<point x="592" y="606"/>
			<point x="579" y="608"/>
			<point x="536" y="608" type="curve" smooth="yes"/>
			<point x="438" y="608" type="line" smooth="yes"/>
			<point x="384" y="608"/>
			<point x="382" y="606"/>
			<point x="382" y="554" type="curve" smooth="yes"/>
			<point x="382" y="496" type="line" smooth="yes"/>
			<point x="382" y="378"/>
			<point x="348" y="236"/>
			<point x="210" y="120" type="curve" smooth="yes"/>
			<point x="128" y="50"/>
			<point x="122" y="-60"/>
		</contour>
	</outline>
</glyph>
<glyph name="AE" format="2">
  <advance width="947"/>
  <unicode hex="00C6"/>
  <outline>
    <contour>
      <point x="248" y="192" type="line"/>
      <point x="461" y="192" type="line"/>
      <point x="461" y="48" type="line" smooth="yes"/>
      <point x="461" y="12"/>
      <point x="472" y="0"/>
      <point x="509" y="0" type="curve" smooth="yes"/>
      <point x="852" y="0" type="line" smooth="yes"/>
      <point x="890" y="0"/>
      <point x="900" y="13"/>
      <point x="900" y="48" type="curve" smooth="yes"/>
      <point x="900" y="62" type="line" smooth="yes"/>
      <point x="900" y="110"/>
      <point x="876" y="110"/>
      <point x="847" y="110" type="curve" smooth="yes"/>
      <point x="784" y="110"/>
      <point x="721" y="107"/>
      <point x="658" y="107" type="curve" smooth="yes"/>
      <point x="607" y="107" type="line"/>
      <point x="607" y="312" type="line"/>
      <point x="806" y="312" type="line" smooth="yes"/>
      <point x="837" y="312"/>
      <point x="854" y="319"/>
      <point x="854" y="359" type="curve" smooth="yes"/>
      <point x="854" y="396"/>
      <point x="841" y="406"/>
      <point x="806" y="406" type="curve" smooth="yes"/>
      <point x="607" y="406" type="line"/>
      <point x="607" y="593" type="line"/>
      <point x="632" y="593" type="line" smooth="yes"/>
      <point x="698" y="593"/>
      <point x="765" y="590"/>
      <point x="831" y="590" type="curve" smooth="yes"/>
      <point x="861" y="590"/>
      <point x="885" y="590"/>
      <point x="885" y="638" type="curve" smooth="yes"/>
      <point x="885" y="646" type="line" smooth="yes"/>
      <point x="885" y="678"/>
      <point x="878" y="694"/>
      <point x="837" y="694" type="curve" smooth="yes"/>
      <point x="366" y="694" type="line" smooth="yes"/>
      <point x="333" y="694"/>
      <point x="314" y="687"/>
      <point x="300" y="652" type="curve" smooth="yes"/>
      <point x="49" y="44" type="line" smooth="yes"/>
      <point x="45" y="34"/>
      <point x="44" y="31"/>
      <point x="44" y="26" type="curve" smooth="yes"/>
      <point x="44" y="0"/>
      <point x="69" y="0"/>
      <point x="82" y="0" type="curve" smooth="yes"/>
      <point x="119" y="0" type="line" smooth="yes"/>
      <point x="148" y="0"/>
      <point x="170" y="3"/>
      <point x="186" y="43" type="curve" smooth="yes"/>
    </contour>
    <contour>
      <point x="414" y="594" type="line"/>
      <point x="461" y="594" type="line"/>
      <point x="461" y="278" type="line"/>
      <point x="283" y="278" type="line"/>
    </contour>
  </outline>
</glyph>
<glyph name="Oslash" format="2">
	<unicode hex="00D8"/>
	<advance width="1710"/>
	<outline>
		<contour>
			<point x="542" y="-2" type="line"/>
			<point x="688" y="-44"/>
			<point x="806" y="-44"/>
			<point x="854" y="-44" type="curve" smooth="yes"/>
			<point x="1332" y="-44"/>
			<point x="1588" y="186"/>
			<point x="1588" y="684" type="curve" smooth="yes"/>
			<point x="1588" y="814"/>
			<point x="1576" y="1156"/>
			<point x="1310" y="1322" type="curve"/>
			<point x="1324" y="1348"/>
			<point x="1338" y="1374"/>
			<point x="1354" y="1398" type="curve"/>
			<point x="1382" y="1446"/>
			<point x="1392" y="1462"/>
			<point x="1392" y="1482" type="curve" smooth="yes"/>
			<point x="1392" y="1538"/>
			<point x="1336" y="1560"/>
			<point x="1308" y="1560" type="curve" smooth="yes"/>
			<point x="1268" y="1560"/>
			<point x="1254" y="1536"/>
			<point x="1226" y="1488" type="curve" smooth="yes"/>
			<point x="1166" y="1388" type="line"/>
			<point x="1034" y="1430"/>
			<point x="916" y="1432"/>
			<point x="856" y="1432" type="curve" smooth="yes"/>
			<point x="364" y="1432"/>
			<point x="122" y="1180"/>
			<point x="122" y="684" type="curve" smooth="yes"/>
			<point x="122" y="328"/>
			<point x="250" y="162"/>
			<point x="398" y="64" type="curve"/>
			<point x="372" y="20"/>
			<point x="372" y="16"/>
			<point x="354" y="-12" type="curve"/>
			<point x="326" y="-62"/>
			<point x="318" y="-74"/>
			<point x="318" y="-94" type="curve" smooth="yes"/>
			<point x="318" y="-150"/>
			<point x="374" y="-172"/>
			<point x="402" y="-172" type="curve" smooth="yes"/>
			<point x="442" y="-172"/>
			<point x="458" y="-148"/>
			<point x="484" y="-100" type="curve" smooth="yes"/>
		</contour>
		<contour>
			<point x="496" y="232" type="line"/>
			<point x="394" y="352"/>
			<point x="382" y="512"/>
			<point x="382" y="686" type="curve" smooth="yes"/>
			<point x="382" y="902"/>
			<point x="388" y="1288"/>
			<point x="854" y="1288" type="curve" smooth="yes"/>
			<point x="930" y="1288"/>
			<point x="1012" y="1276"/>
			<point x="1084" y="1246" type="curve"/>
		</contour>
		<contour>
			<point x="1212" y="1152" type="line"/>
			<point x="1320" y="1026"/>
			<point x="1328" y="840"/>
			<point x="1328" y="686" type="curve" smooth="yes"/>
			<point x="1328" y="464"/>
			<point x="1320" y="100"/>
			<point x="856" y="100" type="curve" smooth="yes"/>
			<point x="826" y="100"/>
			<point x="724" y="100"/>
			<point x="624" y="140" type="curve"/>
		</contour>
	</outline>
</glyph>
<glyph name="germandbls" format="2">
	<unicode hex="00DF"/>
	<advance width="565"/>
	<outline>
		<contour>
			<point x="428" y="420" type="curve"/>
			<point x="494" y="460"/>
			<point x="503" y="529"/>
			<point x="503" y="562" type="curve" smooth="yes"/>
			<point x="503" y="705"/>
			<point x="331" y="705"/>
			<point x="282" y="705" type="curve" smooth="yes"/>
			<point x="226" y="705"/>
			<point x="61" y="705"/>
			<point x="61" y="558" type="curve" smooth="yes"/>
			<point x="61" y="48" type="line" smooth="yes"/>
			<point x="61" y="12"/>
			<point x="72" y="0"/>
			<point x="109" y="0" type="curve" smooth="yes"/>
			<point x="146" y="0" type="line" smooth="yes"/>
			<point x="184" y="0"/>
			<point x="194" y="13"/>
			<point x="194" y="48" type="curve" smooth="yes"/>
			<point x="194" y="557" type="line" smooth="yes"/>
			<point x="194" y="604"/>
			<point x="203" y="633"/>
			<point x="281" y="633" type="curve" smooth="yes"/>
			<point x="353" y="633"/>
			<point x="368" y="610"/>
			<point x="368" y="560" type="curve" smooth="yes"/>
			<point x="368" y="467"/>
			<point x="318" y="460"/>
			<point x="268" y="458" type="curve" smooth="yes"/>
			<point x="255" y="457"/>
			<point x="255" y="447"/>
			<point x="255" y="431" type="curve" smooth="yes"/>
			<point x="255" y="413" type="line" smooth="yes"/>
			<point x="255" y="392"/>
			<point x="255" y="387"/>
			<point x="272" y="386" type="curve" smooth="yes"/>
			<point x="380" y="378"/>
			<point x="398" y="296"/>
			<point x="398" y="186" type="curve" smooth="yes"/>
			<point x="398" y="134"/>
			<point x="398" y="61"/>
			<point x="321" y="61" type="curve" smooth="yes"/>
			<point x="316" y="61"/>
			<point x="292" y="61"/>
			<point x="265" y="74" type="curve"/>
			<point x="262" y="75"/>
			<point x="258" y="77"/>
			<point x="255" y="77" type="curve" smooth="yes"/>
			<point x="246" y="77"/>
			<point x="244" y="73"/>
			<point x="237" y="53" type="curve" smooth="yes"/>
			<point x="233" y="41"/>
			<point x="226" y="24"/>
			<point x="226" y="20" type="curve" smooth="yes"/>
			<point x="226" y="1"/>
			<point x="287" y="-11"/>
			<point x="326" y="-11" type="curve" smooth="yes"/>
			<point x="456" y="-11"/>
			<point x="533" y="51"/>
			<point x="533" y="186" type="curve" smooth="yes"/>
			<point x="533" y="265"/>
			<point x="515" y="365"/>
		</contour>
	</outline>
</glyph>
<glyph name="oslash" format="2">
	<unicode hex="00F8"/>
	<advance width="550"/>
	<outline>
		<contour>
			<point x="485" y="529" type="line" smooth="yes"/>
			<point x="494" y="545"/>
			<point x="494" y="554"/>
			<point x="494" y="556" type="curve" smooth="yes"/>
			<point x="494" y="577"/>
			<point x="477" y="592"/>
			<point x="458" y="592" type="curve" smooth="yes"/>
			<point x="439" y="592"/>
			<point x="429" y="579"/>
			<point x="423" y="568" type="curve" smooth="yes"/>
			<point x="365" y="464" type="line"/>
			<point x="326" y="475"/>
			<point x="283" y="475"/>
			<point x="274" y="475" type="curve" smooth="yes"/>
			<point x="105" y="475"/>
			<point x="31" y="382"/>
			<point x="31" y="225" type="curve" smooth="yes"/>
			<point x="31" y="167"/>
			<point x="41" y="76"/>
			<point x="119" y="27" type="curve"/>
			<point x="69" y="-63" type="line" smooth="yes"/>
			<point x="58" y="-82"/>
			<point x="55" y="-87"/>
			<point x="55" y="-97" type="curve" smooth="yes"/>
			<point x="55" y="-118"/>
			<point x="72" y="-133"/>
			<point x="91" y="-133" type="curve" smooth="yes"/>
			<point x="112" y="-133"/>
			<point x="118" y="-121"/>
			<point x="130" y="-100" type="curve" smooth="yes"/>
			<point x="146" y="-74"/>
			<point x="168" y="-35"/>
			<point x="186" y="-2" type="curve"/>
			<point x="225" y="-11"/>
			<point x="268" y="-11"/>
			<point x="274" y="-11" type="curve" smooth="yes"/>
			<point x="431" y="-11"/>
			<point x="518" y="61"/>
			<point x="518" y="225" type="curve" smooth="yes"/>
			<point x="518" y="309"/>
			<point x="497" y="388"/>
			<point x="431" y="434" type="curve"/>
		</contour>
		<contour>
			<point x="168" y="114" type="line"/>
			<point x="151" y="145"/>
			<point x="151" y="184"/>
			<point x="151" y="226" type="curve" smooth="yes"/>
			<point x="151" y="300"/>
			<point x="151" y="403"/>
			<point x="275" y="403" type="curve" smooth="yes"/>
			<point x="300" y="403"/>
			<point x="320" y="397"/>
			<point x="326" y="395" type="curve"/>
		</contour>
		<contour>
			<point x="381" y="345" type="line"/>
			<point x="398" y="309"/>
			<point x="398" y="266"/>
			<point x="398" y="226" type="curve" smooth="yes"/>
			<point x="398" y="151"/>
			<point x="398" y="61"/>
			<point x="274" y="61" type="curve" smooth="yes"/>
			<point x="269" y="61"/>
			<point x="248" y="61"/>
			<point x="225" y="67" type="curve"/>
		</contour>
	</outline>
</glyph>
<glyph name="dotlessi" format="2">
	<unicode hex="0131"/>
	<advance width="255"/>
	<outline>
		<contour>
			<point x="61" y="410" type="curve" smooth="yes"/>
			<point x="61" y="48" type="line" smooth="yes"/>
			<point x="61" y="12"/>
			<point x="72" y="0"/>
			<point x="109" y="0" type="curve" smooth="yes"/>
			<point x="146" y="0" type="line" smooth="yes"/>
			<point x="184" y="0"/>
			<point x="194" y="13"/>
			<point x="194" y="48" type="curve" smooth="yes"/>
			<point x="194" y="410" type="line" smooth="yes"/>
			<point x="194" y="442"/>
			<point x="187" y="458"/>
			<point x="146" y="458" type="curve" smooth="yes"/>
			<point x="109" y="458" type="line" smooth="yes"/>
			<point x="73" y="458"/>
			<point x="61" y="447"/>
		</contour>
	</outline>
</glyph>
<glyph name="OE" format="2">
	<unicode hex="0152"/>
	<advance width="2138"/>
	<outline>
		<contour>
			<point x="782" y="-44" type="curve" smooth="yes"/>
			<point x="824" y="-44"/>
			<point x="860" y="-44"/>
			<point x="994" y="-22" type="curve" smooth="yes"/>
			<point x="1070" y="-8"/>
			<point x="1124" y="0"/>
			<point x="1184" y="0" type="curve" smooth="yes"/>
			<point x="1948" y="0" type="line" smooth="yes"/>
			<point x="2024" y="0"/>
			<point x="2044" y="26"/>
			<point x="2044" y="96" type="curve" smooth="yes"/>
			<point x="2044" y="124" type="line" smooth="yes"/>
			<point x="2044" y="220"/>
			<point x="1998" y="220"/>
			<point x="1932" y="220" type="curve" smooth="yes"/>
			<point x="1798" y="218"/>
			<point x="1434" y="216"/>
			<point x="1328" y="212" type="curve"/>
			<point x="1328" y="624" type="line"/>
			<point x="1856" y="624" type="line" smooth="yes"/>
			<point x="1918" y="624"/>
			<point x="1952" y="638"/>
			<point x="1952" y="718" type="curve"/>
			<point x="1952" y="718" type="line"/>
			<point x="1952" y="792"/>
			<point x="1926" y="812"/>
			<point x="1856" y="812" type="curve" smooth="yes"/>
			<point x="1328" y="812" type="line"/>
			<point x="1328" y="1186" type="line"/>
			<point x="1584" y="1186"/>
			<point x="1742" y="1180"/>
			<point x="1898" y="1180" type="curve" smooth="yes"/>
			<point x="1968" y="1180"/>
			<point x="2014" y="1180"/>
			<point x="2014" y="1276" type="curve" smooth="yes"/>
			<point x="2014" y="1292" type="line" smooth="yes"/>
			<point x="2014" y="1356"/>
			<point x="2000" y="1388"/>
			<point x="1918" y="1388" type="curve" smooth="yes"/>
			<point x="1184" y="1388" type="line" smooth="yes"/>
			<point x="1146" y="1388"/>
			<point x="1106" y="1390"/>
			<point x="970" y="1412" type="curve" smooth="yes"/>
			<point x="860" y="1432"/>
			<point x="820" y="1432"/>
			<point x="784" y="1432" type="curve" smooth="yes"/>
			<point x="278" y="1432"/>
			<point x="60" y="1152"/>
			<point x="60" y="684" type="curve" smooth="yes"/>
			<point x="60" y="224"/>
			<point x="284" y="-44"/>
		</contour>
		<contour>
			<point x="802" y="100" type="curve" smooth="yes"/>
			<point x="360" y="100"/>
			<point x="348" y="540"/>
			<point x="348" y="718" type="curve" smooth="yes"/>
			<point x="348" y="888"/>
			<point x="360" y="1288"/>
			<point x="800" y="1288" type="curve" smooth="yes"/>
			<point x="960" y="1288"/>
			<point x="1010" y="1248"/>
			<point x="1030" y="1104" type="curve" smooth="yes"/>
			<point x="1038" y="1042"/>
			<point x="1038" y="882"/>
			<point x="1038" y="694" type="curve" smooth="yes"/>
			<point x="1038" y="619"/>
			<point x="1038" y="545"/>
			<point x="1038" y="470" type="curve" smooth="yes"/>
			<point x="1036" y="170"/>
			<point x="1010" y="100"/>
		</contour>
	</outline>
</glyph>
<glyph name="oe" format="2">
	<unicode hex="0153"/>
	<advance width="1710"/>
	<outline>
		<contour>
			<point x="556" y="-22" type="curve" smooth="yes"/>
			<point x="660" y="-22"/>
			<point x="812" y="-6"/>
			<point x="918" y="94" type="curve"/>
			<point x="996" y="28"/>
			<point x="1106" y="-22"/>
			<point x="1280" y="-22" type="curve" smooth="yes"/>
			<point x="1382" y="-22"/>
			<point x="1478" y="-2"/>
			<point x="1580" y="54" type="curve" smooth="yes"/>
			<point x="1636" y="82"/>
			<point x="1636" y="90"/>
			<point x="1636" y="106" type="curve" smooth="yes"/>
			<point x="1636" y="120"/>
			<point x="1630" y="178"/>
			<point x="1628" y="194" type="curve" smooth="yes"/>
			<point x="1620" y="256"/>
			<point x="1618" y="258"/>
			<point x="1600" y="258" type="curve" smooth="yes"/>
			<point x="1588" y="258"/>
			<point x="1584" y="254"/>
			<point x="1568" y="238" type="curve" smooth="yes"/>
			<point x="1486" y="156"/>
			<point x="1380" y="122"/>
			<point x="1290" y="122" type="curve" smooth="yes"/>
			<point x="1098" y="122"/>
			<point x="1058" y="270"/>
			<point x="1052" y="428" type="curve"/>
			<point x="1552" y="428" type="line" smooth="yes"/>
			<point x="1614" y="428"/>
			<point x="1648" y="442"/>
			<point x="1648" y="522" type="curve" smooth="yes"/>
			<point x="1648" y="786"/>
			<point x="1526" y="950"/>
			<point x="1254" y="950" type="curve" smooth="yes"/>
			<point x="1160" y="950"/>
			<point x="1020" y="934"/>
			<point x="916" y="838" type="curve"/>
			<point x="810" y="930"/>
			<point x="670" y="950"/>
			<point x="556" y="950" type="curve" smooth="yes"/>
			<point x="226" y="950"/>
			<point x="62" y="784"/>
			<point x="62" y="464" type="curve" smooth="yes"/>
			<point x="62" y="134"/>
			<point x="238" y="-22"/>
		</contour>
		<contour>
			<point x="554" y="122" type="curve" smooth="yes"/>
			<point x="322" y="122"/>
			<point x="322" y="328"/>
			<point x="322" y="472" type="curve" smooth="yes"/>
			<point x="322" y="618"/>
			<point x="322" y="806"/>
			<point x="554" y="806" type="curve" smooth="yes"/>
			<point x="780" y="806"/>
			<point x="780" y="618"/>
			<point x="780" y="474" type="curve" smooth="yes"/>
			<point x="780" y="326"/>
			<point x="780" y="122"/>
		</contour>
		<contour>
			<point x="1054" y="534" type="line"/>
			<point x="1058" y="620"/>
			<point x="1080" y="806"/>
			<point x="1254" y="806" type="curve" smooth="yes"/>
			<point x="1408" y="806"/>
			<point x="1416" y="650"/>
			<point x="1420" y="534" type="curve"/>
		</contour>
	</outline>
</glyph>
<glyph name="dotlessj" format="2">
	<unicode hex="0237"/>
	<advance width="286"/>
	<outline>
		<contour>
			<point x="91" y="-55" type="line" smooth="yes"/>
			<point x="91" y="-81"/>
			<point x="91" y="-121"/>
			<point x="29" y="-121" type="curve" smooth="yes"/>
			<point x="17" y="-121"/>
			<point x="-10" y="-119"/>
			<point x="-31" y="-106" type="curve" smooth="yes"/>
			<point x="-41" y="-100"/>
			<point x="-43" y="-99"/>
			<point x="-46" y="-99" type="curve" smooth="yes"/>
			<point x="-52" y="-99"/>
			<point x="-55" y="-101"/>
			<point x="-58" y="-111" type="curve" smooth="yes"/>
			<point x="-68" y="-145" type="line" smooth="yes"/>
			<point x="-70" y="-152"/>
			<point x="-71" y="-155"/>
			<point x="-71" y="-158" type="curve" smooth="yes"/>
			<point x="-71" y="-177"/>
			<point x="12" y="-205"/>
			<point x="75" y="-205" type="curve" smooth="yes"/>
			<point x="185" y="-205"/>
			<point x="224" y="-131"/>
			<point x="224" y="-32" type="curve" smooth="yes"/>
			<point x="224" y="410" type="line" smooth="yes"/>
			<point x="224" y="442"/>
			<point x="217" y="458"/>
			<point x="176" y="458" type="curve" smooth="yes"/>
			<point x="139" y="458" type="line" smooth="yes"/>
			<point x="101" y="458"/>
			<point x="91" y="445"/>
			<point x="91" y="410" type="curve" smooth="yes"/>
		</contour>
	</outline>
</glyph>
<glyph name="circumflex" format="2">
	<unicode hex="02C6"/>
	<advance width="1100"/>
	<outline>
		<contour>
			<point x="666" y="1366" type="line" smooth="yes"/>
			<point x="648" y="1386"/>
			<point x="646" y="1388"/>
			<point x="608" y="1388" type="curve" smooth="yes"/>
			<point x="490" y="1388" type="line" smooth="yes"/>
			<point x="452" y="1388"/>
			<point x="448" y="1388"/>
			<point x="430" y="1366" type="curve" smooth="yes"/>
			<point x="234" y="1130" type="line" smooth="yes"/>
			<point x="216" y="1110"/>
			<point x="216" y="1104"/>
			<point x="216" y="1098" type="curve" smooth="yes"/>
			<point x="216" y="1074"/>
			<point x="240" y="1074"/>
			<point x="270" y="1074" type="curve" smooth="yes"/>
			<point x="316" y="1074" type="line" smooth="yes"/>
			<point x="340" y="1074"/>
			<point x="346" y="1076"/>
			<point x="366" y="1092" type="curve" smooth="yes"/>
			<point x="550" y="1240" type="line"/>
			<point x="732" y="1092" type="line" smooth="yes"/>
			<point x="752" y="1076"/>
			<point x="756" y="1074"/>
			<point x="792" y="1074" type="curve" smooth="yes"/>
			<point x="828" y="1074" type="line" smooth="yes"/>
			<point x="858" y="1074"/>
			<point x="882" y="1074"/>
			<point x="882" y="1098" type="curve" smooth="yes"/>
			<point x="882" y="1108"/>
			<point x="880" y="1110"/>
			<point x="866" y="1126" type="curve" smooth="yes"/>
		</contour>
	</outline>
</glyph>
<glyph name="caron" format="2">
  <advance width="550"/>
  <unicode hex="02C7"/>
  <outline>
    <contour>
      <point x="432" y="629" type="line" smooth="yes"/>
      <point x="441" y="639"/>
      <point x="441" y="642"/>
      <point x="441" y="645" type="curve" smooth="yes"/>
      <point x="441" y="657"/>
      <point x="429" y="657"/>
      <point x="414" y="657" type="curve" smooth="yes"/>
      <point x="377" y="657" type="line"/>
      <point x="274" y="574" type="line"/>
      <point x="183" y="648" type="line"/>
      <point x="173" y="657"/>
      <point x="171" y="657"/>
      <point x="153" y="657" type="curve" smooth="yes"/>
      <point x="135" y="657" type="line" smooth="yes"/>
      <point x="120" y="657"/>
      <point x="108" y="657"/>
      <point x="108" y="645" type="curve" smooth="yes"/>
      <point x="108" y="640"/>
      <point x="109" y="639"/>
      <point x="116" y="631" type="curve" smooth="yes"/>
      <point x="215" y="512" type="line" smooth="yes"/>
      <point x="225" y="501"/>
      <point x="226" y="500"/>
      <point x="245" y="500" type="curve" smooth="yes"/>
      <point x="304" y="500" type="line" smooth="yes"/>
      <point x="324" y="500"/>
      <point x="325" y="500"/>
      <point x="333" y="510" type="curve" smooth="yes"/>
    </contour>
  </outline>
</glyph>
<glyph name="breve" format="2">
	<unicode hex="02D8"/>
	<advance width="1100"/>
	<outline>
		<contour>
			<point x="548" y="1104" type="curve" smooth="yes"/>
			<point x="642" y="1104"/>
			<point x="926" y="1104"/>
			<point x="926" y="1312" type="curve" smooth="yes"/>
			<point x="926" y="1366"/>
			<point x="884" y="1388"/>
			<point x="854" y="1388" type="curve"/>
			<point x="854" y="1388" type="line"/>
			<point x="842" y="1388"/>
			<point x="788" y="1384"/>
			<point x="782" y="1316" type="curve"/>
			<point x="730" y="1290"/>
			<point x="648" y="1290"/>
			<point x="550" y="1290" type="curve" smooth="yes"/>
			<point x="448" y="1290"/>
			<point x="368" y="1290"/>
			<point x="316" y="1316" type="curve"/>
			<point x="310" y="1384"/>
			<point x="256" y="1388"/>
			<point x="244" y="1388" type="curve"/>
			<point x="244" y="1388" type="line"/>
			<point x="212" y="1388"/>
			<point x="172" y="1364"/>
			<point x="172" y="1312" type="curve" smooth="yes"/>
			<point x="172" y="1104"/>
			<point x="458" y="1104"/>
		</contour>
	</outline>
</glyph>
<glyph name="dotaccent" format="2">
	<unicode hex="02D9"/>
	<advance width="610"/>
	<outline>
		<contour>
			<point x="356" y="1390" type="curve" smooth="yes"/>
			<point x="254" y="1390" type="line" smooth="yes"/>
			<point x="178" y="1390"/>
			<point x="158" y="1364"/>
			<point x="158" y="1294" type="curve" smooth="yes"/>
			<point x="158" y="1256" type="line" smooth="yes"/>
			<point x="158" y="1198"/>
			<point x="168" y="1160"/>
			<point x="254" y="1160" type="curve" smooth="yes"/>
			<point x="356" y="1160" type="line" smooth="yes"/>
			<point x="440" y="1160"/>
			<point x="452" y="1196"/>
			<point x="452" y="1256" type="curve" smooth="yes"/>
			<point x="452" y="1294" type="line" smooth="yes"/>
			<point x="452" y="1358"/>
			<point x="438" y="1390"/>
		</contour>
	</outline>
</glyph>
<glyph name="ring" format="2">
	<unicode hex="02DA"/>
	<advance width="1466"/>
	<outline>
		<contour>
			<point x="978" y="1230" type="curve" smooth="yes"/>
			<point x="978" y="1388"/>
			<point x="788" y="1388"/>
			<point x="732" y="1388" type="curve" smooth="yes"/>
			<point x="678" y="1388"/>
			<point x="486" y="1388"/>
			<point x="486" y="1232" type="curve" smooth="yes"/>
			<point x="486" y="1074"/>
			<point x="676" y="1074"/>
			<point x="732" y="1074" type="curve" smooth="yes"/>
			<point x="786" y="1074"/>
			<point x="978" y="1074"/>
		</contour>
		<contour>
			<point x="732" y="1154" type="curve" smooth="yes"/>
			<point x="660" y="1154"/>
			<point x="610" y="1160"/>
			<point x="610" y="1230" type="curve" smooth="yes"/>
			<point x="610" y="1300"/>
			<point x="654" y="1308"/>
			<point x="732" y="1308" type="curve" smooth="yes"/>
			<point x="804" y="1308"/>
			<point x="854" y="1302"/>
			<point x="854" y="1232" type="curve" smooth="yes"/>
			<point x="854" y="1162"/>
			<point x="810" y="1154"/>
		</contour>
	</outline>
</glyph>
<glyph name="tilde" format="2">
	<unicode hex="02DC"/>
	<advance width="1100"/>
	<outline>
		<contour>
			<point x="694" y="1270" type="curve" smooth="yes"/>
			<point x="662" y="1270"/>
			<point x="630" y="1292"/>
			<point x="600" y="1314" type="curve" smooth="yes"/>
			<point x="556" y="1344"/>
			<point x="494" y="1388"/>
			<point x="404" y="1388" type="curve" smooth="yes"/>
			<point x="262" y="1388"/>
			<point x="184" y="1258"/>
			<point x="184" y="1160" type="curve" smooth="yes"/>
			<point x="184" y="1126"/>
			<point x="200" y="1126"/>
			<point x="238" y="1126" type="curve" smooth="yes"/>
			<point x="274" y="1126" type="line" smooth="yes"/>
			<point x="314" y="1126"/>
			<point x="324" y="1126"/>
			<point x="328" y="1156" type="curve" smooth="yes"/>
			<point x="336" y="1234"/>
			<point x="384" y="1244"/>
			<point x="404" y="1244" type="curve" smooth="yes"/>
			<point x="436" y="1244"/>
			<point x="468" y="1222"/>
			<point x="498" y="1200" type="curve" smooth="yes"/>
			<point x="542" y="1170"/>
			<point x="604" y="1126"/>
			<point x="694" y="1126" type="curve" smooth="yes"/>
			<point x="836" y="1126"/>
			<point x="914" y="1256"/>
			<point x="914" y="1354" type="curve" smooth="yes"/>
			<point x="914" y="1388"/>
			<point x="900" y="1388"/>
			<point x="860" y="1388" type="curve" smooth="yes"/>
			<point x="824" y="1388" type="line" smooth="yes"/>
			<point x="784" y="1388"/>
			<point x="774" y="1388"/>
			<point x="770" y="1358" type="curve" smooth="yes"/>
			<point x="762" y="1280"/>
			<point x="714" y="1270"/>
		</contour>
	</outline>
</glyph>
<glyph name="hungarumlaut" format="2">
	<unicode hex="02DD"/>
	<advance width="550"/>
	<outline>
		<contour>
			<point x="266" y="665" type="line" smooth="yes"/>
			<point x="274" y="677"/>
			<point x="274" y="679"/>
			<point x="274" y="681" type="curve" smooth="yes"/>
			<point x="274" y="694"/>
			<point x="263" y="694"/>
			<point x="247" y="694" type="curve" smooth="yes"/>
			<point x="165" y="694" type="line" smooth="yes"/>
			<point x="143" y="694"/>
			<point x="139" y="694"/>
			<point x="136" y="673" type="curve" smooth="yes"/>
			<point x="117" y="551" type="line"/>
			<point x="117" y="537"/>
			<point x="128" y="537"/>
			<point x="144" y="537" type="curve" smooth="yes"/>
			<point x="162" y="537" type="line" smooth="yes"/>
			<point x="182" y="537"/>
			<point x="183" y="538"/>
			<point x="192" y="551" type="curve" smooth="yes"/>
		</contour>
		<contour>
			<point x="449" y="665" type="line" smooth="yes"/>
			<point x="457" y="677"/>
			<point x="457" y="679"/>
			<point x="457" y="681" type="curve" smooth="yes"/>
			<point x="457" y="694"/>
			<point x="446" y="694"/>
			<point x="430" y="694" type="curve" smooth="yes"/>
			<point x="348" y="694" type="line" smooth="yes"/>
			<point x="326" y="694"/>
			<point x="322" y="694"/>
			<point x="319" y="673" type="curve" smooth="yes"/>
			<point x="300" y="551" type="line"/>
			<point x="300" y="537"/>
			<point x="311" y="537"/>
			<point x="327" y="537" type="curve" smooth="yes"/>
			<point x="345" y="537" type="line" smooth="yes"/>
			<point x="365" y="537"/>
			<point x="366" y="538"/>
			<point x="375" y="551" type="curve" smooth="yes"/>
		</contour>
	</outline>
</glyph>
<glyph name="Theta" format="2">
	<unicode hex="0398"/>
	<advance width="855"/>
	<outline>
		<contour>
			<point x="794" y="342" type="curve" smooth="yes"/>
			<point x="794" y="585"/>
			<point x="678" y="716"/>
			<point x="428" y="716" type="curve" smooth="yes"/>
			<point x="182" y="716"/>
			<point x="61" y="590"/>
			<point x="61" y="342" type="curve" smooth="yes"/>
			<point x="61" y="105"/>
			<point x="177" y="-22"/>
			<point x="427" y="-22" type="curve" smooth="yes"/>
			<point x="666" y="-22"/>
			<point x="794" y="93"/>
		</contour>
		<contour>
			<point x="427" y="53" type="curve" smooth="yes"/>
			<point x="202" y="53"/>
			<point x="202" y="256"/>
			<point x="202" y="343" type="curve" smooth="yes"/>
			<point x="202" y="429"/>
			<point x="202" y="644"/>
			<point x="427" y="644" type="curve" smooth="yes"/>
			<point x="653" y="644"/>
			<point x="653" y="431"/>
			<point x="653" y="343" type="curve" smooth="yes"/>
			<point x="653" y="252"/>
			<point x="651" y="53"/>
		</contour>
		<contour>
			<point x="316" y="415" type="line" smooth="yes"/>
			<point x="279" y="415"/>
			<point x="264" y="407"/>
			<point x="264" y="367" type="curve" smooth="yes"/>
			<point x="264" y="330" type="line" smooth="yes"/>
			<point x="264" y="292"/>
			<point x="277" y="282"/>
			<point x="316" y="282" type="curve" smooth="yes"/>
			<point x="539" y="282" type="line" smooth="yes"/>
			<point x="576" y="282"/>
			<point x="591" y="290"/>
			<point x="591" y="330" type="curve" smooth="yes"/>
			<point x="591" y="367" type="line" smooth="yes"/>
			<point x="591" y="405"/>
			<point x="578" y="415"/>
			<point x="539" y="415" type="curve" smooth="yes"/>
		</contour>
	</outline>
</glyph>
<glyph name="Lambda" format="2">
  <advance width="672"/>
  <unicode hex="039B"/>
  <outline>
    <contour>
      <point x="440" y="651" type="line" smooth="yes"/>
      <point x="428" y="690"/>
      <point x="407" y="694"/>
      <point x="379" y="694" type="curve" smooth="yes"/>
      <point x="292" y="694" type="line" smooth="yes"/>
      <point x="265" y="694"/>
      <point x="243" y="691"/>
      <point x="231" y="651" type="curve" smooth="yes"/>
      <point x="45" y="46" type="line" smooth="yes"/>
      <point x="41" y="33"/>
      <point x="40" y="31"/>
      <point x="40" y="28" type="curve" smooth="yes"/>
      <point x="40" y="0"/>
      <point x="68" y="0"/>
      <point x="81" y="0" type="curve" smooth="yes"/>
      <point x="116" y="0" type="line" smooth="yes"/>
      <point x="142" y="0"/>
      <point x="165" y="3"/>
      <point x="177" y="43" type="curve" smooth="yes"/>
      <point x="262" y="324" type="line"/>
      <point x="300" y="459" type="line" smooth="yes"/>
      <point x="321" y="535"/>
      <point x="323" y="550"/>
      <point x="324" y="564" type="curve"/>
      <point x="325" y="564" type="line"/>
      <point x="327" y="548"/>
      <point x="338" y="505"/>
      <point x="342" y="491" type="curve" smooth="yes"/>
      <point x="349" y="461"/>
      <point x="354" y="444"/>
      <point x="362" y="416" type="curve" smooth="yes"/>
      <point x="474" y="43" type="line" smooth="yes"/>
      <point x="486" y="3"/>
      <point x="509" y="0"/>
      <point x="535" y="0" type="curve" smooth="yes"/>
      <point x="590" y="0" type="line" smooth="yes"/>
      <point x="603" y="0"/>
      <point x="631" y="0"/>
      <point x="631" y="28" type="curve" smooth="yes"/>
      <point x="631" y="31"/>
      <point x="630" y="33"/>
      <point x="626" y="46" type="curve" smooth="yes"/>
    </contour>
  </outline>
</glyph>
<glyph name="Xi" format="2">
	<unicode hex="039E"/>
	<advance width="733"/>
	<outline>
		<contour>
			<point x="680" y="640" type="line" smooth="yes"/>
			<point x="680" y="672"/>
			<point x="673" y="688"/>
			<point x="632" y="688" type="curve" smooth="yes"/>
			<point x="100" y="688" type="line" smooth="yes"/>
			<point x="64" y="688"/>
			<point x="52" y="677"/>
			<point x="52" y="640" type="curve" smooth="yes"/>
			<point x="52" y="614" type="line" smooth="yes"/>
			<point x="52" y="566"/>
			<point x="72" y="566"/>
			<point x="121" y="566" type="curve" smooth="yes"/>
			<point x="138" y="566"/>
			<point x="331" y="568"/>
			<point x="366" y="568" type="curve" smooth="yes"/>
			<point x="405" y="568"/>
			<point x="602" y="566"/>
			<point x="611" y="566" type="curve" smooth="yes"/>
			<point x="661" y="566"/>
			<point x="680" y="566"/>
			<point x="680" y="614" type="curve" smooth="yes"/>
		</contour>
		<contour>
			<point x="46" y="48" type="line" smooth="yes"/>
			<point x="46" y="12"/>
			<point x="57" y="0"/>
			<point x="94" y="0" type="curve" smooth="yes"/>
			<point x="638" y="0" type="line" smooth="yes"/>
			<point x="676" y="0"/>
			<point x="686" y="13"/>
			<point x="686" y="48" type="curve" smooth="yes"/>
			<point x="686" y="74" type="line" smooth="yes"/>
			<point x="686" y="122"/>
			<point x="667" y="122"/>
			<point x="616" y="122" type="curve" smooth="yes"/>
			<point x="594" y="122"/>
			<point x="403" y="120"/>
			<point x="366" y="120" type="curve" smooth="yes"/>
			<point x="318" y="120"/>
			<point x="128" y="122"/>
			<point x="116" y="122" type="curve" smooth="yes"/>
			<point x="65" y="122"/>
			<point x="46" y="122"/>
			<point x="46" y="74" type="curve" smooth="yes"/>
		</contour>
		<contour>
			<point x="170" y="418" type="line" smooth="yes"/>
			<point x="134" y="418"/>
			<point x="122" y="407"/>
			<point x="122" y="370" type="curve" smooth="yes"/>
			<point x="122" y="346" type="line" smooth="yes"/>
			<point x="122" y="314"/>
			<point x="129" y="298"/>
			<point x="170" y="298" type="curve" smooth="yes"/>
			<point x="562" y="298" type="line" smooth="yes"/>
			<point x="600" y="298"/>
			<point x="610" y="311"/>
			<point x="610" y="346" type="curve" smooth="yes"/>
			<point x="610" y="370" type="line" smooth="yes"/>
			<point x="610" y="402"/>
			<point x="603" y="418"/>
			<point x="562" y="418" type="curve" smooth="yes"/>
		</contour>
	</outline>
</glyph>
<glyph name="Pi" format="2">
	<unicode hex="03A0"/>
	<advance width="794"/>
	<outline>
		<contour>
			<point x="702" y="643" type="line" smooth="yes"/>
			<point x="702" y="675"/>
			<point x="695" y="691"/>
			<point x="654" y="691" type="curve" smooth="yes"/>
			<point x="139" y="691" type="line" smooth="yes"/>
			<point x="103" y="691"/>
			<point x="91" y="680"/>
			<point x="91" y="643" type="curve" smooth="yes"/>
			<point x="91" y="48" type="line" smooth="yes"/>
			<point x="91" y="12"/>
			<point x="102" y="0"/>
			<point x="139" y="0" type="curve" smooth="yes"/>
			<point x="190" y="0" type="line" smooth="yes"/>
			<point x="228" y="0"/>
			<point x="238" y="13"/>
			<point x="238" y="48" type="curve" smooth="yes"/>
			<point x="238" y="597" type="line"/>
			<point x="555" y="597" type="line"/>
			<point x="555" y="48" type="line" smooth="yes"/>
			<point x="555" y="16"/>
			<point x="562" y="0"/>
			<point x="603" y="0" type="curve" smooth="yes"/>
			<point x="654" y="0" type="line" smooth="yes"/>
			<point x="692" y="0"/>
			<point x="702" y="13"/>
			<point x="702" y="48" type="curve" smooth="yes"/>
		</contour>
	</outline>
</glyph>
<glyph name="Sigma" format="2">
	<unicode hex="03A3"/>
	<advance width="794"/>
	<outline>
		<contour>
			<point x="463" y="318" type="line" smooth="yes"/>
			<point x="471" y="327"/>
			<point x="476" y="336"/>
			<point x="476" y="347" type="curve" smooth="yes"/>
			<point x="476" y="360"/>
			<point x="470" y="367"/>
			<point x="463" y="375" type="curve" smooth="yes"/>
			<point x="275" y="593" type="line"/>
			<point x="332" y="593" type="line" smooth="yes"/>
			<point x="442" y="593"/>
			<point x="553" y="590"/>
			<point x="663" y="590" type="curve" smooth="yes"/>
			<point x="713" y="590"/>
			<point x="732" y="590"/>
			<point x="732" y="638" type="curve" smooth="yes"/>
			<point x="732" y="646" type="line" smooth="yes"/>
			<point x="732" y="678"/>
			<point x="725" y="694"/>
			<point x="684" y="694" type="curve" smooth="yes"/>
			<point x="109" y="694" type="line" smooth="yes"/>
			<point x="63" y="694"/>
			<point x="61" y="672"/>
			<point x="61" y="644" type="curve" smooth="yes"/>
			<point x="61" y="620"/>
			<point x="61" y="617"/>
			<point x="73" y="603" type="curve" smooth="yes"/>
			<point x="302" y="337" type="line"/>
			<point x="74" y="65" type="line" smooth="yes"/>
			<point x="64" y="53"/>
			<point x="61" y="44"/>
			<point x="61" y="36" type="curve" smooth="yes"/>
			<point x="61" y="0"/>
			<point x="98" y="0"/>
			<point x="109" y="0" type="curve" smooth="yes"/>
			<point x="684" y="0" type="line" smooth="yes"/>
			<point x="722" y="0"/>
			<point x="732" y="13"/>
			<point x="732" y="48" type="curve" smooth="yes"/>
			<point x="732" y="64" type="line" smooth="yes"/>
			<point x="732" y="112"/>
			<point x="712" y="112"/>
			<point x="665" y="112" type="curve" smooth="yes"/>
			<point x="559" y="112"/>
			<point x="452" y="109"/>
			<point x="346" y="109" type="curve" smooth="yes"/>
			<point x="288" y="109" type="line"/>
		</contour>
	</outline>
</glyph>
<glyph name="Upsilon" format="2">
	<unicode hex="03A5"/>
	<advance width="855"/>
	<outline>
		<contour>
			<point x="501" y="392" type="line" smooth="yes"/>
			<point x="501" y="533"/>
			<point x="528" y="606"/>
			<point x="597" y="606" type="curve" smooth="yes"/>
			<point x="625" y="606"/>
			<point x="655" y="589"/>
			<point x="658" y="558" type="curve" smooth="yes"/>
			<point x="661" y="519"/>
			<point x="688" y="519"/>
			<point x="707" y="519" type="curve" smooth="yes"/>
			<point x="745" y="519" type="line" smooth="yes"/>
			<point x="760" y="519"/>
			<point x="794" y="519"/>
			<point x="794" y="558" type="curve" smooth="yes"/>
			<point x="794" y="647"/>
			<point x="703" y="716"/>
			<point x="600" y="716" type="curve" smooth="yes"/>
			<point x="496" y="716"/>
			<point x="448" y="630"/>
			<point x="428" y="526" type="curve"/>
			<point x="427" y="526" type="line"/>
			<point x="403" y="646"/>
			<point x="350" y="716"/>
			<point x="255" y="716" type="curve" smooth="yes"/>
			<point x="152" y="716"/>
			<point x="61" y="647"/>
			<point x="61" y="558" type="curve" smooth="yes"/>
			<point x="61" y="519"/>
			<point x="95" y="519"/>
			<point x="110" y="519" type="curve" smooth="yes"/>
			<point x="148" y="519" type="line" smooth="yes"/>
			<point x="168" y="519"/>
			<point x="194" y="519"/>
			<point x="197" y="558" type="curve" smooth="yes"/>
			<point x="200" y="591"/>
			<point x="232" y="606"/>
			<point x="258" y="606" type="curve" smooth="yes"/>
			<point x="326" y="606"/>
			<point x="354" y="533"/>
			<point x="354" y="392" type="curve" smooth="yes"/>
			<point x="354" y="48" type="line" smooth="yes"/>
			<point x="354" y="12"/>
			<point x="365" y="0"/>
			<point x="402" y="0" type="curve" smooth="yes"/>
			<point x="453" y="0" type="line" smooth="yes"/>
			<point x="491" y="0"/>
			<point x="501" y="13"/>
			<point x="501" y="48" type="curve" smooth="yes"/>
		</contour>
	</outline>
</glyph>
<glyph name="endash" format="2">
	<unicode hex="2013"/>
	<advance width="1100"/>
	<outline>
		<contour>
			<point x="1098" y="566" type="curve"/>
			<point x="1098" y="566" type="line"/>
			<point x="1098" y="638"/>
			<point x="1026" y="638"/>
			<point x="1002" y="638" type="curve" smooth="yes"/>
			<point x="96" y="638" type="line" smooth="yes"/>
			<point x="72" y="638"/>
			<point x="0" y="638"/>
			<point x="0" y="566" type="curve"/>
			<point x="0" y="566" type="line"/>
			<point x="0" y="494"/>
			<point x="72" y="494"/>
			<point x="96" y="494" type="curve" smooth="yes"/>
			<point x="1002" y="494" type="line" smooth="yes"/>
			<point x="1026" y="494"/>
			<point x="1098" y="494"/>
		</contour>
	</outline>
</glyph>
<glyph name="emdash" format="2">
	<unicode hex="2014"/>
	<advance width="2200"/>
	<outline>
		<contour>
			<point x="2198" y="566" type="curve"/>
			<point x="2198" y="566" type="line"/>
			<point x="2198" y="638"/>
			<point x="2126" y="638"/>
			<point x="2102" y="638" type="curve" smooth="yes"/>
			<point x="96" y="638" type="line" smooth="yes"/>
			<point x="72" y="638"/>
			<point x="0" y="638"/>
			<point x="0" y="566" type="curve"/>
			<point x="0" y="566" type="line"/>
			<point x="0" y="494"/>
			<point x="72" y="494"/>
			<point x="96" y="494" type="curve" smooth="yes"/>
			<point x="2102" y="494" type="line" smooth="yes"/>
			<point x="2126" y="494"/>
			<point x="2198" y="494"/>
		</contour>
	</outline>
</glyph>
<glyph name="quoteleft" format="2">
	<unicode hex="2018"/>
	<advance width="610"/>
	<outline>
		<contour>
			<point x="428" y="1336" type="line" smooth="yes"/>
			<point x="430" y="1342"/>
			<point x="434" y="1354"/>
			<point x="434" y="1362" type="curve" smooth="yes"/>
			<point x="434" y="1388"/>
			<point x="414" y="1388"/>
			<point x="382" y="1388" type="curve" smooth="yes"/>
			<point x="358" y="1388" type="line" smooth="yes"/>
			<point x="318" y="1388"/>
			<point x="316" y="1386"/>
			<point x="300" y="1362" type="curve" smooth="yes"/>
			<point x="174" y="1158" type="line"/>
			<point x="174" y="968" type="line" smooth="yes"/>
			<point x="174" y="916"/>
			<point x="176" y="914"/>
			<point x="228" y="914" type="curve" smooth="yes"/>
			<point x="382" y="914" type="line" smooth="yes"/>
			<point x="434" y="914"/>
			<point x="436" y="916"/>
			<point x="436" y="968" type="curve" smooth="yes"/>
			<point x="436" y="1122" type="line" smooth="yes"/>
			<point x="436" y="1174"/>
			<point x="434" y="1176"/>
			<point x="368" y="1176" type="curve"/>
			<point x="368" y="1176" type="line"/>
		</contour>
	</outline>
</glyph>
<glyph name="quoteright" format="2">
	<unicode hex="2019"/>
	<advance width="610"/>
	<outline>
		<contour>
			<point x="242" y="1126" type="line"/>
			<point x="182" y="966" type="line" smooth="yes"/>
			<point x="180" y="960"/>
			<point x="176" y="948"/>
			<point x="176" y="940" type="curve" smooth="yes"/>
			<point x="176" y="914"/>
			<point x="196" y="914"/>
			<point x="228" y="914" type="curve" smooth="yes"/>
			<point x="252" y="914" type="line" smooth="yes"/>
			<point x="292" y="914"/>
			<point x="294" y="916"/>
			<point x="310" y="940" type="curve" smooth="yes"/>
			<point x="436" y="1144" type="line"/>
			<point x="436" y="1334" type="line" smooth="yes"/>
			<point x="436" y="1386"/>
			<point x="434" y="1388"/>
			<point x="382" y="1388" type="curve" smooth="yes"/>
			<point x="228" y="1388" type="line" smooth="yes"/>
			<point x="176" y="1388"/>
			<point x="174" y="1386"/>
			<point x="174" y="1334" type="curve" smooth="yes"/>
			<point x="174" y="1180" type="line" smooth="yes"/>
			<point x="174" y="1128"/>
			<point x="176" y="1126"/>
			<point x="242" y="1126" type="curve"/>
		</contour>
	</outline>
</glyph>
<glyph name="quotedblleft" format="2">
	<unicode hex="201C"/>
	<advance width="1116"/>
	<outline>
		<contour>
			<point x="586" y="1336" type="line" smooth="yes"/>
			<point x="588" y="1342"/>
			<point x="592" y="1354"/>
			<point x="592" y="1362" type="curve" smooth="yes"/>
			<point x="592" y="1388"/>
			<point x="572" y="1388"/>
			<point x="540" y="1388" type="curve" smooth="yes"/>
			<point x="516" y="1388" type="line" smooth="yes"/>
			<point x="476" y="1388"/>
			<point x="474" y="1386"/>
			<point x="458" y="1362" type="curve" smooth="yes"/>
			<point x="332" y="1158" type="line"/>
			<point x="332" y="968" type="line" smooth="yes"/>
			<point x="332" y="916"/>
			<point x="334" y="914"/>
			<point x="386" y="914" type="curve" smooth="yes"/>
			<point x="540" y="914" type="line" smooth="yes"/>
			<point x="592" y="914"/>
			<point x="594" y="916"/>
			<point x="594" y="968" type="curve" smooth="yes"/>
			<point x="594" y="1122" type="line" smooth="yes"/>
			<point x="594" y="1174"/>
			<point x="592" y="1176"/>
			<point x="526" y="1176" type="curve"/>
			<point x="526" y="1176" type="line"/>
		</contour>
		<contour>
			<point x="1032" y="1336" type="line" smooth="yes"/>
			<point x="1034" y="1342"/>
			<point x="1038" y="1354"/>
			<point x="1038" y="1362" type="curve" smooth="yes"/>
			<point x="1038" y="1388"/>
			<point x="1018" y="1388"/>
			<point x="986" y="1388" type="curve" smooth="yes"/>
			<point x="962" y="1388" type="line" smooth="yes"/>
			<point x="922" y="1388"/>
			<point x="920" y="1386"/>
			<point x="904" y="1362" type="curve" smooth="yes"/>
			<point x="778" y="1158" type="line"/>
			<point x="778" y="968" type="line" smooth="yes"/>
			<point x="778" y="916"/>
			<point x="780" y="914"/>
			<point x="832" y="914" type="curve" smooth="yes"/>
			<point x="986" y="914" type="line" smooth="yes"/>
			<point x="1038" y="914"/>
			<point x="1040" y="916"/>
			<point x="1040" y="968" type="curve" smooth="yes"/>
			<point x="1040" y="1122" type="line" smooth="yes"/>
			<point x="1040" y="1174"/>
			<point x="1038" y="1176"/>
			<point x="972" y="1176" type="curve"/>
			<point x="972" y="1176" type="line"/>
		</contour>
	</outline>
</glyph>
<glyph name="quotedblright" format="2">
	<unicode hex="201D"/>
	<advance width="1116"/>
	<outline>
		<contour>
			<point x="336" y="1144" type="line"/>
			<point x="336" y="1334" type="line" smooth="yes"/>
			<point x="336" y="1386"/>
			<point x="334" y="1388"/>
			<point x="282" y="1388" type="curve" smooth="yes"/>
			<point x="128" y="1388" type="line" smooth="yes"/>
			<point x="76" y="1388"/>
			<point x="74" y="1386"/>
			<point x="74" y="1334" type="curve" smooth="yes"/>
			<point x="74" y="1180" type="line" smooth="yes"/>
			<point x="74" y="1128"/>
			<point x="76" y="1126"/>
			<point x="142" y="1126" type="curve"/>
			<point x="142" y="1126" type="line"/>
			<point x="82" y="966" type="line" smooth="yes"/>
			<point x="80" y="960"/>
			<point x="76" y="948"/>
			<point x="76" y="940" type="curve" smooth="yes"/>
			<point x="76" y="914"/>
			<point x="96" y="914"/>
			<point x="128" y="914" type="curve" smooth="yes"/>
			<point x="152" y="914" type="line" smooth="yes"/>
			<point x="192" y="914"/>
			<point x="194" y="916"/>
			<point x="210" y="940" type="curve" smooth="yes"/>
		</contour>
		<contour>
			<point x="782" y="1144" type="line"/>
			<point x="782" y="1334" type="line" smooth="yes"/>
			<point x="782" y="1386"/>
			<point x="780" y="1388"/>
			<point x="728" y="1388" type="curve" smooth="yes"/>
			<point x="574" y="1388" type="line" smooth="yes"/>
			<point x="522" y="1388"/>
			<point x="520" y="1386"/>
			<point x="520" y="1334" type="curve" smooth="yes"/>
			<point x="520" y="1180" type="line" smooth="yes"/>
			<point x="520" y="1128"/>
			<point x="522" y="1126"/>
			<point x="588" y="1126" type="curve"/>
			<point x="588" y="1126" type="line"/>
			<point x="528" y="966" type="line" smooth="yes"/>
			<point x="526" y="960"/>
			<point x="522" y="948"/>
			<point x="522" y="940" type="curve" smooth="yes"/>
			<point x="522" y="914"/>
			<point x="542" y="914"/>
			<point x="574" y="914" type="curve" smooth="yes"/>
			<point x="598" y="914" type="line" smooth="yes"/>
			<point x="638" y="914"/>
			<point x="640" y="916"/>
			<point x="656" y="940" type="curve" smooth="yes"/>
		</contour>
	</outline>
</glyph>
<glyph name="Omega" format="2">
	<unicode hex="2126"/>
	<advance width="794"/>
	<outline>
		<contour>
			<point x="744" y="60" type="line" smooth="yes"/>
			<point x="744" y="108"/>
			<point x="722" y="108"/>
			<point x="682" y="108" type="curve" smooth="yes"/>
			<point x="666" y="108"/>
			<point x="649" y="107"/>
			<point x="633" y="107" type="curve" smooth="yes"/>
			<point x="559" y="107" type="line" smooth="yes"/>
			<point x="545" y="107"/>
			<point x="543" y="107"/>
			<point x="537" y="106" type="curve"/>
			<point x="557" y="149"/>
			<point x="579" y="177"/>
			<point x="624" y="232" type="curve" smooth="yes"/>
			<point x="679" y="301"/>
			<point x="732" y="370"/>
			<point x="732" y="464" type="curve" smooth="yes"/>
			<point x="732" y="505"/>
			<point x="722" y="595"/>
			<point x="642" y="655" type="curve" smooth="yes"/>
			<point x="564" y="713"/>
			<point x="457" y="716"/>
			<point x="397" y="716" type="curve" smooth="yes"/>
			<point x="323" y="716"/>
			<point x="240" y="710"/>
			<point x="167" y="666" type="curve" smooth="yes"/>
			<point x="77" y="611"/>
			<point x="61" y="516"/>
			<point x="61" y="464" type="curve" smooth="yes"/>
			<point x="61" y="373"/>
			<point x="109" y="306"/>
			<point x="167" y="236" type="curve" smooth="yes"/>
			<point x="218" y="173"/>
			<point x="237" y="146"/>
			<point x="256" y="106" type="curve"/>
			<point x="249" y="107"/>
			<point x="247" y="107"/>
			<point x="234" y="107" type="curve" smooth="yes"/>
			<point x="160" y="107" type="line" smooth="yes"/>
			<point x="144" y="107"/>
			<point x="127" y="108"/>
			<point x="111" y="108" type="curve" smooth="yes"/>
			<point x="70" y="108"/>
			<point x="49" y="108"/>
			<point x="49" y="60" type="curve" smooth="yes"/>
			<point x="49" y="48" type="line" smooth="yes"/>
			<point x="49" y="12"/>
			<point x="60" y="0"/>
			<point x="97" y="0" type="curve" smooth="yes"/>
			<point x="295" y="0" type="line" smooth="yes"/>
			<point x="312" y="0"/>
			<point x="343" y="0"/>
			<point x="343" y="42" type="curve" smooth="yes"/>
			<point x="343" y="120"/>
			<point x="302" y="204"/>
			<point x="270" y="268" type="curve" smooth="yes"/>
			<point x="227" y="356"/>
			<point x="208" y="406"/>
			<point x="208" y="465" type="curve" smooth="yes"/>
			<point x="208" y="589"/>
			<point x="265" y="644"/>
			<point x="396" y="644" type="curve" smooth="yes"/>
			<point x="524" y="644"/>
			<point x="585" y="592"/>
			<point x="585" y="465" type="curve" smooth="yes"/>
			<point x="585" y="411"/>
			<point x="570" y="363"/>
			<point x="525" y="274" type="curve" smooth="yes"/>
			<point x="493" y="210"/>
			<point x="450" y="123"/>
			<point x="450" y="42" type="curve" smooth="yes"/>
			<point x="450" y="0"/>
			<point x="481" y="0"/>
			<point x="498" y="0" type="curve" smooth="yes"/>
			<point x="696" y="0" type="line" smooth="yes"/>
			<point x="734" y="0"/>
			<point x="744" y="13"/>
			<point x="744" y="48" type="curve" smooth="yes"/>
		</contour>
	</outline>
</glyph>
